<?xml version="1.0" encoding="UTF-8"?>
<svg id="Layer_2" data-name="Layer 2" xmlns="http://www.w3.org/2000/svg" viewBox="0 0 318.97 249.95">
  <defs>
    <style>
      .cls-1 {
        fill: #fff;
      }
    </style>
  </defs>
  <g id="Camada_1" data-name="Camada 1">
    <g>
      <path class="cls-1" d="M131.6,52.41c-.39.28-.29.26-.57.51-2.18,1.94-3.76,2.6-3.78,5.87-.01,2.7,2.48,6.24,4.87,7.43.16-.43.1-.32.12-.75.14-2.78,3.19-4.68,5.81-4.41,1.58.16,2.45.52,3.87,1.01-4.56-.07-7.31-.56-8.94,4.5,3.81-4.89,6.05-3.15,11.41-2.67.47.25,1.02.23,1.33.46-.19.16-.57.44-.72.6-2.05.47-3.31.37-5.45.29,1.45,1.04,3.24,2.83,4.71,3.56,6.74,3.37,14.26,4.99,21.73,3.59,5.74-1.07,8.22-2.2,12.94-5.15l.27-.13.18-.64h0s0,0,0,0h0c-.47-.28-1.01-.2-1.58-.2-3.19.14-4.67-.77-6.99-2.75,3.1,1.27,4.97,1.59,8.32,1.16,3.82-.49,5.53.15,7.74,3.25l-.05-.23c-.51-2.42-1.31-3.12-3.62-4.05l1.03-.93c2.5.87,3.38,2.01,3.55,4.57,2.36-1.81,4.56-3.39,4.95-6.35.53-3.96-1.98-4.94-3.96-6.96-.7-.72-.36-5.78-.72-7.57-.68-3.39-2.78-5.89-3.31-9.24-.31-2.06.12-5.61.49-7.63.59,2.65.53,5.78,1.47,8.32.64,1.73,1.93,3.25,2.6,5.11.4-.56.15-.37.75-.64.09-.44.12-1.5.09-1.97-.38-7.12-2.72-13.48-7.96-18.41-5.54-5.21-14.76-8.79-22.27-8.51-7.65.29-16.64,4.1-21.85,9.78-5.1,5.56-7.18,11.7-6.93,19.15.79-2.11,1.8-2.96,2.85-4.77,1.11-1.91,1.91-5.1,2.5-7.29l.7-.15c0,2.1.02,4.25-.73,6.26-1.37,3.65-3.56,5.17-4.24,9.31-.33,2.02.64,6.1.05,6.93l-.66-.25ZM163.33,66.8c-2.16.12-2.19-1.83-3.62-3.15-.69.95-1.27,2.84-2.41,3.07-1.23.26-2.64-.6-2.71-1.95-.15-2.95,1.69-6.34,3.25-8.76.65-1.01,1.31-1.51,2.45-1.68,1.76,1.01,7.81,12.2,3.05,12.48ZM155.31,57.41l-.19-.11c.11-1.74,1.78-4.79,3.14-6.01.32.76-2.41,5.26-2.95,6.12ZM161.55,51.07c1.74,1.12,2.95,5.33,3.38,7.37-1.06-.57-3.04-6.01-3.38-7.37ZM180.21,36.17c1.25.38,2.35,1.09,2.97,2.27l-.13.21c-3.35-2.08-6.97-1.6-10.36,0-2.62,1.17-3.6,2.14-5.79,3.86,2.15-3.75,5.44-5.93,9.65-6.68,1.23-.13,2.48-.01,3.67.35ZM160.53,37.52c3.78.09,5.66-3.41,10.49-3.57l-.63.49c-12.56,6.25-7.57,6.04-20.2-.79,4.69.05,6.78,3.8,10.33,3.88ZM141.52,34.92c5.07-.31,9.89,2.39,11.74,7.21-1-1.1-1.56-1.64-2.69-2.61-4.4-3.13-8.01-4.45-13.04-1.83,1.38-1.76,1.87-2.12,3.99-2.76ZM139.19,42c2.86-.26,4.76.41,7.57,2.32,2.14,1.46,10.09,8.37,10.74,1.38.06-.67-1.29-2.66-1.77-3.42,4.69,3.26,2.49,5.72,3.02,6.18.19-.4.28-.54.39-.97.18-.68.4-2.1.83-2.43.47.4.58.96.8,1.57.23.84.43,1.62.72,2.44.11-3.02.18-4.67,3.02-6.41-1.51,2.3-2.42,3.77-.25,6.02l1.91.6c4.34-1.16,7.24-4.85,11.75-6.05,4.46-1.18,7.35.61,8.38,5.03-1.93-2.55-2.15-2.76-5.12-3.8,7.26,5.5,1.78,10.69,2.51,11.82.65.1,1.27.12,1.8.49l-.07.21c-1.23.48-1.79.32-3.08.16-5.85-.21-7.73,1.61-13.78-.99,1.73,1.81,4.93,3.03,7.24,4.06-6.27-.48-10-3.23-12.43-8.67-.19-.43-1.15-1.06-1.58-1.35-.53-.21-.98-.3-1.4-.31.41.01.87.1,1.4.31-1-1.45-2.46-1.33-3.7-.26-.42.36-.81.75-1.16,1.18.36-.15.69-.31,1-.46-.31.15-.64.31-1,.46-.82.82-1.13,1.83-1.81,2.75-2.37,3.24-6.08,5.22-10.09,5.4-.88.04-2-.06-2.89-.14,3.86-.93,5.16-1.04,8.52-3.13-6.55,1.97-6.93.16-12.81-.68-1.27.04-1.91.27-3.23.06l-.07-.21c.75-.45,1-.5,1.85-.76l.07-.15c-2-4.13-1.24-7.3,2.05-10.44-2.13.68-2.93,1.91-4.65,3.27,1.55-3.05,2.07-3.76,5.3-5.09Z"/>
      <path class="cls-1" d="M175.84,55.03c1.98-.63,3.08-2.75,2.45-4.73-.63-1.98-2.75-3.08-4.74-2.44-1.98.64-3.06,2.75-2.43,4.73.63,1.98,2.74,3.07,4.72,2.44ZM173.34,51.05c.17-.48.6-.83,1.11-.92.76-.13,1.49.38,1.63,1.15.14.76-.36,1.5-1.12,1.65-.5.1-1.02-.08-1.36-.47-.33-.39-.43-.93-.26-1.41Z"/>
      <path class="cls-1" d="M144.64,54.44c.67.23,1.4.27,2.09.1,1.99-.48,3.21-2.49,2.73-4.48-.48-1.99-2.49-3.21-4.48-2.73-1.6.39-2.75,1.78-2.83,3.42-.08,1.64.93,3.14,2.49,3.68ZM145.16,49.81c.44-.25.98-.24,1.41.02.43.26.69.73.68,1.24-.01.5-.29.96-.74,1.2-.68.36-1.52.11-1.89-.56s-.13-1.52.54-1.9Z"/>
      <path class="cls-1" d="M6.33,62.09c.82-.75,1.12-1.07,2.13-1.61l-.02-1.89c-2.39-.95-3.62-1.33-5.01-3.64,0-1.64-.05-5.56.28-7.11,1.3-5.58,2.97-12.37,6.63-16.84,2.32-2.83,7.01-1.82,9.91-2.22,7.52-1.04,9.38-.82,11.52-8.5,1.07-3.85,5.84-8.02,9.84-7.22,6.06.13,11.23,3.36,17.05,4.03-.05-1.55-.25-3.93,0-5.41.96-5.76,7.59-7.65,12.3-5.2,4.14,2.38,5.71,14.51,5.83,19.11.04,1.47-.02,3.3-.05,4.79,2.51,5.42,12.21,9.85,17.82,8.53,1.18-.28,2.22-.64,3.37-1.02,5.38-.5,7.49,2.39,7.43,7.2,1.22,1.52,3.02,3.76,2.57,5.9-1.25,5.87-6.67,7.04-11.82,6.79-3.91-.19-8.55-6.41-11-5.74-3.28.89-6.32,2.84-10.13,3.24.04.07.08.13.12.2.94,1.6,1.54,3.46,2.23,5.18,1.19,2.99,2.35,6,3.62,8.97.78,1.83,1.94,4.93,3.3,6.3.62.63,1.57.98,2.14,1.63.48.53.41,1.45.89,1.98,1.2,1.32,24.46,8.92,27.02,9.61,1,.27,1.98.46,3.01.24,1.49-.32,11.37-4.6,12.95-5.54.51-.3.87-.59,1.24-1.04.35-1.65-.96-13.04-2.09-14.29-3.16-3.5-5.91-6.26-5.05-11.54.52-3.21,2.41-4.03,4.39-6.11-.18-2.6-.57-5.21-.64-7.8-1.09-41.2,62.74-43.77,65.21-2.91.24,3.93-.71,8.14-1.22,12.06,2.99,3.78,3.87,3.59,3.56,8.73-.33,5.58-4.05,6.43-5.92,9.7-.99,1.73-2.26,10.34-2.47,12.8,4.62,2.11,6.68-.21,11.05-.76,2.1-.27,2.51,1.03,5.67-.2,7.18-2.78,12.8-6,19.3-9.85,1.11-2.83,1.96-2.25,3.54-4.79,2.46-3.94,9.67-16.14,10.67-20.13-.31-.47-.73-.55-1.26-.78l-.29-.13-.18-.07c-3.13.87-6.55,4.23-9.6,5.61-3.06,1.39-7.01.61-10-.67-1.85-.84-3.33-3.07-3.84-4.95-.83-2.93,1.29-5.21,3.18-7.08.94-5.53,5.02-5.7,9.5-5.44,3.15-1.94,4.56-1.47,7.87-2.19,4.43-.97,9.28-3.41,11.91-7.23,1.43-2.06,3.6-5.86,3.95-8.33,1.03-7.22,4-15.04,13-12.68,5.65,1.48,6.11,8.15,4.73,12.78-.08.26-.16.51-.26.76,1.62-1,3.21-2.02,4.76-3.12,3.07-2.16,8.2-6.7,12.21-5.64,2.49.66,5.84,2.3,7.08,4.64,1,1.9,1.16,4.04,1.8,6.04.34,1.07.98,2.05,1.33,3.12.17.51.25,1.47.55,1.88.33.44,1.3.78,1.8.95,6.56,2.2,11.16-1.76,15.46,6.43,1.71,3.26,5.26,13.85,4.24,17.22-.33,1.1-1.12,2.42-2.2,2.93-.13.06-.23.09-.36.14-.25.09-.46.23-.69.36.11.32,2.07,1.98,2.59,2.54,4.63-3.78,4.88-6.75,3.33-12.27-1.63-5.65-2.53-12.62-7.24-16.68-1.58-1.36-4.42-3.24-6.45-3.16-3.36.13-4.53.17-7.87-.75-.52-1.88-1.07-3.74-1.65-5.6-1.4-4.54-2.36-6.8-6.64-9.27-3.08-1.78-5.94-2.49-9.45-1.54-3.37.92-5.62,3.29-8.48,5.02-.18-3.18-1.35-5.64-3.72-7.78-2.9-2.62-5.56-2.96-9.25-2.74-3.19.32-5.66,1.53-7.67,4.03-5.43,6.76-2.43,14.23-9.07,20.47-2.65,2.49-5.9,3.92-9.5,4.61-1.83.35-3.67.34-5.43,1-2.22.83-3.77,2.49-5.72,3.7-.85.53-2.57.77-3.55,1.33-4.15,2.37-8.13,5.74-7.53,11.05.33,2.94,1.63,5.08,3.85,6.9,2.75,2.25,7.8,3.48,11.29,3.11,3.37-.36,4.95-1.94,7.55-3.59-2.22,4.77-5.14,9.56-7.83,14.09-.38.64-1.74,1.52-2.22,2.17-.88,1.13-.41,1.4-1.8,2.2-3.64,2.08-7.48,3.88-11.26,5.69-1.95.93-3.98,2.07-6.06,2.67-1.27.37-3.07-.04-4.2.13-2.27.34-5.06.87-7.26,1.48.29-2.85.53-6.31,1.67-8.93.52-1.19,2.61-2.62,3.4-3.81,3.69-5.52,4.29-11.97-.67-16.77.31-2.45.86-4.84,1.04-7.31,2.33-32.07-34.75-47.25-58.78-28.99-7.51,5.71-11.5,14.03-12.75,23.27-.55,4.4.06,6.7.67,11-2.71,2.76-4.51,4.66-4.48,8.91.02,3.7,1.28,6.84,3.75,9.58.84.93,1.78,1.87,2.17,3.06.96,2.93.74,6.94,1.39,9.81-2.59,1.41-5.62,2.31-8.33,3.43-3.04,1.26-3.36,1.97-6.73,1-7.92-2.27-15.52-5.51-23.39-7.88-1.49-2.93-2.63-2.62-3.39-4.04-2.45-4.61-5.32-10.67-7.16-15.52,2.26-.67,4.11-1.5,6.23-2.55,4.7,3.68,8.21,6.6,14.5,5.76,6.08-.81,12.17-5.5,11.12-12.27-.97-5.43-6.35-9.87-10.87-12.44-3.38-1.92-8.44.28-11.91-.85-2.9-.95-7-4.42-8.59-6.93,0-6.27-.84-19.5-5.32-23.62-7.67-7.06-18.71-1.94-19.84,8.02-5.68-1.93-12.74-5.07-18.76-2.27-2.84,1.32-6.44,4.83-7.5,7.81-.66,1.87-1.19,3.85-2.1,5.64-1.91.61-3.8,1.04-5.77,1.2-6.98.58-11.81-.94-15.14,6.95-2.94,6.97-6.8,15.74-4.89,23.51.52,2.13,3.43,6.56,5.82,6.25Z"/>
      <g>
        <path class="cls-1" d="M318.24,196.89c-.29-1.74-1.64-3.77-1.83-5.49-.98-9.2-1.93-18.9-7.88-26.43-.61-.76-3.1-4.45-4.32-4.32-.92.1-1.08.92-2.43.82l-.25-.33c.36-.76.39-.69.54-1.5-2.03-4.09-5.04-6.18-9.2-7.9.34-2.61,1.01-7.91-2.22-9.02-1.01,1.05-.74,5.89-1.01,8.05-3.16-.67-5.29-1.02-8.48-1.38.55-2.35,1.31-5.21,1.55-7.57l-.26-.42c-3.27,1.54-4.12,4.36-4.5,7.76-.59-.07-1.18-.13-1.76-.18,0-.05,0-.1.02-.15-.93-.02-1.87,0-2.8.01-.94-.02-1.87-.03-2.8-.01,0,.05,0,.1.02.15-.59.05-1.17.1-1.76.18-.37-3.4-3.76-2.13-3.21.23-3.2.35-5.32.7-8.48,1.38-.27-2.16-3.57-1.64-3.23.98-4.16,1.72-7.17,3.81-9.2,7.9.16.81.19.74.54,1.5l-.25.33c-1.35.1-1.52-.72-2.43-.82-1.22-.13-3.71,3.55-4.32,4.32-5.95,7.53-6.91,17.23-7.88,26.43-.18,1.72-1.54,3.75-1.83,5.49-.61,2.05,1.54,4.87,1.59,6.59.2,6.36,1.02,11,3.01,17.09,1.77,5.4,3.03,9.61,6.47,14.37,1.91.89,3.8,1.64,5.7,2.52l.09.41c-1.08.83-1.79.98-1.4,2.32,1.26,1.33,2.49,1.49,3.85,2.47,4.62,3.32,11.85,6.88,17.62,7.15l.44-.07c2.18-.34,4.12-.18,6.05,0,0,.07,0,.15,0,.22.48-.02.95-.05,1.43-.09.47.04.94.07,1.43.09,0-.07,0-.15,0-.22,1.93-.18,3.87-.34,6.05,0l.44.07c5.78-.27,13-3.82,17.62-7.15,1.35-.98,2.58-1.14,3.85-2.47.38-1.33-.33-1.49-1.4-2.32l.09-.41c1.9-.88,3.79-1.63,5.7-2.52,3.44-4.76,4.7-8.97,6.47-14.37,2-6.09,2.82-10.73,3.01-17.09.05-1.73,2.2-4.54,1.59-6.59ZM289.93,216.28c-.51,1.66-3.84,6.41-5.07,7.8-3.02,2.64-7.3,3.75-11.46,4.06-4.15-.31-8.43-1.42-11.46-4.06-1.23-1.4-4.55-6.15-5.07-7.8-2.2-7.09-2.66-15.5-2.08-22.85.57-7.24,1.09-14.08,6.71-19.29,3.69-3.42,7.72-3.39,11.9-3.81,4.18.42,8.21.4,11.9,3.81,5.62,5.2,6.14,12.05,6.71,19.29.57,7.35.12,15.76-2.08,22.85Z"/>
        <path class="cls-1" d="M147.64,246.64c-1.53-1.97-2.62-2.13-3.51-4.08-1.42-3.1-3.44-6.41-5-9.46-1.53-3-2.58-5.56-4.31-8.66-1.89-4.06-4.37-8.54-5.94-12.48,1.9.08.67-2.13-.85-4.51,2.92-1.96,5.7-4.81,8.52-8.93,4.53-5.54,4.54-9.2,5.25-15.77,2.49-22.93-5.11-44.87-32.59-40.78-5.08.76-12.22.18-17.43.47-4.25.24-7.38-1.29-11.61-.98-.62.67-.94.88-1.09,1.78.16.49.64,1.33.58,1.16,2.95,9.11,1.47,20.03,1.48,29.55,0,1.16-1.53,4.78-1.42,5.63.5,3.82,1.71,6.87,2.06,10.86-1.49,1.13-2.25,2.64-3.29,4.22,1.44,2.12,1.6,3.79,2.94,5.72-.04,1.48,0,3.04-.06,4.53-.55,11.3-.01,22.54-.57,33.82-.13,2.65-1.01,5.05-1.53,7.6-.19.91,1.35,2.22,2.02,2.16,3.86-.3,9.25.18,12.95-.54l.72-.91c1.87.08.99,1.42,2.54.2,1.6.15,3.67,2.91,5.09,1.79.96-.75,1.94-1.89,2.39-3.05-.52-1.97-1.53-2.13-1.43-4.08.16-3.1-.18-6.41-.18-9.46,0-3,.25-5.56.11-8.66.18-4.06-.02-8.54.41-12.48.68.03,1.33.06,1.99.08,4.56,9.34,9.59,18.65,13.89,27.99,1.22,2.65,1.56,5.05,2.34,7.6.27.91,2.48,2.22,3.13,2.16,3.7-.3,9.34.18,12.68-.54l.25-.91c1.91.08,1.71,1.42,2.64.2,1.68.15,5.15,2.91,6,1.79.57-.75.98-1.89.83-3.05ZM104.75,163.46c1.74-.8,4.19-1.02,6.09-1.18,2.04-.05,3.93.89,5.86,1.64,1.88,2.53,2.62,4.24,3,7.41.79,6.6,1.18,16.75-7.64,17.61-2.38-.08-5.62-.42-7.84-1.28.03-3.19-.81-22.4.54-24.19Z"/>
        <path class="cls-1" d="M226.15,246.64c-1.53-1.97-2.62-2.13-3.51-4.08-1.42-3.1-3.44-6.41-5-9.46-1.53-3-2.58-5.56-4.31-8.66-1.89-4.06-4.37-8.54-5.94-12.48,1.9.08.67-2.13-.85-4.51,2.92-1.96,5.7-4.81,8.52-8.93,4.53-5.54,4.54-9.2,5.25-15.77,2.49-22.93-5.11-44.87-32.59-40.78-5.08.76-12.22.18-17.43.47-4.25.24-7.38-1.29-11.61-.98-.62.67-.94.88-1.09,1.78.16.49.64,1.33.58,1.16,2.95,9.11,1.47,20.03,1.48,29.55,0,1.16-1.53,4.78-1.42,5.63.5,3.82,1.71,6.87,2.06,10.86-1.49,1.13-2.25,2.64-3.29,4.22,1.44,2.12,1.6,3.79,2.94,5.72-.04,1.48,0,3.04-.06,4.53-.55,11.3-.01,22.54-.57,33.82-.13,2.65-1.01,5.05-1.53,7.6-.19.91,1.35,2.22,2.02,2.16,3.86-.3,9.25.18,12.95-.54l.72-.91c1.87.08.99,1.42,2.54.2,1.6.15,3.67,2.91,5.09,1.79.96-.75,1.94-1.89,2.39-3.05-.52-1.97-1.53-2.13-1.43-4.08.16-3.1-.18-6.41-.18-9.46,0-3,.25-5.56.11-8.66.18-4.06-.02-8.54.41-12.48.68.03,1.33.06,1.99.08,4.56,9.34,9.59,18.65,13.89,27.99,1.22,2.65,1.56,5.05,2.34,7.6.27.91,2.48,2.22,3.13,2.16,3.7-.3,9.34.18,12.68-.54l.25-.91c1.91.08,1.71,1.42,2.64.2,1.68.15,5.15,2.91,6,1.79.57-.75.98-1.89.83-3.05ZM183.26,163.46c1.74-.8,4.19-1.02,6.09-1.18,2.04-.05,3.93.89,5.86,1.64,1.88,2.53,2.62,4.24,3,7.41.79,6.6,1.18,16.75-7.64,17.61-2.38-.08-5.62-.42-7.84-1.28.03-3.19-.81-22.4.54-24.19Z"/>
        <path class="cls-1" d="M62.7,243.24c.07-5.71-.15-11.38.22-17.09.05-.76-2.01-3.56-2.59-4.16-1.33.4-1.88,3.37-3.57,3.56-6.13.68-12.59-.39-18.85.3-1.9.21-5.66.12-5.5-2.29.32-4.85-.81-12.24.03-16.76,2.9-3.17,4.59-1.99,8.38-2.04,3.06-.04,6.05-.3,9.12-.05,1.62.13,4.16,2.37,5.23,2.19,2.38-2.77,1.43-11.98,1.57-15.87.19-5.24,1.71-8.71-2.3-12.64-3.65,4.09-4.68,4.29-10.22,3.91-.76-.05-3.25.56-3.81.43-3.71-.9-2.98-1.43-6.24,1.31-.41-.68-.73-1.88-.9-2.1-.61-3.25.25-6.39-.22-10.05-.03-.79-.23-4.95.07-5.2,2.22-1.92,10.86-2.84,13.55-2.89,1.43-.02,2.86.02,4.29.11,2.52.16,7.47,3.83,9.87,3.55,1.51-1.95,1.34-19.41,1.2-23.01-.04-1.06-.49-2.29-1.18-3.18-1.81-.73-3.37.78-4.9,1.71-7.5-.37-16.16.93-23.55-.29-7.85-1.29-14.91,2.8-21.81-1.96-.99.69-1.91,1.24-2.7,2.15-.32,2.9,1.65,4.11,1.83,6.14.31,3.6.23,7.98.14,11.62-.14,5.78,1.64,17.87-1.75,22.5.45,2.08,1.43,5.04,1.75,7.59.53,4.29.07,11.94-.32,16.49-.01.15-1.09,1.09-1.29,1.26-.93,2.03,1.22,4.77,1.25,6.81.17,9.28-.48,18.76-.31,28.02-1.56,2.35-3.13,4.52.72,6.2,1.89.83,4.45-.84,6.44-.73,3.96-.02,7.91.21,11.85.27,7.73.09,15.46,0,23.19-.26,1.71-.07,3.34.66,4.57.38.24-.32.67-1.12,1.05-1.13,2.58-.04,4.45,3.49,6.95,1.01,1.26-1.25.93-2.62.4-4.1l-1.63-1.74Z"/>
      </g>
      <path class="cls-1" d="M157.94,103.09c2.04-.23,6.21.53,7.99-.01,5.69-1.74,9.67-10.72,13.23-15.38-.88,2.13-1.82,4.13-2.79,6.22,5.42-5.18,8.26-8.43,8.69-16.22.07-1.35.84-5.37.4-6.39-.52,1.02-.96,3.06-1.47,4.36-1.11,2.85-2.25,4.91-3.71,7.55l.05-.24c.34-1.53.95-3.03,1.41-4.53,1.06-3.38,1.46-5.6,1.55-9.08-1.95,5.07-2.9,9.61-6.64,13.74-10.01,11.07-27.85,9.61-35.84-3.01-2.04-3.22-3.47-6.29-3.97-10.11l-.66.14c.09,2.74.61,4.96,1.18,7.62.29,1.39.64,2.05.7,3.52-1.44-1.55-3.68-10.54-4.2-12.86-.37,2.76-.12,4.34.03,6.93.35,6.26,1.07,9.33,5.1,14.33,1.04,1.29,2.16,2.83,3.37,4.06-.95-2.4-2.41-5.14-3.18-7.44,1.34,1.81,2.58,3.69,3.71,5.64,3.79,6.48,6.12,12.14,15.05,11.14ZM148.77,91.41c-.79-.67-1.25-1.24-1.91-2.02,1.02.67,2.09,1.23,3.17,1.82,1.78.57,3.32,1.34,5.15,1.61,5.26.8,12.09.23,16.61-2.88-2.22,3.01-5.97,4.71-9.65,5.02l-.32.03c.88.55,1.9,1.22,2.8,1.7-4.67-.37-6.43-.69-10.99.01l2.77-1.74c-2.26-.31-5.91-1.97-7.63-3.55Z"/>
      <path class="cls-1" d="M284.39,43.38c-.6-.18-1.86-.53-2.32-.85-.79-.67-.54-2.93-.28-3.84,1.65-5.8,4.87-4.96,8.36-1.8.28-2.46,1.15-4.58,1.35-7.51-1.72-1.87-4.01-2.26-6.39-2.84,2.94-.5,3.75-.37,6.49.61-.19-1.73-2.79-9.09-3.49-11.34-1.43-.77-2.6-.96-4.18-1.24-.26-.16-.51-.25-.8-.37l-.16-.45c1.02-.23,1.59-.13,2.61-.04.52.2.68.31,1.24.27-.16-.43-.38-.41-.92-.71l-2.18-1.08c-1.19.76-1.73.99-3.04,1.53h-.54s0-.21,0-.21c.59-.46,1.79-1.23,1.89-1.87-1.85-.78-7.55,3.88-9.17,4.95-2.54,1.67-4.32,3.4-7.22,4.55l-.82,2.96c-.43,2.51-.66,3.03-2.02,5.09-1.45,1.45-1.88,1.82-3.68,2.85,1.72,1.08,2.05,1.47,2.67,3.39,6.95,2.25,10.13,7.35,16.95,9.65-1.29-2.92-1.48-3.57-1.36-6.8.04-.95.77-3.94.67-4.24l-.16.15-.39-.38c-.07-.47-.11-.63-.31-1.07-.07.01-.15.02-.22.03l-.34.05c-1.92.27-3.01-.03-4.66-.9.7-.1.89-.17,1.57-.4l-.09-.13h-1.24c-3.31-.55-3.83-2.12-6.09-3.89-.45-.79-1.01-1.5-.8-2.28,1.31,1.01,2.63,1.64,4.3,1.84.8.19,1.06.24,1.88.27.53.09,1.33.16,1.81-.08-.25-.35-.82-.44-1.33-.62-.62-.54-.8-.64-1.52-1.02l-.17-.11c.84-.11,3.15.57,4.18.77l-1.59-.77c.38-.35.65-.42,1.12-.61l.64.07c-.4-1.18-.82-1.32-1.25-2.92,1.28.54,2.58,1.45,3.76,2.21-.15-3.87-.32-4.58,1.82-7.97-.21,4.71,1.59,6.53,2.72,10.74l.64-.34c1.56,1.79-4.23,11.48-.7,16.77,1.25.68,1.72.95,3.18,1.08.6-.13.74-.04,1.03-.41-.36-.45-.88-.54-1.45-.74Z"/>
      <path class="cls-1" d="M87.37,42.06c-4.92-1.99-8.87-4.81-13.05-7.95-4.02,1.54-4.97,1.67-9.14.43-1.74.86-3.53,1.09-5.39,1.59-2.11.57-4.09,1.4-6.14,2.14-1.06.38-1.8.38-2.84.94,0,0,0,0,0,0,0,0,0,0,0,0-.68.25-1.62.69-2.56,1.2-1,.54-1.97,1.16-2.6,1.74-.1.09-.2.18-.28.27l.03.24s0,0,0,0h0c.64.03,2.17-.33,3.34-.73.56-.2,1.05-.4,1.31-.58h0s0,0,0,0c5.12-1.62,10.34-4,15.65-4.75,1.35-.19,5.9.24,6.95.99-.95.8-7.1,1.53-9.03,2.02-5.81,1.48-12.57,3.53-17.82,6.48-.3.17-.99,1.25-1.19,1.57,9.37-3.19,19.2-8.22,29.28-6.44-2.09.55-4.07,1.42-6.07,1.87-6.44,1.45-19.36,4.28-24,8.8l.02.25c.41.15.46.19.89.21.7.27,1.28.49,1.83.66.86.25,1.66.34,2.75.17.18-.03.35-.05.55-.1,2.12.04,6.85-1.99,9.18-2.52,5.82-1.33,14.23-2.91,20.19-2.98-4.85,2.6-9.98,2.83-15.36,3.93-2.29.47-4.51,1.21-6.65,1.65-3.01.62-4.64.85-7.58,1.79,7.78.53,14.25-1.85,21.82-3.21,2.58-.46,6.38-.16,8.58-1.18,5.13-2.37,5.45-3.77,7.36-8.47ZM58.9,48.78c-3.39.88-6.33,2.22-9.82,2.85-.23.05-.49.11-.76.17-.99.22-2.21.47-3.01.29,2.43-.82,5.31-2.37,7.54-3.11,5.89-1.95,12.62-4.2,18.84-4.25,1.54-.01,3.78.73,5.14,1.19-6.03.89-11.94,1.3-17.93,2.86Z"/>
      <path class="cls-1" d="M89.59,110.51l15.38,5.88c3.24,1.25,6.77,2.68,10.04,3.75,2.55,14.52,3.88,23.97,3.95,38.89l3.13.02c.25-11.2-.64-22.4-2.66-33.42-.49-2.6-1.02-5.67-1.84-8.16-4.05-1.88-10.75-4.15-15.11-5.82l-27.55-10.64c-2.84-1.09-5.78-2.14-8.67-3.13-4.19-1.42-6.01-5.38-8.46-8.73-2.1-2.87-4.17-5.9-6.37-8.76.41,2.59.66,3.91.46,6.54,3.04,3.4,5.75,9.31,9.15,12.13,2.33,1.94,9.26,4.01,12.43,5.23l16.12,6.23Z"/>
      <path class="cls-1" d="M228.76,110.95c4.49-1.99,8.95-4.04,13.39-6.15.13-.91.68-3.67.4-4.3-8.86,4.86-17.83,8.37-27.14,12.19-3.31,1.36-9.5,3.42-12.4,5.06-3.98,15.77-4.71,34.98-2.5,51.14.27,1.95,2.32,10.06,2.98,12.1l.55,2.08.11.05c.11-2.46-.25-6.75-.39-9.32-.25-5.53-.55-11.06-.91-16.58-.76-13.15.41-24.28,3.18-37.12,7.48-2.92,15.36-5.96,22.74-9.15Z"/>
      <path class="cls-1" d="M229.66,70.21c-2.95,1.89-5.21,7.33-6.26,10.51l-.43-4.07c-7.17,4.79-12.81,6.42-20.21,10.01-.53,2.6-.66,9.33-.47,12.07l.07-.19c.9-2.53,1.72-8,3.45-9.82,1.41-1.48,6.07-3,7.84-4.21-.52,1.99-.92,3.8-1.33,5.81-.13.64-.74,3.09-.45,3.55.58-1.03.77-1.92,1.26-2.95,1.81-3.63,2.43-4.91,5.07-7.94-.83,4.14-.85,5.64-.07,9.94.56-3.79,1.32-9.54,3.59-12.65,1.22,5.17,1.41,6.11,4.53,10.6-1.02-4.11-1.74-7.43-.8-11.57,2.23,5.25,3.26,6.94,7.7,10.89-2.05-2.87-4.89-8.26-5.22-11.72-.11-1.18-.08-3.14-.06-4.38,2.46,3.28,4.56,6.19,6.89,9.56-.56-2.88-1.64-5.43-2.58-8.19-1.02-3.02.75-5.61,2.16-8.28,1.1,2.08,1.88,4.27,3.13,6.54-1.26-6.66-1.94-7.59.36-14.06,1.41,2.49,3.52,5.59,6.02,7.08,1.18,1.13,3.06,1.86,4.56,2.42-.75-1.16-1.4-1.75-2.4-2.67-4.51-3.71-6.83-7.03-7.8-13.05-1.08,2.38-7.41,16.06-8.55,16.79Z"/>
      <path class="cls-1" d="M233.29,38.24c.59.55,1.08.94,1.48,1.64.73,1.28-.15,2.64,1.08,3.12,1.28-.26,2.4-1.68,3.77-2.01.2.75-.47.93-.04,1.25l1.15-.07c-.5.87-1.46,1.5-2.28,2.11,0,0,0,0,0,0,0,0,0,0,0,0,1.26-.38,2.74-1,3.8-1.3h0s.16.02.16.02c-.66.77-1.41,1.36-2.18,2.02,4.22,2.55,5.97,3.89,10.95,3.64-3.48-3.28-2.23-5.43-2.08-9.83.1-3.06.51-5.57,3.4-7.24-2.9-2.15-3.28-3.4-4.28-6.74-2.25,3.42-3.88,5.52-7.56,7.66-4.64,2.69-9.17,2.64-14.2,3.72,1.8,2.95,2.94,5.8,3.1,9.3l.66-.44c.02-.35.11-.77.17-1.13.14-1.01.27-1.91.34-2.93.42,1.25.71,2.03.62,3.39-.04.39-.02.54-.01.94l.18.03c.8-.98,1.13-2.85,1.35-4.07-.5-2.65.09-1.87-1.37-4.86.8.68,1.11.98,1.8,1.75ZM245.36,31.21l.12.17c-1.99,2.24-4.08,2.82-6.88,3.53-.11-.08-.05-.02-.11-.23,2.24-1.42,4.5-1.94,6.88-3.47Z"/>
      <path class="cls-1" d="M71.39,12.29c-1.06-2.83-2.87-4.43-6.07-3.25-1.28.47-3.21,1.99-3.93,3.15.01,3.3.54,5.43,1.28,8.66.59,2.56.65,8.03,2.83,9.75,3.24,2.55,6.36,1.39,8.02-2.24.3-1.5.27-2.4.13-3.88-.08-1.33-.24-1.98-.2-3.39-.3-1.83-.71-4.94-1.42-6.54-1.15-2.59-6.72-.7-8.44.34l-.75-.87.68-.52c2.7-2.06,4.72-1.97,7.86-1.21ZM64.31,22.83c.54-1.11,2.06-1.49,3.2-2.03,3.25-1.54,4.87,1.32,5.49,3.85.22,1.13.57,2.46-.15,3.47-1.66-1.06-1.17-3.59-1.59-5.03-.95-1.06-3.43-.86-4.55-.26-1.41.76.17,3.09-.35,4.94-1.7,1.73-2.58-3.92-2.06-4.95Z"/>
      <path class="cls-1" d="M260.24,26.96c.94-1.1,1.25-2.63,1.49-4.03.46-2.32.96-4.62,1.45-6.93.6-2.84,1.17-5.13-.15-7.87-1.54-1.16-3.14-2.04-5.15-1.81-1.29.15-2.38.79-3.17,1.81-2.07,2.64-3.76,13.68-3.25,17.05.19,1.25.6,2.13,1.66,2.9,1.16.84,2.66,1.13,4.06.86,1.28-.25,2.23-1,3.06-1.98ZM257.65,7.79c1.13,0,5.36.21,5.14,1.9-.61.16-.53.05-1.27-.26-2.54-.59-3.41-.79-6.02-.36.73-.56,1.22-1.15,2.15-1.27ZM252.39,25.23c.03-.82.09-1.64.18-2.46.36-2.86,1.75-5.72,5.12-4.99,1.63.35,2.21.91,3.1,2.28.26,2.02.39,4.94-.77,6.68l-.73.11c-2.12-.93-4.62-1.32-6.9-1.62Z"/>
      <path class="cls-1" d="M255.78,19.41c-.75.85-2.59,3.62-2.29,4.74.15.08,3.18.23,4.27.45.48.19,1.12.54,1.53.44.46-3.67.68-5.34-3.5-5.62Z"/>
      <path class="cls-1" d="M38.44,21.08c-1.32.26-2.33.58-3.59,1.07-.55,1.02-1.76,3.53-1.78,4.63.6,1.26,3.52.18,4.93.75,1.19.48,2.53,2.02,3.44,2.3-.1-.49-.21-.86-.19-1.37,1.13-.64,1.69.82,2.55-2.48.56-2.17,1.05-4.46,1.56-6.65,1.62,1.88,1.78,3.25,1.8,5.71l2.2-.05.22-.05c.87-.2,1.11-.28,1.92-.65l.16.12c-.22.47-.39.8-.64,1.25l-.12.03c-.71.8-1.22.74-2.31.86,1.26.32,2.67.87,3.85.42l.33-.42.07-.16h.2c2.3,1.51,1.93,1.96,1,4.36,2.87-1.52,3.74-1.41,6.4-2.54-.42-2.05-.57-4.73-1.3-6.66-.17-.16-.34-.32-.51-.48-1.94-1.81-5.91-1.87-8.55-2.59-3.38-.93-6.58-2.29-10.11-2.17-.99.21-1.56.45-2.09.93-.32.29-.63.67-1.01,1.19h0c-.46.42-.8.57-.91,1.06.98.01,1.46-.18,2.45,0,1.39-.39,1.87-.62,3.32-.14l.17.19c-.46,1.16-2.41,1.26-3.47,1.55Z"/>
      <path class="cls-1" d="M286.18,48.05c-2.99,2.64-8.68,5.65-16.59,8.12,1.07,3.77,1.34,5.14.51,9.11-.25,1.21-.39,2.2-.99,3.33l-2.1,2.96c-.2.41-1.87,2.72-2.25,3.25-1.72,2.41-3.41,4.85-5.06,7.3-.86,1.3-1.78,2.63-2.58,3.96-1.28,2.12-1.59,3.62-3.58,5.21l-.83,3.11c.52.44,1.36,1,1.94,1.41,3.39-4.83,6.63-9.88,9.91-14.79,5.38-8.06,10.55-12.53,8.75-22.9,15.26-7.07,17.19-6.58,12.87-10.09Z"/>
      <path class="cls-1" d="M167.96,138.94c.37-.79.64-1.4.94-2.24,1.66-4.88,4.43-12.95,5.47-17.88-2.08-2.94-4.45-5.48-6.92-8.08-1.33,2.18-2.18,3.94-3.74,5.99.56,1.73,1.04,4.09,1.45,5.91,1.23,5.38,2.17,10.82,2.8,16.3Z"/>
      <path class="cls-1" d="M152.48,110.66c-2.46,2.73-4.46,4.98-6.69,7.89,1.22,4.54,2.74,9.16,4.19,13.63.34,1.05,1.48,4.57,1.99,5.42.07.47.04.46.31.83.33-.59.42-2.3.46-2.99,1.1-6.93,1.88-11.64,3.53-18.65-1.62-2.1-2.45-4-3.8-6.13Z"/>
      <path class="cls-1" d="M261.73,39.56c-.19,3.47-.64,7.15-3.2,9.72.86.09,2.47.14,3.18.45-.23.4-.43.35-.99.56l-2.35.14,2.22.78c6.73,2.67,11.86,1.97,16.71-3.82-1.82-1-4.01-2.13-5.62-3.42-2.4-1.94-4.71-3.55-7.32-5.19,2.24,2.58,3.58,4.47,5.15,7.46-2.47-1.73-4.26-4.77-7.79-6.69Z"/>
      <path class="cls-1" d="M26.91,45.01c1.7,6.07,2.07,7.74,7.09,11.62.43-1.38.59-2.05,1.25-3.32-.82-.65-1.23-.96-1.97-1.71-2.05-2.08-2.88-8.37-4.62-9.91-1.26-.36-5.29-.68-6.52-.43-4.64.95-5.12,9.3-6.24,13.01-.28.91-1.19,2.28-1.74,3.13-.12.97-.15,1.48-.15,2.46.39.42.78.97,1.31,1.12.19-.1.39-.18.51-.32,3.71-3.22,4.1-9.32,5.11-13.8.71-3.15,3.54-2.49,5.99-1.83Z"/>
      <path class="cls-1" d="M191.17,118.6c.41-.78,1.56-2.99,1.44-3.58-.2-1.09-7.44-4.28-8.26-4.35,1.43,1.33,3.91,3.6,5,5.14-1.99,4.8-4.84,9.88-7.41,14.41-3.04,5.28-6.13,10.54-9.26,15.77-1.47,2.42-6.89,10.49-7.52,12.72.5-.56.83-1,1.28-1.6,8.97-12.31,17.64-25,24.71-38.51Z"/>
      <path class="cls-1" d="M99.06,87.58c-3.16-1.15-9.88-2.79-12.57-4.38-.06,4.38.73,6.24,2.43,10.29.65,1.54,1.21,2.99,2.13,4.42-.69-3.22-2-8.53-2.44-11.61,2.83,1.08,5.73,1.87,8.52,2.95,1.81,2.61,3.45,5.35,5.68,7.61-.25-.84-2.08-6.27-1.91-6.67l.18.12c6.3,3.16,7.04,6.36,10.7,11.68-.77-3.28-2.23-8.07-3.46-11.23-3.03-.92-6.28-2.09-9.26-3.18Z"/>
      <path class="cls-1" d="M32.26,36.86c1.72-.02,3.07-.16,4.49-1.15l2.52.81-1.49.93c-1.69.34-5.49,1.55-5.13,3.77.77.2,2.14-1.21,3.61-1.39l.64-.38c.63.17,1.69.39,2.14.8,1.87,1.7,2.47,5.18,2.82,7.54l.11.07c.45-2.39-.17-3.94-.22-6.18.06-3.41-.51-6.44-.51-9.9,0-3.91-7.2-2.69-9.02-1.17-.78.65-.08,5.08.06,6.26Z"/>
      <path class="cls-1" d="M18.59,39.27c.13-.56.56-2.03.21-2.44-.87-1.03-3.6-1.72-4.82-1.54-1.68.32-2.38.44-3.88,1.37-.55,1.75-2.1,6.19-2.02,7.74.58.79,5.77.54,4.44,6.26-.19.8-.28,1.58-.6,2.41-.19.48-.89,1.62-.66,1.94,5.99-5.87.25-10.07,7.32-15.75Z"/>
      <path class="cls-1" d="M292.29,47.19c.97-1.29,1.81-2.94,2.77-4.2.17-.22,1.27-.19,1.61-.18.33.02.67.03,1,.05.71,2.51,1.27,4.15,2.34,6.53.69,1.48,3.36,5.12,4.88,5.74l.4-.08c.4-1.02.65-1.98.94-3.04-2.21-2.08-1.88-1.89-3.4-4.3-1.35-2.15-2.46-8.45-5.13-8.41-1.01.02-3.51.64-4.79,0-2.03,3.13-1.7,6.04-5.37,7.98.69.68,1.79,1.71,2.4,2.41,1-.92,1.5-1.39,2.35-2.52Z"/>
      <path class="cls-1" d="M167.71,106.08c1.56,1.64,3.43,3.53,4.72,5.36.9,1.42,1.82,2.83,2.74,4.23.65-3.1,4.82-18.61,4.54-20.5-4.92,4.78-5.84,8.03-12,10.91Z"/>
      <path class="cls-1" d="M152.44,106.02c-2.93-.66-5.55-2.27-7.47-4.57-.74-.91-1.57-2.14-2.41-2.92-.66-.97-1.34-1.82-2.06-2.74l.56,3.29c1.08,5.71,2.53,10.9,4.01,16.51,1.61-3.1,4.99-7.08,7.37-9.58Z"/>
      <path class="cls-1" d="M21.71,31.6c-2.4.29-5.69-.05-7.9,1.14-.49.26-1.08.46-1.59.66,5.04.74,8.22,4.51,10.73,4.94.01-.62,0-1.47.44-1.91.41.39.46,1.23.57,1.83.86.2,4.82-.62,4.6-2.37-.19-1.49-.04-3.4.13-4.91-2.96-.32-4.07.27-6.99.63Z"/>
      <path class="cls-1" d="M66.87,64.6c1.36-1.29,2.57-4.54,2.28-6.38-3.25,3.62-7.42,6.75-12.49,7.01-2.96.15-7.18-.54-8.88-3.25.12,1.15.31,2.28.31,3.42,2.23,2.15,4.43,3.45,7.63,3.36,4.02-.11,8.19-1.33,11.15-4.15Z"/>
      <path class="cls-1" d="M96.56,53.53c.21.2.42.38.65.55,1.53.08,2.63.17,4.12-.25,2.22-.89,2.44-1.13,3.51-3.28-.81-2.68-3.08-5.91-5.94-6.64-2.07,2.03-4.92,7.15-2.34,9.63Z"/>
      <path class="cls-1" d="M221.41,40.31c-2.23,1.12-4.96,1.87-6,4.42-.83,2.04,1.64,3.76,3.23,4.41,7.94,2.45,5-7.82,3.21-8.82h-.45Z"/>
      <path class="cls-1" d="M186.34,87.54l-.82,1.49c1.76,4.35,3.63,8.66,5.61,12.91-2.8,2.39-4.22,3.74-6.59,6.71.84-.3,1.47-.51,2.28-.92,2.82-1.55,4.74-2.48,7.83-3.47-1.27-2.58-7.04-15.52-8.31-16.72Z"/>
      <path class="cls-1" d="M133.3,107.61c.75.41,1.53.86,2.29,1.24-1.78-2.72-4.03-5.1-6.65-7.02,1.45-2.46,4.73-10.01,5.75-12.84-.27-.45-.6-1.1-.97-1.41-2.81,4.76-5.63,11.39-8.24,16.53,2.92,1.05,5.1,1.97,7.81,3.5Z"/>
      <path class="cls-1" d="M38.12,50.67c1.02.27,2.82-.97,3.05-2.03l-.18-.19c-.22-.23-1.21-1.34-1.25-1.54-.37-1.93.36-5.87-2.69-5.86-1.82.97-1.96-.1-3.97,1.99.55,2.02,1.95,5.23,2.8,7.25.83.07,1.46.05,2.23.37Z"/>
      <path class="cls-1" d="M120.45,98.36c.26.39.93,1.11,1.26,1.49-.22-1.01-.41-2.09-.61-3.11-.35-1.6-.68-3.28-1.11-4.86-4.47,1.21-6.32.68-10.75-1.01,2.32,3.32,4.26,5.33,6.96,8.3.7.84,1.36,1.72,2.02,2.58-.59-1.2-.93-1.93-1.38-3.19-.51-1.33-.77-3.38-1.42-5.15l.8.54c1.9,1.28,2.82,2.62,4.23,4.39Z"/>
      <path class="cls-1" d="M10.83,47.85c-.44-.89-1.07-1.26-2.03-1.49-.83.94-.82.49-1.56.82-.81.36-1.28,3.42-1.22,4.26.16,2.39.7,2.91,2.93,3.08,2.27-.48,2.79-4.85,1.88-6.68Z"/>
      <path class="cls-1" d="M311.6,133.31c0-.44-.22-.84-.46-1.19-.86-.37-1.77.06-1.82.95-.1,1.71-.22,3.92-.11,5.63.15,2.21-.53,6.33.8,7.99.32.34.46.35.85.29l.33-.48.23-.5c.31-4.16.17-8.52.17-12.7Z"/>
      <path class="cls-1" d="M310.33,109.65c-.31.15-.74.34-.79.7-.32,2.42-.34,12.15.06,13.92.53.59.4.65,1.04.83.3-.2.24-.13.46-.4.26-.42.51-.61.43-.96.12-3.14.15-6.29.18-9.44.01-1.29.28-4.39-1.37-4.65Z"/>
      <path class="cls-1" d="M54.33,33.19c-3.42,1.36-6.01,2.22-9.61,3l.13,2.67c.47-.21.81-.38,1.3-.55,3.52-1.87,8.95-3.22,12.71-4.78.97-.4,2.76-.9,3.52-1.5v-.29c-.59-.51-1.07-.76-1.87-.75-2.2,1.24-4.05,1.36-6.18,2.2Z"/>
      <path class="cls-1" d="M311.75,90.03c.08-.79-.09-2.11-.76-2.69-.74-.14-.4-.18-1.07.07-.94,1.12-.54,4.23-.46,5.69.1,1.68-.43,6.92.17,8.26.23.6.24.74.74,1.16l.48.04.22-.26-.04-.27-.35-.1.57-.44.05-.44c.84-1.28.25-9.11.45-11.01Z"/>
      <path class="cls-1" d="M311.48,155.59c-.25-.24-.46-.45-.72-.67l.25-.12c-.22-.51-.65-.59-1.17-.52-.94,1.25-.93,13.46.05,14.74.4.28.23.2.72.28.51-.32.28-.11.56-.79l-.03-.43c.31-2.01.68-10.67.34-12.49Z"/>
      <path class="cls-1" d="M310.21,65.11c-.9-.08-1.2.91-1.21,1.66-.04,3.89.25,7.82.3,11.71.31.52.73,1.37,1.21,1.67.42-.16.26-.02.49-.4l.18-.72c.91-2.25-.04-7.04.1-9.49.09-1.56.37-3.34-1.07-4.43Z"/>
      <path class="cls-1" d="M10.48,125.76l-.23.26c.16.67,0,.42.4.84.71.03.39.11.99-.24.33-.52.42-.56.44-1.18-.05-2.38.67-10.74-.6-12.16-.65-.27-.32-.24-1.02-.06-.38.35-.63.66-.67,1.18-.14,1.77-.26,10.16.59,11.22.03.04.07.09.1.13Z"/>
      <path class="cls-1" d="M285.05,35.73c-.67.84-1.95,3.3-1.78,4.42.26,1.76,2.89,2.24,4.45,2.61,2.24-3.59,2.06-6.4-2.67-7.03Z"/>
      <path class="cls-1" d="M10.98,92.21c-.33.18-.67.34-.74.8-.3,1.97-.44,9.84-.2,11.52.15.79.27,1.8,1.09,2.19.69-.26.69-.53.85-1.27.15-.2.1-.08.07-.39.17-1.6.13-3.23.13-4.84.04-1.5.1-3.01.12-4.51.02-1.28.26-3.22-1.32-3.5Z"/>
      <path class="cls-1" d="M245.7,142.01c.36-1.01.47-2.53.54-3.62.2-2.79.51-5.53.88-8.3.08-.57-.33-1.47-.79-1.84-1.89.02-3.19,13.44-1.86,14.6.45-.19,1.1-.37,1.23-.85Z"/>
      <path class="cls-1" d="M248.74,106.42c-.84-.19-.96.11-1.44.76-.3,1.91-1.71,12.43-.95,13.69.16.27.4.29.67.41l.22-.12-.07-.2.38-.65c.8-1.63,2.39-12.47,1.19-13.9Z"/>
      <path class="cls-1" d="M251.66,86.23c0-.52-.36-.75-.69-1.01-.34-.04-.62-.15-.89.19-.88,1.08-1.09,5.21-1.15,6.56-.32,2.22-1.36,6.1-.29,7.76l.31.11c.38-.21.31-.07.39-.37.52-.32.59-.33,1.01-.8l-.18-.24c-.02-1.04.54-4.6.71-5.83.2-2.1.76-4.34.78-6.37Z"/>
      <path class="cls-1" d="M10.33,146.71c.3.58.39.98,1.03,1.1.62-.59.48-.48.73-1.41.26-1.09.26-10.5.01-11.76-.42-.5-.5-.67-1.12-.9-1.18.38-1.14,2.29-1.09,3.35.17,3.05-.07,6.66.44,9.62Z"/>
      <path class="cls-1" d="M12.12,72.38c-.5-.53-.21-.35-.95-.5-1.1.5-1.16,1.57-1.17,2.7-.02,3.04.04,6.12.1,9.16.36.57.9,1.65,1.43,1.85l.16-.18-.06-.2v-.13c.24-.46.06-.3.53-.52l-.07-.2c.29-1.18.24-3.1.25-4.39.08-1.82.24-5.97-.22-7.59Z"/>
      <path class="cls-1" d="M252.43,77.45c.47-1.13,1.05-9.18,1.27-10.93.06-.5.04-1.27-.36-1.71-.65-.31-.35-.32-.91-.12-1.25,1.41-1.83,9.83-2.02,12.14.29.69.41,1.3.99,1.61.37-.07.52-.09.87-.21-.74-.48-1.03-.71-1.22-1.64l.06-.17c.44-1.31.42-2.21.92-3.52l.14-.02c.15,1.42-.27,3.88.26,4.57Z"/>
      <path class="cls-1" d="M48.95,98.42c.22-.33.31-.51.49-.86.54-1.83-2.06-9.4-2.16-11.77-.03-.64-.93-1.52-1.77-1.46l-.26.3c-.46,1.61,1.83,10.42,2.32,12.67.68.38.74.42,1.16,1.07l.22.04Z"/>
      <path class="cls-1" d="M157.14,74.27c-.2-.09-.85-.1-1.08-.1-1.14,1.28-1.34,2.34-1.63,3.96-.56,3.19.72,2.93,3.25,3.23.57.01.94.1,1.38-.23.71-1.71.07-5.99-1.92-6.87Z"/>
      <path class="cls-1" d="M164.66,76.82c-.27-1.46-.97-2.59-2.59-2.63-1.97,1.67-2.04,4.81-2.01,7.2.53,0,1.86.06,2.32.02,2.8-.37,2.77-1.89,2.28-4.58Z"/>
      <path class="cls-1" d="M52.54,119.59c.76.08.43.15,1.06-.12.03-.53-.01-.73.1-1.28-.14-1.85-1.94-11.79-2.97-12.98-.54-.03-.51-.06-.98.18-.82,1.31.62,5.25,1.01,7.07.17.91.74,5.09.98,5.59l.25.05-.19.1c.21.63.25.94.74,1.38Z"/>
      <path class="cls-1" d="M253.7,57.59c.2-.13.32-.2.49-.36-.59-.31-.93-.43-1.34-.95.94-1.42.34-3.77,1.2-5.32h.23c.35,1.03-.47,3.81.14,5.56.08-.49.37-2.77.35-3.18-.07-1.79,1.65-8.87.19-10.02-1.94.23-2.33,9.99-2.4,11.92-.02.97.05,2.11,1.15,2.35Z"/>
      <path class="cls-1" d="M55.55,127.21c-.23-.82-.54-1.52-1.55-.93-.4.88-.3,1.24-.26,2.23.96,2.84,1.3,6.3,2.11,9.21.27.95.4,2.58,1.66,2.65,1.15-1.52-1.48-10.92-1.96-13.16Z"/>
      <path class="cls-1" d="M242.31,162.94c1.1-.65,2.86-12.46,1.65-13.55l-.28.02c-.48.26-1.19,1.12-1.23,1.62-.22,2.78-1.93,9.64-.83,11.84l.68.08Z"/>
      <path class="cls-1" d="M62.03,161c.26-.65.05-.44.52-.78.43-1.77-1.89-12.56-3.7-13.23l-.37.12c-.58,1.64,1.98,12.15,3.36,13.54.04.21,0,.08.2.34Z"/>
      <path class="cls-1" d="M44.64,77.67c.15-.4.14-.19.04-.61.08-.38,0-.2.24-.55.43-1.67-1.27-8.44-1.6-10.47-.15-.92-.33-1.63-1.11-2.14-.68-.05-.62-.15-1.12.12-.5,1.14.63,3.91,1.03,5.15l.06.25c.04,1.78.69,5.29,1.23,7.06.08.27.66.88.87,1.09l.36.09Z"/>
      <path class="cls-1" d="M54.73,140.95c-.16-1.06-.07-2.39-.32-3.09l-.29-.16c-1.9,1.16-1.18,4.79-.72,6.55.62,2.37.99,6.64,3.88,7.19.05-.34.08-.18-.14-.49-.02-.82.02-1.08-.36-1.82-.79-2.28-1.1-5.37-2.05-8.18Z"/>
      <path class="cls-1" d="M13.63,115.85c-.04.48-.22.32-.1,1.14l.24.13c2.73-1.02,1.91-8.31,2.01-10.76.04-.92-1.09-3.38-2.31-3.11l-.15.8c.06.65-.02,1.76.25,2.17.15,2.41.27,7.2.05,9.63Z"/>
      <path class="cls-1" d="M58.08,120.76c-.16-1.62-1.33-5.17-3.44-4.88l-.11.3c.23.6.29.73.69,1.23.1.76.36,1.41.35,2.03.54,3.89,2.05,6.67,1.54,10.51.31-.29.86-.78,1.12-1.12,1.56-2,.08-5.76-.15-8.07Z"/>
      <path class="cls-1" d="M241.6,50.69c0,.45-.05,3.16.03,3.47.62,2.42,2.19,5.3,3.95,7.1.46.47.69.72,1.22,1.07l.2-.02c.04-1.17.05-2.55.24-3.69-2.63-2.51-2.9-3.2-3.95-6.59-.37-.3-1.33-1.12-1.68-1.35Z"/>
      <path class="cls-1" d="M307.33,154.65c.07.08.24.23.32.31.49-.79.37-6.87.36-8.19l.09-.22c-.46-.59-.34-.46-.36-1.26.24-.8.4-.84.21-1.52-3.18.26-3.04,13.04-.19,14.26.06.04.11.09.17.13l.24.19c.05.04.1.08.15.11-.38-1.12-1-2.7-.99-3.82Z"/>
      <path class="cls-1" d="M53.38,130.78l-1.37-1.71c.09-.31.08-.48.1-.81-.44-2.14-.77-4.35-1.13-6.5-.72-2.55-1.02-2.88-1.01-5.52l-1.17,1.26c-.76,3.4.28,8.08,1.7,11.29.43.98,1.92,1.58,2.88,2Z"/>
      <path class="cls-1" d="M48.26,109.62l.12-.25c-.26-.51-.34-.6-.68-1.04.4-.39.31-.17.38-.64-.15-1.05-1.09-5.85-1.39-6.68-.19-.68-.5-1.72-.75-2.38-.28-.76-.09-2.6-.42-2.98-2.72,1.58-.19,13.63,2.74,13.98Z"/>
      <path class="cls-1" d="M307.93,99.2c-2.05.66-2.16,4.57-2.07,6.32.09,1.88-.44,7.49,2.13,7.94.13-.77-.56-1.72-.8-2.87l.31-.56.22.62c.48-.6.39-6.5.41-7.71.5-1.22-.51-.63-.47-1.28.02-.26.47-.71.33-1.18.1-.73.25-.8-.05-1.27Z"/>
      <path class="cls-1" d="M6.4,113.21c0,.91,1.08,3.48,1.94,3.81.35-.46.05-5.33.06-6.19.17-1.35.14-3.48.05-4.85-.07-.65-.01-.74.23-1.31l-.22-.27c.16-.47.28-.66.23-1.15-.48-.09-.44.02-1,.33-2.04,2.55-1.32,6.55-1.3,9.63Z"/>
      <path class="cls-1" d="M249.1,117.49c.29.91.68,1.91,1.01,2.82l-.53,1.3c-.94,2.06-.15,7.33-1.57,11.16,2.56-1.98,2.82-3.89,3.18-6.98.42-3.62,1.17-5.9-2.09-8.31Z"/>
      <path class="cls-1" d="M306.55,134.65c.33.45.71,1.08,1.32.96.08-.63-.21-.88-.57-1.53-.04-.48-.1-.56-.25-1.02l.27-.56.34.32c.51-.91.4-6.55.3-7.81l-.18.02-.57-.16c.19-1.1.86-2.46.86-3.13l-.19-.21c-2.95.9-2.56,10.88-1.34,13.12Z"/>
      <path class="cls-1" d="M315.16,147.03c-.31-1.08-.84-2.68-1.88-3.25l-.2.19c-.05.86.42,1.91.71,2.76l-.61.38c-.65,1.73.33,6.97.02,8.97-.12.78-.36,1.58-.5,2.39,3.55-2.98,2.38-7.15,2.47-11.43Z"/>
      <path class="cls-1" d="M313.17,99.12c-.25.64.52,2.41.79,3.13-.12.75.02.65-.42,1.05l-.14-.46-.16-.02c-.48,1.96.38,7.32-.12,9.54-.13.56-.16.66-.11,1.21,3.02.03,3.31-13.15.15-14.46Z"/>
      <path class="cls-1" d="M307.1,87.44c.23.32.38.51.65.81.34-.6.52-7.26.04-7.94l-.32.37-.35.08c.05-1.7,1.29-3.12.71-3.98-2.43,1.38-2.07,4.58-2.06,6.94.02,3.16-.18,5.96,2.81,7.81-.92-1.74-1.19-2.12-1.48-4.09Z"/>
      <path class="cls-1" d="M312.54,57.9l.05.26c-.16.92-.02,7.33.24,8.04.41-.29.4-.27.68-.68-.08.4-.24,1.3-.35,1.65-.36.71-.44.79-.52,1.57l.18.36c.52-.15.8-.52,1.14-1.02,1.36-2.45,1.67-12.89-2.23-13.43-.29,1.27,1.5,2.08.82,3.26Z"/>
      <path class="cls-1" d="M242.31,121.11c-.27,2.52-1.85,9.08.56,10.75l.48.07c.09-.34.07-.57-.02-.92-.44-1.69,1.26-8.59.88-9.83l-.26.08-.55.21c.38-1.23,1.13-2.48,1.29-3.45l-.14-.21c-1.26.47-2.11,2.05-2.25,3.3Z"/>
      <path class="cls-1" d="M51.31,97.94c.05,1.48,1.1,4.85,1.36,6.41.15.93.18,3.74.68,4.37,2.48-1.46.7-13.78-2.84-14.3-.25.74.89,1.6,1.49,2.88l-.54.61-.15.04Z"/>
      <path class="cls-1" d="M313.22,135.78c2.65-.98,1.89-8.9,1.81-11.19-.04-1.08-.85-2.46-1.83-3.02l-.18.17c.04.92.53,1.89.77,2.96l-.29.27-.41-.13-.02.34c-.04.6-.11,3.03.07,3.49-.04.99-.27,3.52.24,4.24l.32-.1c-.1,1.02-.78,1.9-.89,2.91l.41.06Z"/>
      <path class="cls-1" d="M43.89,88.49l.27-.08c-.02-.88-.6-1.63-1.21-2.21l.46-.16h.23c-.05-.75-.39-1.72-.54-2.55-.52-2.83-1.3-5.54-1.7-8.39-.54-.04-.28-.08-.78.23-1.58,2.29.48,8.94,1.54,11.29.43.95.83,1.37,1.73,1.86Z"/>
      <path class="cls-1" d="M315.06,169.69c.04-1.09-.73-4.13-2.22-3.94-.04.6.84,2.65.94,4.26l-.38.09c-.09-.25-.22-.51-.33-.76-.22.47-.2,5.76-.07,6.55.08.49.16.98.24,1.46l.07-.36c.05,1.06-.47,2.28-.76,3.35.3-.27.6-.55.88-.84,2.25-2.34,1.52-6.84,1.64-9.82Z"/>
      <path class="cls-1" d="M241.96,142.58c-.23.04-.14-.01-.28.11l-.42-.09c.49-1.31,1.01-2.39,1.62-3.65-1.54.93-2.72,2.21-3,4.02-.56,3.69-1.78,7.49.96,10.49l.21.23c-.76-3.3.39-4.84.61-8.1.07-1.05.35-1.93.3-3.01Z"/>
      <path class="cls-1" d="M62.98,144.05c-.68-3.61-.82-6.24-4.49-7.74.88,1.36,1.58,1.94,2.23,3.51l-.65.21c.23,2.72,1.98,7.49,1.77,9.84l-.02.24.16.15c2.1-1.15,1.36-4.29,1-6.19Z"/>
      <path class="cls-1" d="M306.91,176.3c.29.33.31.4.69.62.22-1.5.37-6.13.12-7.47l-.18-.12-.29.57-.35-.07c.17-1.57.96-3.01,1.02-3.95-1.16-.12-2.2,2.38-2.19,3.41.06,4.43-1.44,7.75,2.5,10.92-.57-1.25-1.25-2.53-1.3-3.91Z"/>
      <path class="cls-1" d="M7.67,136.72c.45.37.44.41.99.59.14-.49-.15-.85-.4-1.46-.36-.85-.42-1.21-.19-2.06l.15,1.2c.42-2.59.4-5.23.29-7.85l-.54-.75c.32-.9.63-1.51.56-2.45l-.13-.23h-.09c-1.89.75-2.08,4.03-2,5.78.11,2.5-.34,5.18,1.35,7.23Z"/>
      <path class="cls-1" d="M8.06,123.71h.25s.04-.02.06-.03l-.31.03Z"/>
      <path class="cls-1" d="M307.77,69.2l.05-.17-.36-.54c-.27-.72-.8-2.06-.66-2.79.18.18.37.36.55.53.17-.77.06-6.91-.17-7.58-.08-.6-.15-.64-.43-1.16.16-.54.38-.98.18-1.47-.7.15-1.08.75-1.48,1.35-.3,2.65-.7,8.77.81,10.95.59.45.81.71,1.51.86Z"/>
      <path class="cls-1" d="M6.47,66.82c.02,2.18-.52,6.46,1.28,7.97.32.41,1.06.92,1.49,1.25-.54-.99-.74-1.39-1.13-2.47-.16-.82-.2-1.05-.21-1.88.23.41.33.64.68.98.31-1.05.13-5.97.1-7.27.06-.57-.04-1.08-.42-1.52.26-.71.49-1.21.82-1.89-1.73,1.51-2.63,2.34-2.61,4.84Z"/>
      <path class="cls-1" d="M313.08,91.03l.37-.09c1.17-1.1,1.43-1.71,1.61-3.3.19-1.69.68-11.13-2.15-10.85.11,1.53.94,2.05,1.02,3.84l-.79-.2c-.17,1.55,0,5.99.1,7.62l.42-.21c.21.66-.78,2.36-.58,3.19Z"/>
      <path class="cls-1" d="M252.12,96.75l-.25.12c-.14,1.12.44,2.39.48,3.92l-.56-.61c-.86,1.23-.17,8.32-1.19,9.85-.12.18-.17.61-.19.83l.18.1c2.85-.98,4.17-12.69,1.53-14.21Z"/>
      <path class="cls-1" d="M244.09,108.52c.54.7.98,1.29,1.6,1.94-.02-.67-.1-1.09-.13-1.63-.18-2.95,1.35-5.91.86-9.04l-.47-.56c.44-.96.76-1.51.93-2.56l-.14-.2c-2.86,1.44-3.06,9.24-2.65,12.05Z"/>
      <path class="cls-1" d="M8.81,95.65c.08-.68-.72-1.92-.92-2.97l.58.16.13.16c.23-.77.32-6.56,0-7.34l-.28.34-.21.13-.21-.24.55-1.72c.19-.59.33-1.17.04-1.74h-.24c-2.27,2.52-1.68,5.58-1.75,8.68-.03,1.38.83,4.14,2.31,4.53Z"/>
      <path class="cls-1" d="M257.78,33.52c1.7,2.74,1.66,4.03,1,7.2-.13.6-.16,2-.53,2.41-.25-1.71.47-4.08.19-5.67l-.25-.07c-.23.81-.88,6.4-.59,6.98l.38-.44c.09.42-1.08,2.37-1.43,3.59l-.08.3c.53-.36,2.01-1.27,2.19-1.98.84-3.22,1.5-7.54.95-10.83-.1-.63-1.33-1.26-1.84-1.49Z"/>
      <path class="cls-1" d="M46.92,76.78c.54,3.88,1.97,6.96,1.87,11.01l.23-.27c1.12-1.33,1.38-2.55,1.21-4.33-.15-1.56-1.46-9.48-3.82-9.22.09.56.41.77.83,1.28,0,.62.05.92-.34,1.38l.02.14Z"/>
      <path class="cls-1" d="M169.48,75.51c-.13-.89-.53-1.74-1.44-2.05-1.92,1.29-3.13,4.73-2.15,6.82.58.28,1.09.16,1.75.12,2.48-.57,2.15-2.75,1.84-4.88Z"/>
      <path class="cls-1" d="M152.82,80.38c1.63-.87.72-6.84-1.45-7.08-.12-.01-.24-.02-.36-.03-1.5,1.49-1.97,4.62-.42,6.28.51.54,1.53.69,2.23.83Z"/>
      <path class="cls-1" d="M42.84,56.96c.13.85,2.18,9.71,2.26,9.79,1.79-.97.32-7.18,0-8.86-.35-1.88-.72-3.8-2.73-4.43l-.19.16c.12.58.35.73.76,1.16l.16.16c1.32,2.62,1.47,4.21,1.89,7.15-.97-1.57-1.16-4.18-1.93-5.19l-.23.07Z"/>
      <path class="cls-1" d="M13.99,82.43l-.18.2c-.02.85.41,1.55.77,2.35l-.59.7c-.5,1.56.04,6.19.3,7.96v-1.15c.71,1.44-.42,2.34-.65,3.46,2.93.8,3.32-12.92.35-13.52Z"/>
      <path class="cls-1" d="M247.84,88.57c.03-.66-.02-.53-.08-1.06-.33-2.71,1.32-6.51,1.01-9.23h-.19s-.14.13-.14.13l-.33-.19c.26-.7.31-.86.7-1.48.18-.64.4-1.14.18-1.72-.54.15-.55.33-1,.81-1.44,1.89-3.22,13.04-.15,12.76Z"/>
      <path class="cls-1" d="M256.15,67.39c1.67-2.26,1.94-8.88,1.41-11.42-.34-.71-.34-.76-.92-1.26l-.34-.04c-.11.64,0,.6.26,1.31l.05.84-.67.32-.05.46c-.23,2.43-.3,4.87-.22,7.3l.07-.12c.07,1.91-.24,2.24-1.03,4.02.46-.39,1.09-.95,1.43-1.42Z"/>
      <path class="cls-1" d="M40.11,68.03c.06-.47-.45-.88-.8-1.19.36-.33.24-.14.32-.63-1.26-3.51-1.1-6.6-2.78-10.19.59-.8.58-.92.48-1.85l-.29.04c-.64.45-.81,1.06-1.14,1.8-.29,2.27,1.13,11.96,4.21,12.02Z"/>
      <path class="cls-1" d="M13.79,62.28c-.15.7.58,1.65.72,2.9l-.4.25c-.14.93-.35,6.88-.09,7.47.06-.07.41-.51.48-.54.58,1.18-.84,2-.82,3.11,3.36.61,2.81-13.18.12-13.19Z"/>
      <path class="cls-1" d="M197.18,93.98c-.15,1.13-.29,1.99-.52,3.11.58-.88.67-1.05,1-2.04,1.14-2.7,3.31-5.7,4.03-8.22-1.44-.24-2.48-.28-3.95-.34-.12,2.5-.22,5.01-.56,7.49Z"/>
      <path class="cls-1" d="M161.67,88.17c.69-.03.89-.15,1.46-.72,1.1-1.7,1.03-3.24,1.05-5.2-1.17.04-2.68.05-3.82.16-.65,1.28-.31,4.98,1.31,5.76Z"/>
      <path class="cls-1" d="M157.2,88.12c.62-.23.64-.2,1.08-.73.93-1.52.93-3.07.87-4.8-1.34-.26-2.74-.33-4.11-.43.04,1.64.06,5.66,2.16,5.96Z"/>
      <path class="cls-1" d="M265.44,63.73c.39-.53.85-1.02.96-1.65-.07-.48-.1-.58-.25-1.04.23-.57.31-.42.17-.81-2.43,2.45-3.21,3.83-7.2,4-.21.85-.46,2.01-.72,2.82,2.63-.32,5.4-1.06,7.04-3.32Z"/>
      <path class="cls-1" d="M253.16,33.41l-.18-.18c-1.49,1.13-2.07,2.28-2.25,4.14-.22,2.34-.83,7.46.86,9.19l.32-.35-.07.29c.41-.86.21-1.17-.13-1.97l-.11-.25-.07-.16c1.02-.81,1.35-6.51,1.17-7.94-.28.87-.85,2.84-1.22,3.58.2-1.58.4-2.69,1.02-4.18.28-.68.76-1.5.66-2.17Z"/>
      <path class="cls-1" d="M312.82,47.26c.25-1.79-.29-3.44-1.21-5-.27-.47-.81-.53-1.36-.68-.73.5-.88.67-1.47,1.33.19,1.22.51,4.01,1.51,4.78.29.22.94.31,1.31.37.83-.34.79-.18,1.22-.79Z"/>
      <path class="cls-1" d="M14.55,132.36c-.5-1.13-.32-3.63-.77-5.11-.38,1.01-.02,5.81.06,7.17l.28-.06.15-.28c.1,1.34-.86,1.97-.57,3.15.55-.17.88-.35,1.14-.89,1.22-2.51,1.85-11.65-1.45-12.65.19.98.5,1.59.78,2.5.61,2,.74,4.12.39,6.18Z"/>
      <path class="cls-1" d="M255.43,81.69c.15-2.05.59-4.18-.84-5.82l-.22.02c-.12,1.1.34,2.17.44,3.25.05.53-.03,1.56-.07,2.11-.15-.25-.26-.65-.44-.98l-.08-.33c-.1-.41-.11-.51-.12-.95l-.2-.09c-.27,1.2-.82,6.78-.59,7.82l.31.27c-.09.59-.9,2.02-1.22,2.64,2.92-1.61,2.82-4.97,3.04-7.94Z"/>
      <path class="cls-1" d="M250.98,54.13c-2.26.71-3.15,10.44-2.18,12.18.41.69.38.66,1.03,1.12l.24-.05-.02-.25c-.09-1.33-.44-1.34-.65-2.51.29.05.13.04.46,0,.54-1.11,1-5.53.75-6.58l-.19-.04c-.29.72-.45,1.4-.64,2.15l.04-.38-.09.16c.18-2.73.7-3.37,1.54-5.68l-.27-.11Z"/>
      <path class="cls-1" d="M226.89,47.69l.38-.56c-.03-.78.1-1.74.07-2.67-.08-1.7-.85-4.11-1.56-5.66h0c-1.41-2.81-2.19-3.25-5.37-2.49-.99.38-2.44,1.39-2.5,2.55.59.04,2.75-.79,3.1-1.34-.06-.4-.07-.5-.2-.88,1.46-.64,4.27.94,4.42,2.74.05.1,0,.03.22.25h0c-.22-.22-.17-.15-.22-.25-.57-.43-.47-.51-.98-.45-.18.75.88,2.9,1.15,3.92.32,1.9.52,2.86.42,4.79l.11-.11c.68-1.66.37-3.07.19-4.87.16.65.46,1.68.5,2.31.2.78.13,2.36.29,2.7Z"/>
      <path class="cls-1" d="M12.39,58.68l-.16-.22c-.95.22-1.37.16-2.32.1,0,1.82-.09,5.09.41,6.76.9.1.73.21,1.45-.11,1.03-1.35.68-4.75.62-6.52Z"/>
      <path class="cls-1" d="M90.99,42.18c-2.67.54-3.15,4.71-1.96,6.73l.42.26c-.05-.36-.09-.7-.08-1.06l.3.23.59,1.33c.12-2.64.9-5.2,2.28-7.46-.56-.17-.96-.09-1.54-.04Z"/>
      <path class="cls-1" d="M152.65,87.04c.61-.08.33.03.85-.4.78-1.37,1.3-4.3-.47-5.22-.37-.19-1.63-.23-2.08-.26-.24,1.58.01,5.14,1.71,5.89Z"/>
      <path class="cls-1" d="M166.64,81.48c-.49.14-1.05.16-1.29.7-.59,1.33-.49,4.89,1.37,5.15,1.03-1.25,2.46-4.23,1.29-5.74-.49-.22-.83-.15-1.37-.12Z"/>
      <path class="cls-1" d="M83.84,79.97c-.42,0-.84,0-1.26.01-.31-.29-1.16-1.06-1.32-1.4-2.88-6.12-5.72-12.33-8.34-18.57-2.43,5.11-5.25,9.1-10.8,11.1-4.02,1.46-8.34,1.87-12.57,1.21,4.11,1.8,8.76,1.95,12.97.4,4.22-1.6,7.76-5.17,10.12-8.93.96,1.74,1.3,3.14,2.53,4.69-.74,1.46-3.03,7.85-3.4,9.4,2.23-2.8,3.05-3.04,4.24-6.37.53,1.06.6,1.95,1.09,3.01-.79,5.08-2.73,4.66-3.43,9.07,1.67-2.33,4.65-4.96,5.82-7.3,2.12,3.64-2.13,7.6-3.16,11.49,1.46-1.34,2.34-2.43,3.6-3.64l.34.02,1.02-1.09c.24-.03.45-.1.68-.18-.14,2.97-.34,5.14-1.07,8.01.16-.22.31-.44.47-.66,1.75-2.58,3.05-5.61,2.54-8.62-.07-.44.07-.92-.06-1.65Z"/>
      <path class="cls-1" d="M196.43,86.76c-.29,0-.53,0-.81.04-1.75.33-3.1.68-4.82,1.17,1.8,1.18,1.81,1.25,2.66,3.24.16.41.33,1.11.61,1.3.24-.36,2.09-4.8,2.41-5.53l-.05-.21Z"/>
      <path class="cls-1" d="M148.2,78.5l.42-.11c.55-1.28,0-5.88-1.53-6.41-1.56,2.2-1.96,5.47,1.11,6.52Z"/>
      <path class="cls-1" d="M173.15,77.6c.34-1.16.65-4.6-1-4.85-1.2,1.08-2.28,4.45-1.38,5.78.65.07.71.06,1.37,0,.56-.27.81-.26,1.01-.94Z"/>
      <path class="cls-1" d="M122.75,91.2c.46,1.05.73,1.73,1.38,2.68l.36.35c.56-.58,2.04-2.98,2.58-3.8.45-.68,2.09-2.18,2.18-2.69l-.13-.12c-2.31,1.46-3.96,2.31-6.38,3.59Z"/>
      <path class="cls-1" d="M95.55,41.89l-.26-.31c-1.17,1.61-3.62,5.78-3.04,7.84.57-1.03.36-1.78,1.04-2.56-.02,1.06-.47,2.29-.57,3.57l.15.12c1.6-4.48,1.31-4.69,4.46-8.82l-.25-.26.25.26c.36-.31.74-.76,1.08-1.13-.75.2-.84.27-1.52.67h0s-1.14.71-1.14.71l-.2-.1Z"/>
      <path class="cls-1" d="M309.74,58.52c1.35-.56,1.01-3.36.89-4.59-.08-1,.09-1.18-.88-1.25-.7,0-.92-.12-1.41.19v.43c.02,1.75-.17,3.68,1.01,5.06l.39.17Z"/>
      <path class="cls-1" d="M170.31,85.77c1.03-1.15,2.39-4.13,1.27-5.49l-.65-.09c-.68.33-1.15.48-1.45,1.25-.48,1.25-.34,3.51.83,4.34Z"/>
      <path class="cls-1" d="M149.26,84.81c1.25-2.3,1.27-4.37-1.67-4.89-.26,1.44-.12,4,1.08,5,.46.03.28.11.6-.11Z"/>
      <path class="cls-1" d="M40.84,53.04l-.17-.12c-.8.22-1.23.34-2.04.46.19,1.36.19,2.58,1.03,3.61.93-.06.8.09,1.37-.39.37-1.17.17-2.39-.18-3.55Z"/>
      <path class="cls-1" d="M255.3,32.35c-.73.61-.86,2.61-.59,3.48.78-.74.39-2.16,1.16-3.29l-.57-.19Z"/>
      <path class="cls-1" d="M256.28,35.55l.26-.25c-.07-1.01.37-2.17-.09-2.84l-.48.1.02.34c.04,1.08-.31,1.85.3,2.65Z"/>
      <path class="cls-1" d="M253.86,41.57c.37.06,1.78.32,2.07.29.14-.72.55-2.42.4-3.02-.8-.53-1.13-.08-2.15-.87-.15,1.21-.23,2.38-.32,3.6Z"/>
      <path class="cls-1" d="M175.2,71.32c-.78,1.18-1.83,4.65-.43,5.59,1.16-1.16,1.88-4.54.43-5.59Z"/>
      <path class="cls-1" d="M261.33,71.66c.39-.17.37-.18.8-.21l.1-.21c-1.67-.09-5.85-.13-7.18-.33-.06.71-.18.63.15,1.05,1.69.62,4.53.35,6.13-.31Z"/>
      <path class="cls-1" d="M144.73,76.41c.87-1.13.53-4.62-.53-5.75-.89,1.64-1.16,4.53.53,5.75Z"/>
      <path class="cls-1" d="M42.36,61.99l-.43-2.19c-.31-1.63-.96-1.5-2.35-1.51.9,1.85.37,3.72,2.78,3.7Z"/>
      <path class="cls-1" d="M145.98,82.76c.54-1.73.93-3.52-.77-4.68-.69,1.4-.53,3.67.77,4.68Z"/>
      <path class="cls-1" d="M173.26,83.05l.3-.09c.76-1.06,2-3.39.34-4.26-.9,1.37-1.12,2.48-.84,4.12l.2.23Z"/>
      <path class="cls-1" d="M46.45,32.96c.85-.35,1.7-.72,2.56-1.04-1.25-.31-2.4-.59-3.67-.82l.24.72c-.44.55-.75.89-1.07,1.51.61.23,1.36-.11,1.94-.36Z"/>
      <path class="cls-1" d="M103.09,42.98l-.06-.39c-1.13-1.49-2.14-2.02-3.83-2.59l-.5.98c.56.04,1.24.12,1.78.14,1.4.05,1.27,2.09,2.6,1.87Z"/>
      <path class="cls-1" d="M177.05,73.48l.32.2c.35-.89,1.34-2.97.3-3.61-.81.83-.85,2.33-.62,3.41Z"/>
      <path class="cls-1" d="M135.91,110.33c-1.29.64-2.58,1.26-3.88,1.87-1.82.75-3.23,1.42-4.93,2.45,4.56,9.38,11.17,19.14,17.32,27.6,2.34,3.22,5.82,8.25,8.43,11.23-1.2-2.18-2.91-4.7-4.27-6.83-2.31-3.63-4.6-7.27-6.87-10.92-3.92-6.45-7.6-13.05-11.02-19.78.56-1.02,1.13-1.63,1.88-2.52,1.03-1.03,2.26-2.03,3.34-3.09Z"/>
      <path class="cls-1" d="M142.52,73.43c.1-1.18.33-2.37-.23-3.4l-.48-.32c-.32,1.44-.08,2.48.71,3.73Z"/>
      <path class="cls-1" d="M176.09,80.31c.38-.77,1.19-2.72.1-3.19-.59,1.13-.69,1.58-.4,2.82l.3.37Z"/>
      <path class="cls-1" d="M247.85,151.65c.94-2.62,2-9.28.12-11.56-.25-.31-.16-.29-.51-.32-.11.53.23,2.39.32,3.13l-.21.51h-.25c-.5,1.08-1.29,6.94-.92,8.06.34-.18.2-.07.43-.33-.18,1.12-.87,1.44-1.13,2.48l.16.1c1.1-.56,1.36-.99,1.99-2.06Z"/>
      <path class="cls-1" d="M142.8,76.57c-.27,1.35-.24,2.3.7,3.38.14-1.17.32-1.9-.13-2.99-.27-.23-.25-.25-.56-.39Z"/>
      <path class="cls-1" d="M293.86,35.09c.52-1.23.36-1.78,1.16-2.99.23,1.76-.07,2.99,1.23,4.02.37-.82.58-1.51.85-2.36.5.97.63,1.88,1.12,2.58.59-2.31.75-1.42,2.06-3.04l.52-.36c.26.75.02,1.98.04,2.93,1.22,1.63,1.38,1.9,2.13,3.79,1.04,2.59,1.21,6.57,3.49,8.34.25.2.56.41.89.62.46.29.94.53,1.42.67.1.03.21.08.31.09h0s0,0,0,0l.1-.2c-.34-.42-.67-.85-.99-1.29h0s0,0,0,0c-.68-2.49-2.44-7.05,1.41-7.63.64-.1,1.08-.08,1.36-.66-.11-1.82-1.18-4.73-2.01-6.42-1.22-2.47-2.83-.98-5.03-1.58v-.26c.8-.85,1.68-.83,2.84-.99-3.48-1.79-7.9-1.75-11.91-1.88-.04.88-.15,1.51-.29,2.37,0,0,0,0,0,0-.3,1.35-1.01,3.07-.7,4.24Z"/>
      <path class="cls-1" d="M189.31,42.98l.47,1.44c.25-.44.24-1.5.27-2.08-.59.27-.34.08-.75.64Z"/>
      <path class="cls-1" d="M229.35,46.84l.13.11c.46-.6.52-1.1.72-1.84l-.66.44c-.14.45-.15.83-.19,1.3Z"/>
      <path class="cls-1" d="M136.18,70.14l.66-.14c-.1-.52-.13-1.06-.45-1.46-.28.41-.21,1.07-.22,1.6Z"/>
    </g>
  </g>
</svg>