<svg width="150" height="144" viewBox="0 0 150 144" fill="none" xmlns="http://www.w3.org/2000/svg">
<g clip-path="url(#clip0_30_156)">
<path d="M60.8489 24.2373C60.6686 24.3668 60.7149 24.3576 60.5854 24.4732C59.5774 25.3703 58.8468 25.6756 58.8376 27.1878C58.833 28.4364 59.9843 30.0735 61.0894 30.6239C61.1634 30.425 61.1356 30.4759 61.1449 30.277C61.2096 28.9914 62.6199 28.1127 63.8313 28.2376C64.5618 28.3116 64.9641 28.4781 65.6207 28.7047C63.5122 28.6723 62.2407 28.4457 61.487 30.7857C63.2487 28.5243 64.2844 29.329 66.7628 29.551C66.9801 29.6666 67.2344 29.6573 67.3777 29.7637C67.2899 29.8377 67.1142 29.9672 67.0448 30.0412C66.0969 30.2585 65.5143 30.2123 64.5248 30.1753C65.1953 30.6562 66.0229 31.484 66.7026 31.8216C69.8191 33.3801 73.2962 34.1293 76.7501 33.4819C79.4042 32.987 80.5509 32.4644 82.7333 31.1002L82.8581 31.0401L82.9414 30.7441C82.724 30.6146 82.4744 30.6516 82.2108 30.6516C80.7358 30.7164 80.0515 30.2955 78.9788 29.3799C80.4121 29.9672 81.2768 30.1152 82.8258 29.9163C84.592 29.6897 85.3827 29.9857 86.4046 31.4193L86.3814 31.3129C86.1456 30.1938 85.7757 29.8701 84.7076 29.44L85.1839 29.0099C86.3398 29.4122 86.7467 29.9394 86.8253 31.1233C87.9165 30.2863 88.9338 29.5556 89.1141 28.1867C89.3592 26.3554 88.1986 25.9022 87.2831 24.968C86.9594 24.635 87.1166 22.295 86.9502 21.4672C86.6358 19.8995 85.6648 18.7433 85.4197 17.1941C85.2764 16.2414 85.4752 14.5997 85.6463 13.6656C85.9191 14.8911 85.8913 16.3386 86.326 17.5132C86.6219 18.3132 87.2184 19.0162 87.5281 19.8764C87.7131 19.6174 87.5975 19.7052 87.8749 19.5804C87.9165 19.3769 87.9304 18.8867 87.9165 18.6693C87.7408 15.3766 86.6589 12.4354 84.236 10.1555C81.6744 7.74609 77.4113 6.0905 73.9389 6.21999C70.4017 6.3541 66.2449 8.11606 63.8359 10.7428C61.4778 13.3141 60.516 16.1536 60.6316 19.5989C60.9969 18.6231 61.4639 18.23 61.9494 17.393C62.4626 16.5097 62.8325 15.0344 63.1053 14.0216L63.429 13.9523C63.429 14.9234 63.4383 15.9177 63.0915 16.8473C62.458 18.5352 61.4454 19.2382 61.131 21.1527C60.9784 22.0869 61.4269 23.9737 61.1541 24.3576L60.8489 24.242V24.2373ZM75.5202 30.8921C74.5215 30.9476 74.5076 30.0458 73.8464 29.4354C73.5273 29.8747 73.2592 30.7487 72.7321 30.8551C72.1633 30.9753 71.5114 30.5776 71.479 29.9533C71.4097 28.5891 72.2604 27.0213 72.9817 25.9022C73.2823 25.4351 73.5874 25.2039 74.1146 25.1252C74.9283 25.5923 77.7257 30.7672 75.5248 30.8967L75.5202 30.8921ZM71.8119 26.5496L71.7241 26.4987C71.7749 25.6941 72.5471 24.2836 73.1759 23.7194C73.3239 24.0708 72.0616 26.1519 71.8119 26.5496ZM74.6972 23.6176C75.5017 24.1356 76.0612 26.0825 76.26 27.0259C75.7699 26.7623 74.8544 24.2466 74.6972 23.6176ZM83.3251 16.727C83.9031 16.9028 84.4117 17.2311 84.6984 17.7768L84.6383 17.8739C83.0893 16.912 81.4155 17.134 79.848 17.8739C78.6366 18.415 78.1835 18.8636 77.1709 19.659C78.165 17.9248 79.6862 16.9166 81.6328 16.5698C82.2016 16.5097 82.7795 16.5652 83.3298 16.7316L83.3251 16.727ZM74.2255 17.3513C75.9733 17.393 76.8426 15.7744 79.0759 15.7004L78.7846 15.927C72.9771 18.8173 75.2844 18.7202 69.4445 15.5616C71.6131 15.5847 72.5795 17.319 74.2209 17.356L74.2255 17.3513ZM65.4357 16.1489C67.78 16.0056 70.0086 17.2542 70.864 19.4833C70.4017 18.9746 70.1427 18.7248 69.6203 18.2763C67.5858 16.8288 65.9166 16.2183 63.5908 17.43C64.2289 16.616 64.4555 16.4495 65.4357 16.1536V16.1489ZM64.3584 19.4231C65.6808 19.3029 66.5593 19.6128 67.8586 20.496C68.8481 21.1712 72.524 24.3668 72.8245 21.1342C72.8523 20.8244 72.2281 19.9041 72.0061 19.5526C74.1747 21.0602 73.1574 22.1979 73.4025 22.4106C73.4904 22.2256 73.532 22.1609 73.5828 21.962C73.6661 21.6476 73.7678 20.9909 73.9666 20.8383C74.1839 21.0232 74.2348 21.2822 74.3365 21.5643C74.4429 21.9528 74.5353 22.3135 74.6694 22.6927C74.7203 21.2961 74.7526 20.533 76.0658 19.7284C75.3676 20.792 74.9468 21.4718 75.9502 22.5124L76.8333 22.7898C78.8401 22.2534 80.181 20.5469 82.2663 19.992C84.3285 19.4463 85.6648 20.2741 86.141 22.3181C85.2486 21.1389 85.1469 21.0417 83.7736 20.5608C87.1305 23.1043 84.5967 25.5045 84.9342 26.027C85.2348 26.0733 85.5214 26.0825 85.7665 26.2536L85.7341 26.3508C85.1654 26.5727 84.9065 26.4987 84.31 26.4248C81.6051 26.3276 80.7358 27.1693 77.9384 25.9669C78.7383 26.804 80.218 27.3682 81.286 27.8445C78.3869 27.6225 76.6623 26.3508 75.5387 23.835C75.4508 23.6361 75.0069 23.3448 74.8081 23.2107C74.5631 23.1136 74.355 23.0719 74.1608 23.0673C74.3504 23.0719 74.5631 23.1136 74.8081 23.2107C74.3457 22.5401 73.6707 22.5956 73.0973 23.0904C72.9031 23.2569 72.7228 23.4373 72.561 23.6361C72.1818 24.0153 72.0385 24.4824 71.7241 24.9079C70.6282 26.4063 68.9128 27.3219 67.0587 27.4052C66.6518 27.4237 66.1339 27.3774 65.7224 27.3404C67.5072 26.9103 68.1083 26.8595 69.6619 25.8929C66.6333 26.804 66.4576 25.9669 63.7388 25.5785C63.1516 25.597 62.8557 25.7033 62.2453 25.6062L62.213 25.5091C62.5597 25.301 62.6753 25.2779 63.0684 25.1576L63.1007 25.0882C62.176 23.1783 62.5274 21.7123 64.0486 20.2602C63.0637 20.5747 62.6938 21.1435 61.8985 21.7724C62.6152 20.3619 62.8557 20.0336 64.3491 19.4185L64.3584 19.4231Z" fill="white"/>
<path d="M81.3045 25.449C82.22 25.1576 82.7286 24.1772 82.4373 23.2615C82.146 22.3459 81.1658 21.8372 80.2456 22.1331C79.3301 22.4291 78.8308 23.4049 79.1221 24.3206C79.4134 25.2362 80.389 25.7403 81.3045 25.449ZM80.1485 23.6084C80.2271 23.3864 80.426 23.2245 80.6618 23.1829C81.0132 23.1228 81.3507 23.3586 81.4155 23.7147C81.4802 24.0662 81.249 24.4084 80.8976 24.4778C80.6664 24.524 80.426 24.4408 80.2688 24.2604C80.1162 24.0801 80.0699 23.8304 80.1485 23.6084Z" fill="white"/>
<path d="M66.8783 25.1762C67.1881 25.2826 67.5257 25.3011 67.8447 25.2225C68.7648 25.0005 69.329 24.0709 69.107 23.1506C68.8851 22.2304 67.9557 21.6662 67.0356 21.8881C66.2957 22.0685 65.764 22.7113 65.727 23.4697C65.69 24.2282 66.157 24.9219 66.8783 25.1716V25.1762ZM67.1188 23.035C67.3222 22.9194 67.5719 22.924 67.7707 23.0443C67.9696 23.1645 68.0898 23.3819 68.0852 23.6177C68.0805 23.849 67.9511 24.0617 67.743 24.1727C67.4286 24.3392 67.0402 24.2235 66.8691 23.9137C66.698 23.6039 66.809 23.2108 67.1188 23.035Z" fill="white"/>
<path d="M2.92686 28.7141C3.30601 28.3673 3.44472 28.2193 3.91172 27.9695L3.90247 27.0955C2.79739 26.6562 2.22867 26.4804 1.58596 25.4122C1.58596 24.6537 1.56284 22.8409 1.71543 22.1241C2.31652 19.5436 3.08869 16.4035 4.78099 14.3363C5.85371 13.0275 8.02226 13.4946 9.36316 13.3096C12.8402 12.8287 13.7003 12.9304 14.6897 9.37875C15.1845 7.59829 17.39 5.66984 19.2395 6.03981C22.0416 6.09993 24.432 7.59367 27.1231 7.90351C27.1 7.1867 27.0075 6.08605 27.1231 5.40162C27.567 2.73786 30.6325 1.86382 32.8103 2.99684C34.7246 4.09749 35.4505 9.7071 35.506 11.8344C35.5245 12.5142 35.4967 13.3605 35.4829 14.0496C36.6434 16.5561 41.1285 18.6048 43.7225 17.9943C44.2681 17.8648 44.7489 17.6984 45.2807 17.5226C47.7683 17.2914 48.7439 18.6279 48.7161 20.8523C49.2802 21.5553 50.1125 22.5912 49.9044 23.5808C49.3265 26.2954 46.8204 26.8365 44.4391 26.7209C42.6312 26.633 40.4858 23.7566 39.353 24.0664C37.8364 24.478 36.4308 25.3798 34.6691 25.5648C34.6876 25.5971 34.7061 25.6249 34.7246 25.6573C35.1592 26.3972 35.4366 27.2574 35.7557 28.0528C36.3059 29.4355 36.8423 30.8275 37.4295 32.201C37.7901 33.0473 38.3265 34.4809 38.9553 35.1145C39.242 35.4059 39.6813 35.5677 39.9448 35.8683C40.1668 36.1134 40.1344 36.5389 40.3563 36.784C40.9112 37.3944 51.6661 40.9091 52.8498 41.2282C53.3122 41.3531 53.7653 41.4409 54.2415 41.3392C54.9305 41.1912 59.4988 39.2119 60.2293 38.7772C60.4651 38.6384 60.6316 38.5043 60.8027 38.2962C60.9645 37.5332 60.3588 32.2658 59.8363 31.6877C58.3752 30.0691 57.1037 28.7927 57.5013 26.3509C57.7417 24.8665 58.6156 24.4872 59.5311 23.5253C59.4479 22.3229 59.2676 21.1159 59.2352 19.9182C58.7312 0.864909 88.2448 -0.323606 89.3869 18.5724C89.4979 20.3899 89.0586 22.3368 88.8228 24.1496C90.2053 25.8977 90.6122 25.8099 90.4688 28.1869C90.3163 30.7674 88.5962 31.1605 87.7316 32.6727C87.2738 33.4728 86.6866 37.4545 86.5895 38.5922C88.7257 39.568 89.6782 38.4951 91.6988 38.2407C92.6698 38.1159 92.8593 38.7171 94.3205 38.1482C97.6403 36.8626 100.239 35.3735 103.244 33.593C103.758 32.2843 104.151 32.5525 104.881 31.3779C106.019 29.5558 109.352 23.9138 109.815 22.0686C109.671 21.8512 109.477 21.8142 109.232 21.7079L109.098 21.6477L109.015 21.6154C107.568 22.0177 105.986 23.5716 104.576 24.2098C103.161 24.8526 101.335 24.4919 99.9522 23.8999C99.0968 23.5115 98.4125 22.4802 98.1767 21.6108C97.7929 20.2558 98.7731 19.2013 99.647 18.3366C100.082 15.7792 101.968 15.7005 104.04 15.8208C105.496 14.9236 106.148 15.141 107.679 14.808C109.727 14.3594 111.969 13.231 113.185 11.4644C113.847 10.5118 114.85 8.75443 115.012 7.61216C115.488 4.27322 116.861 0.656804 121.023 1.7482C123.635 2.43264 123.848 5.51723 123.21 7.65841C123.173 7.77865 123.136 7.89426 123.09 8.00988C123.839 7.54742 124.574 7.07571 125.291 6.56701C126.71 5.5681 129.082 3.46855 130.936 3.95875C132.087 4.26397 133.636 5.0224 134.21 6.10455C134.672 6.98322 134.746 7.97288 135.042 8.8978C135.199 9.39262 135.495 9.84583 135.657 10.3407C135.736 10.5765 135.773 11.0205 135.911 11.2101C136.064 11.4136 136.512 11.5708 136.744 11.6494C139.777 12.6668 141.904 10.8355 143.892 14.623C144.683 16.1306 146.324 21.0281 145.852 22.5865C145.7 23.0952 145.335 23.7057 144.835 23.9415C144.775 23.9693 144.729 23.9832 144.669 24.0063C144.553 24.0479 144.456 24.1126 144.35 24.1728C144.401 24.3208 145.307 25.0884 145.547 25.3474C147.688 23.5993 147.804 22.2258 147.087 19.6731C146.333 17.0602 145.917 13.8368 143.739 11.9593C143.009 11.3303 141.696 10.4609 140.757 10.4979C139.203 10.558 138.662 10.5765 137.118 10.1511C136.878 9.28164 136.623 8.42146 136.355 7.56129C135.708 5.46174 135.264 4.41658 133.285 3.27431C131.861 2.45114 130.539 2.12279 128.916 2.56213C127.357 2.98759 126.317 4.08361 124.995 4.88367C124.911 3.41305 124.37 2.2754 123.275 1.28575C121.934 0.0741073 120.704 -0.0831283 118.998 0.0186123C117.523 0.166599 116.381 0.726172 115.451 1.88232C112.94 5.00853 114.328 8.46309 111.257 11.3488C110.032 12.5003 108.529 13.1617 106.865 13.4807C106.019 13.6426 105.168 13.638 104.354 13.9432C103.328 14.327 102.611 15.0947 101.709 15.6543C101.316 15.8994 100.521 16.0104 100.068 16.2694C98.1489 17.3654 96.3087 18.9239 96.5861 21.3795C96.7387 22.7391 97.3398 23.7288 98.3663 24.5705C99.6378 25.611 101.973 26.1798 103.587 26.0087C105.145 25.8422 105.875 25.1116 107.077 24.3485C106.051 26.5544 104.701 28.7696 103.457 30.8645C103.281 31.1605 102.653 31.5675 102.431 31.8681C102.024 32.3906 102.241 32.5155 101.598 32.8855C99.9152 33.8474 98.1397 34.6798 96.3919 35.5168C95.4903 35.9469 94.5516 36.4741 93.5899 36.7516C93.0027 36.9227 92.1704 36.7331 91.6479 36.8117C90.5983 36.969 89.3083 37.2141 88.291 37.4962C88.4251 36.1782 88.5361 34.5781 89.0632 33.3664C89.3036 32.8161 90.27 32.1548 90.6353 31.6045C92.3415 29.0517 92.6189 26.0688 90.3255 23.849C90.4688 22.716 90.7232 21.6108 90.8064 20.4685C91.8837 5.63747 74.7388 -1.38263 63.6278 7.06184C60.1554 9.70247 58.3105 13.5501 57.7325 17.8232C57.4782 19.858 57.7602 20.9217 58.0423 22.9103C56.7892 24.1866 55.957 25.0653 55.9708 27.0308C55.9801 28.7418 56.5627 30.194 57.7048 31.4611C58.0932 31.8912 58.5278 32.3259 58.7081 32.8762C59.152 34.2312 59.0503 36.0857 59.3508 37.4129C58.1533 38.065 56.7523 38.4812 55.4992 38.9992C54.0936 39.5818 53.9456 39.9102 52.3874 39.4616C48.7254 38.4118 45.2113 36.9135 41.5724 35.8174C40.8835 34.4624 40.3563 34.6058 40.0049 33.9491C38.8721 31.8172 37.5451 29.0147 36.6943 26.7718C37.7393 26.4619 38.5947 26.0781 39.5749 25.5925C41.7481 27.2944 43.371 28.6447 46.2794 28.2563C49.0907 27.8817 51.9065 25.7127 51.421 22.5819C50.9725 20.0708 48.4849 18.0175 46.395 16.8289C44.8322 15.941 42.4925 16.9584 40.8881 16.4359C39.5472 15.9965 37.6514 14.3918 36.9162 13.231C36.9162 10.3314 36.5279 4.2131 34.4564 2.30778C30.91 -0.957173 25.8053 1.41061 25.2828 6.01669C22.6565 5.12414 19.3921 3.67203 16.6086 4.96691C15.2955 5.57735 13.6309 7.20058 13.1408 8.5787C12.8356 9.44349 12.5906 10.3592 12.1698 11.187C11.2866 11.4691 10.4128 11.6679 9.50187 11.7419C6.27447 12.0101 4.04119 11.3072 2.50147 14.956C1.14208 18.1793 -0.642701 22.2351 0.240441 25.8284C0.480877 26.8134 1.8264 28.8621 2.93148 28.7187L2.92686 28.7141Z" fill="white"/>
<path d="M118.239 101.736C119.266 100.316 119.645 99.0585 120.172 97.4445C120.768 95.6271 121.014 94.2397 121.074 92.3436C121.092 91.8303 121.73 90.9886 121.55 90.3735C121.462 89.8556 121.06 89.2498 121.004 88.7364C120.713 85.9895 120.426 83.0945 118.651 80.8423C118.47 80.6157 117.726 79.515 117.361 79.552C117.088 79.5798 117.037 79.8295 116.635 79.7971L116.561 79.6954C116.667 79.4688 116.676 79.4873 116.723 79.2468C116.117 78.0259 115.215 77.4016 113.976 76.8883C114.078 76.1067 114.277 74.5251 113.315 74.1968C113.014 74.5113 113.093 75.9541 113.014 76.5969C112.071 76.3981 111.438 76.2917 110.481 76.1854C110.642 75.4824 110.869 74.6315 110.943 73.9239L110.864 73.7991C109.889 74.2569 109.634 75.0986 109.523 76.116C107.494 75.8616 105.556 76.1669 103.517 76.116C102.102 76.079 100.193 75.7136 98.8842 76.4351C98.7917 76.5738 98.6622 76.7218 98.7177 76.8929C99.0229 77.7808 99.5916 78.6317 99.9291 79.5104C99.98 79.6492 99.7396 80.4261 99.6841 80.6619C99.5176 81.3556 99.3974 82.262 99.3835 82.9742C99.3743 83.4829 99.7257 84.3246 99.7581 84.8842C99.8505 86.475 99.7812 88.2925 99.7581 89.8695C99.7442 90.8083 98.6252 91.4557 99.5084 92.7737C99.6425 93.0049 99.6933 93.3471 99.6979 93.6061C99.7765 96.0988 99.7442 98.6145 99.6979 101.107C99.6748 102.064 99.7719 103.096 99.6563 104.039C99.5685 104.761 98.7408 105.334 99.1847 106.037C99.4298 106.425 100.692 106.296 101.071 106.254C103.129 106.028 105.159 106.12 107.216 106.222C108.307 106.268 109.232 105.972 110.388 106.153L110.518 106.171C112.242 106.092 114.397 105.029 115.779 104.035C116.182 103.743 116.552 103.697 116.926 103.299C117.042 102.902 116.829 102.855 116.505 102.606L116.533 102.485C117.102 102.222 117.666 102 118.235 101.731L118.239 101.736ZM103.771 83.7188C103.568 83.5338 103.573 83.5384 103.429 83.3026C103.466 82.9881 103.443 83.0945 103.67 82.817C103.919 82.9696 103.827 82.8679 103.952 83.1407C103.943 83.4644 103.929 83.4552 103.767 83.7188H103.771ZM113.093 96.1635C112.94 96.6583 111.946 98.0781 111.581 98.4943C110.36 99.5626 108.446 99.7984 106.874 99.7337C106.745 97.0514 106.874 94.4802 107.027 91.8072C107.11 90.7065 106.819 89.3793 106.879 88.311C106.985 86.3455 106.846 84.542 106.786 82.595L107.674 82.3915C109.093 82.595 110.467 82.4378 111.715 83.5893C113.394 85.1432 113.551 87.1872 113.717 89.3469C113.888 91.5389 113.754 94.0547 113.093 96.1728V96.1635Z" fill="white"/>
<path d="M44.4253 108.821C43.3942 108.705 43.4404 109.302 42.4093 109.367C40.999 109.459 39.5379 109.306 38.1369 109.121C35.7696 108.802 36.1441 109.413 37.3833 110.823C37.4387 117.557 37.1706 124.29 37.2769 131.023C37.2908 131.967 37.3786 133.548 37.1983 134.39C36.8284 136.129 34.535 136.356 33.097 136.212C33.023 136.203 32.7225 136.536 32.5005 136.499C32.6393 136.309 32.6069 136.356 32.7872 136.198C32.8427 135.921 32.8612 135.93 32.5607 135.722C31.9827 135.31 31.9549 134.108 31.7977 133.461C31.7006 132.425 31.7099 131.019 31.7099 129.909L31.733 122.88V115.013C31.733 114.093 31.7145 113.2 31.6775 112.28C31.6405 111.309 31.9503 110.301 32.1676 109.367C32.2786 108.904 31.1689 108.798 30.9238 108.779C29.4396 109.727 27.4652 109.413 25.7545 109.501C25.44 109.519 24.7465 108.816 24.4043 108.691C24.0899 108.96 23.7893 109.205 23.498 109.501C23.8078 109.861 24.1592 110.231 24.2517 110.703C24.5985 112.474 24.4228 114.403 24.4228 116.202L24.4552 128.457L24.4737 132.355C24.4737 133.47 24.4182 134.654 24.6078 135.736C24.7141 135.856 25.0701 136.249 25.0655 136.342C25.0378 137.35 25.1302 137.974 25.7128 138.83C26.0642 139.338 26.6376 139.417 27.0029 139.884C26.915 140.041 26.9243 140.023 26.8179 140.157C27.7982 141.813 31.2845 143.158 33.0785 143.477C33.6935 143.584 34.2761 143.584 34.7477 144.005C35.4968 143.505 36.3706 143.394 37.3046 143.126C37.4202 143.232 37.4896 143.297 37.5959 143.413C38.1369 143.413 39.2744 142.65 39.709 142.303C39.8292 141.998 39.8893 141.702 40.1113 141.517C40.324 141.554 40.324 141.567 40.5182 141.665C41.9932 140.929 43.3063 138.566 43.8149 137.017C44.1201 136.074 44.3097 135.093 44.3837 134.103C44.5825 131.546 44.3698 128.216 44.3837 125.613L44.416 119.689C44.4438 117.964 44.5224 116.1 44.4021 114.389C44.4391 113.168 44.5131 111.813 44.6472 110.597C44.6657 110.421 44.9524 110.134 45.0633 109.556C44.8137 109.177 44.7721 109.112 44.4253 108.83V108.821Z" fill="white"/>
<path d="M49.5022 105.912C49.6964 105.426 48.8456 104.21 48.878 103.461C48.9612 101.528 49.0444 99.8169 48.7531 97.8884C48.5913 96.8017 48.8548 95.3264 48.8086 94.198C48.7762 92.4546 48.7993 91.9505 49.5345 90.3319C49.4051 89.1434 49.308 89.3145 48.804 88.3664C48.8132 85.9663 48.7855 83.5985 48.9381 81.203C49.0028 80.2318 48.7392 79.1265 48.9381 78.1461C49.049 77.5033 49.345 76.8235 49.5207 76.1992C49.5576 76.0697 48.8641 75.6257 48.5543 75.6812C47.9763 75.783 47.5417 75.9865 46.9776 76.1113C45.5303 76.2547 44.0184 76.0651 42.5711 75.9911C41.8174 75.9495 41.5215 75.8107 41.0222 76.3102C40.8233 76.8975 41.4799 77.7345 41.5169 78.2895C41.6232 80.0006 41.651 81.7209 41.688 83.4366C41.651 83.9222 42.0301 84.602 41.9747 85.0599C41.6371 87.7837 41.6741 87.0392 39.4963 87.275C37.7485 87.4647 36.4215 87.1502 34.7754 87.1872C34.7523 84.7824 34.3917 78.3265 35.4274 76.4443C35.2054 76.0327 35.0482 75.8477 34.7153 75.5147C33.5594 76.2316 32.8103 76.1714 31.4787 76.2501C31.0764 74.9274 30.9793 73.3227 29.7263 72.6429C29.5829 72.5689 29.4396 72.4949 29.2916 72.4255C29.8881 73.6834 29.9806 73.8222 30.1794 75.191C30.258 75.4963 30.3366 75.8292 30.4337 76.1252C30.0314 76.2408 28.0709 76.0836 27.775 75.8107C27.7612 75.2234 27.5161 74.724 27.382 74.1829L27.3543 74.0673C27.3681 73.6788 27.3681 73.3597 27.3543 72.9666C27.1462 73.2256 26.9104 73.4984 26.7301 73.7759C26.4388 75.6951 27.1 77.1981 27.4005 79.0387C27.4837 79.6722 27.4791 80.3104 27.5115 80.944C27.6456 83.5245 27.5253 86.1143 27.493 88.6994C27.4791 89.7677 26.7994 89.8463 26.9011 91.3262C27.2109 91.7285 27.3265 91.8996 27.5855 92.3436C27.3404 94.0315 27.6641 96.4918 27.6271 98.2769C27.6132 99.0353 27.3265 102.199 27.4745 102.693C27.812 102.758 27.8444 102.707 28.0663 102.901L28.034 103.105C27.8259 103.239 27.7797 103.23 27.5392 103.281C27.2525 103.678 26.6884 105.644 27.0722 106.125C27.6039 106.407 28.501 106.319 29.1021 106.222C29.8696 106.097 30.7065 106.171 31.4463 105.995C31.8116 105.87 31.9041 105.773 32.2601 106.018C32.778 106.375 33.6426 106.005 34.1882 106.277C34.6783 106.518 35.1222 106.273 35.3811 105.796C35.4228 105.316 34.6922 104.252 34.6876 103.151C34.683 101.19 34.6413 99.1972 34.6691 97.2318C34.683 96.1219 34.7985 94.9333 34.7754 93.8419C36.292 93.7309 37.0966 93.9298 38.5346 93.9899C39.5657 94.0362 40.4211 93.6847 41.6649 93.7911C41.8729 97.204 41.5123 100.793 41.6001 104.224C41.6186 104.881 41.0453 105.537 41.3227 106.268C41.5215 106.439 41.503 106.467 41.8452 106.421C42.9873 106.268 44.0923 106.092 45.2529 106.097C46.5799 106.106 48.3323 106.874 49.4975 105.898L49.5022 105.912Z" fill="white"/>
<path d="M17.0756 109.69C15.1521 108.96 12.8911 109.122 10.8798 109.274C9.80704 109.32 9.04874 109.233 7.88817 109.357C7.93441 107.831 7.99914 106.499 6.62588 105.519C6.63975 106.208 6.7461 106.68 6.8247 107.355C6.89868 108.002 6.88944 108.724 6.88481 109.376C5.84909 109.385 5.34972 109.431 4.32324 109.214C4.277 107.961 4.52206 106.453 4.40647 105.422C2.84825 106.999 3.65741 107.105 3.31525 108.881C3.1303 108.807 3.21815 108.826 3.05632 108.821C2.87137 109.011 2.50147 109.348 2.44598 109.579C2.57083 110.384 3.03783 111.235 3.15805 111.91C3.2274 112.289 3.15342 113.635 3.16729 114.102C3.21815 115.887 3.2274 117.788 3.13493 119.568C3.11181 119.989 2.73266 121.28 2.58007 121.687C2.72341 122.265 3.04708 123.388 3.24127 123.939C3.68516 124.688 2.45061 125.728 2.51996 126.149C2.81126 127.939 3.38923 129.826 3.18116 131.666C2.84363 134.682 3.19504 137.701 2.94535 140.73C2.89449 141.332 1.95586 142.844 2.82513 143.177C4.22151 143.57 5.94156 143.08 7.42579 143.177C7.64773 143.015 8.05925 142.659 8.29506 142.659C8.43378 142.83 8.43378 142.876 8.52163 143.08C9.18745 143.454 11.1988 143.551 10.9214 142.289C10.6856 141.933 10.5885 141.84 10.2833 141.535C10.3249 139.704 10.0891 132.61 10.7087 131.602C11.3283 131.329 13.4968 131.583 14.3522 131.532C15.989 131.435 16.604 130.649 18.0096 129.974C18.5876 129.696 19.1748 129.326 19.6649 128.91C23.831 124.05 23.9281 112.299 17.071 109.686L17.0756 109.69ZM15.4203 122.024C14.699 123.018 14.9487 123.596 13.7465 124.212C13.0945 124.304 11.1664 124.262 10.5931 123.943C10.14 123.18 10.4729 117.585 10.6208 116.535C10.6393 116.396 10.8474 116.183 10.9537 116.077C11.4392 115.915 11.7028 115.855 12.1975 115.753C12.364 115.749 12.5351 115.744 12.7015 115.753C15.6515 115.836 15.5729 119.938 15.4203 122.029V122.024Z" fill="white"/>
<path d="M84.962 110.837C82.1692 108.738 79.885 109.061 76.616 109.376C74.9931 109.533 72.9864 109.265 71.3126 109.417C70.5496 109.487 69.5093 108.77 68.8065 108.765C68.5707 108.955 68.321 109.098 68.247 109.38C68.3996 110.037 68.9544 110.698 69.0608 111.494C69.2411 112.84 68.8989 114.356 69.2411 115.624C69.3243 116.488 69.0284 117.335 69.0053 118.232C68.996 118.648 69.2319 119.379 69.218 119.457C69.0192 120.331 69.3243 124.702 68.9729 125.164C67.6551 126.884 68.4828 126.404 68.9036 128.346C69.0007 128.924 68.9036 129.631 68.9729 130.191C69.1856 132.055 68.8666 133.951 68.862 135.773C68.8573 137.678 68.788 139.639 68.7741 141.535C68.5522 141.882 68.3302 142.243 68.0898 142.58C68.4412 142.844 68.788 143.107 69.1579 143.353C70.0133 143.343 74.1562 143.195 74.8035 143.029C75.0856 143.172 75.4647 143.357 75.7283 143.524C76.3016 143.172 76.5559 142.996 76.9813 142.437L76.4496 141.655C76.4357 141.133 76.4819 139.56 76.4172 139.186C76.2184 139.056 76.1814 139.07 75.9456 139.033C75.9456 137.896 76.4542 137.026 76.4403 135.389C76.334 134.395 76.1814 132.591 76.653 131.694C76.8657 131.292 79.8481 131.639 80.3844 131.495C80.6896 131.412 81.4063 131.454 81.7484 131.296C83.5609 130.575 85.1284 129.359 86.5155 128.008C86.7051 127.823 86.8623 127.241 87.0057 127.023C88.4899 124.771 88.2263 122.519 88.2957 119.938C88.3789 116.706 87.7917 112.89 84.9712 110.842L84.962 110.837ZM79.4828 124.216C78.8262 124.304 77.0322 124.281 76.4681 123.966C76.4126 123.832 76.3987 123.86 76.3941 123.703C76.3062 121.312 76.2924 118.944 76.5837 116.562C76.5929 116.47 76.9721 116.077 77.0645 115.98C77.3142 115.901 77.5732 115.841 77.8275 115.776C79.4735 115.517 80.9716 116.488 81.0641 118.176C81.1473 119.716 81.8132 124.05 79.4874 124.216H79.4828Z" fill="white"/>
<path d="M56.5534 109.293C54.9305 109.533 52.6556 109.348 50.991 109.441C49.6363 109.515 48.6329 109.029 47.2874 109.126C47.0886 109.339 46.9868 109.408 46.9406 109.695C46.9915 109.852 47.1441 110.12 47.1256 110.065C48.0688 112.969 47.5926 116.456 47.5972 119.494C47.5972 119.864 47.1117 121.021 47.1441 121.289C47.3059 122.51 47.6897 123.481 47.8006 124.753C47.3244 125.113 47.0839 125.594 46.751 126.103C47.2088 126.778 47.2643 127.31 47.6897 127.93C47.6758 128.401 47.6897 128.901 47.6712 129.373C47.4955 132.98 47.6712 136.568 47.4908 140.166C47.4492 141.013 47.1672 141.78 47.0007 142.594C46.9406 142.886 47.4307 143.302 47.6481 143.283C48.878 143.186 50.6026 143.339 51.7817 143.112L52.0083 142.821C52.6047 142.844 52.3227 143.274 52.8174 142.886C53.3261 142.936 53.9872 143.815 54.4404 143.459C54.7455 143.219 55.06 142.858 55.2033 142.488C55.0368 141.859 54.7132 141.808 54.7456 141.184C54.7964 140.194 54.6901 139.14 54.6901 138.164C54.6901 137.207 54.7687 136.393 54.7224 135.398C54.7825 134.104 54.7178 132.675 54.8565 131.417C59.5543 131.629 62.3378 131.629 65.2785 127.338C66.7258 125.571 66.7258 124.401 66.9523 122.302C67.7476 114.981 65.3201 107.979 56.5534 109.283V109.293ZM57.4643 124.286C56.7014 124.262 55.6703 124.151 54.9629 123.874C54.9721 122.857 54.7039 116.724 55.1339 116.151C55.6888 115.897 56.4702 115.827 57.0759 115.776C57.7279 115.762 58.329 116.058 58.9439 116.299C59.545 117.108 59.7808 117.654 59.9011 118.662C60.1554 120.771 60.2802 124.008 57.4597 124.286H57.4643Z" fill="white"/>
<path d="M143.24 123.596C142.653 123.263 141.848 122.921 141.33 122.598C140.725 122.223 139.948 121.335 139.282 120.979C138.773 120.711 138.339 120.78 138.154 120.271C137.682 119 137.826 117.705 137.955 116.405C138.413 115.818 138.82 115.397 139.615 115.295C140.295 115.212 140.979 115.406 141.511 115.841C142.158 116.368 142.32 116.798 142.662 117.515C141.645 119.777 141.959 119.975 144.206 120.003C146.014 120.026 145.723 120.003 147.244 119.444C147.924 119.809 149.404 120.345 149.995 119.633C150.023 118.893 149.214 114.972 148.89 114.139C148.678 113.584 147.526 112.521 147.281 111.475C146.662 110.934 146.199 110.509 145.478 110.093C145.82 108.793 145.802 106.37 144.401 105.667C144.341 106.499 144.461 106.809 144.544 107.628C144.604 108.234 144.562 108.946 144.53 109.561C143.564 109.219 143.092 109.145 142.066 109.048C142.066 107.669 142.13 106.948 142.19 105.648C141.28 106.522 141.058 106.916 141.03 108.229L141.021 108.733C138.834 108.678 136.721 109.071 134.751 109.935C134.053 110.241 132.152 112.035 131.879 112.747C131.32 114.204 130.27 116.438 130.303 118.028C130.363 120.928 130.52 122.949 132.679 125.021C134.538 126.834 136.559 128.101 138.806 129.331C140.702 130.371 142.334 131.546 142.278 133.942C142.288 135.717 141.71 136.467 139.758 136.517C137.95 136.568 136.836 135.283 136.841 133.525C136.831 133.003 137.243 132.087 137.183 131.666C136.841 131.366 136.711 131.417 136.249 131.449C134.668 131.565 133.082 131.551 131.505 131.708C130.945 131.763 129.91 131.578 129.424 131.713C129.119 132.143 129.216 132.744 129.299 133.234C129.808 136.272 130.395 139.098 132.92 141.151C134.492 142.576 136.175 143.033 138.131 143.329C138.861 143.44 139.555 143.968 140.498 143.746C142.842 143.598 145.737 142.178 147.378 140.527C147.623 140.282 148.645 138.168 148.724 137.835C148.622 137.687 148.618 137.683 148.488 137.563C148.728 137.045 149.251 136.739 149.39 136.351C150.06 134.441 149.783 131.523 149.066 129.678C147.868 126.565 146 125.192 143.226 123.615L143.24 123.596Z" fill="white"/>
<path d="M107.364 141.373C107.387 139.551 107.318 137.743 107.433 135.921C107.447 135.676 106.791 134.783 106.606 134.594C106.18 134.723 106.005 135.666 105.464 135.731C103.508 135.949 101.446 135.606 99.4482 135.828C98.8425 135.893 97.6403 135.865 97.6958 135.098C97.7975 133.548 97.4369 131.19 97.7051 129.747C98.6298 128.734 99.1708 129.113 100.382 129.095C101.358 129.081 102.315 128.998 103.295 129.076C103.813 129.118 104.622 129.835 104.964 129.775C105.723 128.891 105.422 125.95 105.464 124.706C105.524 123.032 106.009 121.927 104.729 120.674C103.563 121.978 103.235 122.042 101.464 121.922C101.224 121.904 100.428 122.103 100.248 122.056C99.0644 121.77 99.2956 121.598 98.2553 122.477C98.1258 122.26 98.0195 121.876 97.9686 121.807C97.7744 120.766 98.0472 119.767 97.8946 118.597C97.8854 118.343 97.8206 117.02 97.9177 116.937C98.6252 116.322 101.386 116.03 102.241 116.017C102.699 116.012 103.156 116.021 103.61 116.049C104.414 116.1 105.991 117.27 106.758 117.182C107.239 116.558 107.184 110.985 107.142 109.838C107.128 109.501 106.985 109.107 106.763 108.821C106.185 108.59 105.686 109.07 105.2 109.366C102.81 109.246 100.04 109.662 97.6866 109.274C95.1805 108.862 92.9287 110.167 90.7278 108.65C90.4134 108.872 90.1174 109.047 89.8677 109.339C89.766 110.264 90.3949 110.652 90.455 111.3C90.5567 112.451 90.5289 113.848 90.5012 115.008C90.4596 116.854 91.0237 120.715 89.9417 122.19C90.0851 122.856 90.3995 123.8 90.5012 124.614C90.6723 125.983 90.5243 128.424 90.3995 129.876C90.3995 129.923 90.0481 130.223 89.988 130.279C89.692 130.926 90.3764 131.8 90.3902 132.452C90.4457 135.417 90.2377 138.441 90.2885 141.396C89.7891 142.145 89.2898 142.839 90.5151 143.376C91.1162 143.639 91.9346 143.107 92.568 143.144C93.8303 143.14 95.0926 143.209 96.3503 143.228C98.8148 143.26 101.284 143.228 103.748 143.144C104.294 143.121 104.812 143.357 105.205 143.265C105.279 143.163 105.422 142.909 105.538 142.904C106.361 142.895 106.957 144.018 107.757 143.228C108.159 142.83 108.053 142.391 107.887 141.919L107.369 141.364L107.364 141.373Z" fill="white"/>
<path d="M90.0018 106.416C91.0977 106.273 92.1981 106.102 93.3032 106.055C94.1771 106.018 97.1456 106.421 97.7837 106.115C97.8715 105.829 97.7328 105.408 97.5663 105.186C96.3087 103.521 96.3503 102.328 95.911 100.409C95.3747 98.0733 94.4545 95.6315 94.0245 93.2638C93.8766 92.5192 93.6685 92.5608 93.5575 92.1215C93.4512 91.4741 93.6269 90.6093 93.4327 89.9896C93.2154 89.2959 92.7622 88.7733 92.5819 88.038C91.6849 84.3985 90.1082 79.8987 89.9232 76.2268C88.9892 75.3019 88.7904 76.1945 87.7454 76.1806C86.6681 76.1621 85.5908 76.1621 84.5134 76.1667C82.9644 76.0511 82.65 75.8939 81.0872 76.028C81.0317 76.1112 80.7959 76.4812 80.7774 76.5737C80.5555 77.7899 80.3381 78.96 79.9867 80.1531C79.8341 80.6664 79.8665 81.4202 79.7186 81.9567C79.5336 82.729 79.2793 83.5152 79.0666 84.2921C78.8724 84.995 78.7799 85.7211 78.6088 86.3963C78.2852 87.6634 77.9523 89.0415 77.4714 90.2578C77.2402 90.8405 76.9304 90.8729 76.7408 91.4833C76.5744 92.0336 76.8287 93.2175 76.7177 93.6199C76.4865 94.4754 76.1074 95.3217 75.8716 96.2189C75.2335 98.6468 74.8913 100.945 74.0498 103.327C73.7446 104.187 73.1944 105.103 72.9678 105.898C73.5504 106.356 76.0611 106.055 76.9258 106.24C77.1755 106.291 77.3882 105.81 77.4806 105.602L77.5639 105.584L78.0124 106.032C79.3117 106.217 80.3058 106.823 81.0964 105.588C80.9762 105.329 80.856 105.052 80.7265 104.797C80.7913 104.113 80.9115 103.54 81.004 102.864C81.0548 102.49 80.7728 101.986 80.8884 101.685C81.1288 101.727 81.041 101.713 81.2583 101.889L81.3554 101.838C81.4386 101.306 81.6143 100.617 81.975 100.205C83.2789 99.8815 84.5689 100.691 85.2995 99.7844C85.9514 99.9555 87.5975 100.247 88.0737 100.432C90.2099 101.26 88.1893 104.969 89.9833 106.421L90.0018 106.416ZM84.9897 94.0962C84.3562 94.4199 83.8245 94.1748 83.0754 94.0314C83.2419 93.2961 83.5193 92.3712 83.6303 91.6405C83.9308 89.6797 84.3747 87.8206 84.9018 85.9107C85.059 85.3465 85.1006 84.7823 85.2671 84.2227C85.3642 84.4077 85.6555 86.2437 85.7295 86.6321C86.141 88.8612 87.2692 91.844 87.3293 94.0407C86.5479 94.0361 85.7665 94.0083 84.9897 94.1008V94.0962Z" fill="white"/>
<path d="M71.0259 98.6143C68.7279 100.224 67.7661 99.5392 65.0889 99.6317C64.2428 99.6641 60.8536 99.8537 60.3727 99.2571C60.0074 98.2166 60.3357 97.4674 60.3727 96.4408C60.4004 95.6453 60.3958 94.7759 60.3958 93.9805C61.9633 93.7169 63.7203 93.8926 65.3109 93.8603C66.3744 93.8371 66.9708 94.0499 67.8447 94.6141C68.9128 93.1434 68.358 90.9653 68.4134 89.2218C68.4319 88.6576 68.4597 88.0657 68.4551 87.5061C68.2008 87.0899 68.0528 86.8032 67.6875 86.4702C66.0137 87.9732 64.0301 87.557 61.9586 87.3627C61.4593 87.6171 61.3113 87.6911 60.8906 88.0842C60.8351 87.9362 60.5576 87.1685 60.5576 87.0714C60.5299 85.8921 60.2941 83.9405 60.3773 82.8676C60.5761 82.752 61.6165 82.8075 61.9263 82.7937C63.9006 82.7104 65.4912 82.8075 67.4425 82.3219C68.5522 82.2248 70.0965 83.5475 70.864 82.9971C71.1368 82.4746 70.6745 81.5959 70.7531 80.8837C70.7901 80.1021 70.8271 79.2512 70.8039 78.4697C70.7854 77.7945 71.0675 76.5875 70.6791 76.0557C69.9948 75.1169 69.3798 76.1343 68.6169 76.1296C67.8401 76.1805 66.9061 76.0557 66.1432 76.1204C64.0763 76.2869 61.9586 75.977 59.9288 75.9909C57.9036 76.0048 55.8784 76.4256 53.8115 75.9724C53.4971 75.903 52.8775 75.7458 52.6417 75.8892C52.2163 76.6985 52.9978 77.406 53.0024 78.0673C53.0163 79.7276 53.1319 81.4294 53.1873 83.0758C53.2336 84.9163 53.2058 86.7569 53.1041 88.5929C52.7851 89.0137 52.5308 89.2126 52.6186 89.786C52.7897 90.9375 53.1411 92.2694 53.155 93.4302C53.1873 96.5194 53.0671 99.6548 53.0625 102.749C53.0625 103.567 52.8313 104.788 52.5123 105.51C53.7607 107.299 54.2693 106.102 56.1974 106.125C60.6547 106.185 65.1028 106.162 69.5601 106.134C70.1566 106.134 70.5173 106.448 71.0351 106.555C71.2478 106.3 71.4975 105.981 71.7287 105.75C71.2155 103.012 71.7426 101.745 71.8119 99.2756C71.5252 99.0167 71.3449 98.8456 71.0259 98.6189V98.6143Z" fill="white"/>
<path d="M129.489 109.464C129.313 109.237 129.045 108.802 128.735 108.779C128.102 108.738 127.464 109.325 126.835 109.417C125.933 109.547 124.491 109.436 123.571 109.329C122.572 109.214 121.679 108.899 120.69 109.209C119.326 109.635 110.402 109.519 109.371 108.946C109.246 108.876 109.135 108.798 109.006 108.733C108.737 108.904 108.557 108.978 108.432 109.26C108.414 109.699 108.793 110.615 108.811 110.948C108.895 112.294 108.733 114.782 108.414 116.049C108.728 116.678 108.756 116.761 109.348 117.145C110.166 116.724 110.966 116.178 111.757 115.809C112.307 115.998 112.464 116.086 112.964 116.391C113.694 116.067 114.554 115.869 115.155 115.54C115.072 115.943 115.035 116.234 115.012 116.646C114.855 119.397 114.993 122.135 115.012 124.887C114.66 125.303 114.078 125.844 114.147 126.376C114.221 126.954 114.97 127.375 114.97 127.786C114.97 128.614 114.947 129.493 114.933 130.325L114.896 135.042C114.864 137.216 115.035 139.486 114.799 141.628C114.684 142.659 113.745 142.506 115.22 143.482C115.447 143.339 115.729 143.149 115.96 143.033C117.523 143.422 120.043 142.964 121.975 143.371C122.868 142.802 122.974 142.497 122.23 141.641C122.193 141.595 122.151 141.554 122.109 141.507C122.123 140.346 121.975 138.788 122.045 137.775C122.054 135.093 122.183 132.207 122.211 129.507C122.22 128.438 123.006 127.222 123.094 125.978C122.868 125.585 122.248 124.563 122.22 124.197C122.123 123.037 122.257 121.603 122.248 120.438C122.239 118.925 122.202 117.529 122.327 116.021C122.868 115.846 123.307 116.262 123.871 116.465C124.495 116.289 124.722 116.215 125.309 115.938C125.887 116.28 128.25 117.164 128.786 117.034C129.517 116.553 128.999 116.248 129.003 115.642C129.022 113.496 128.855 111.545 129.484 109.464H129.489ZM121.795 111.346C121.684 111.313 121.684 111.29 121.587 111.207L121.629 111.041C122.022 110.657 122.493 110.56 123.016 110.453C123.127 110.504 123.085 110.463 123.136 110.587C122.831 110.856 122.188 111.147 121.8 111.346H121.795Z" fill="white"/>
<path d="M73.028 47.6747C73.9712 47.5684 75.8993 47.9198 76.7224 47.6701C79.3533 46.8654 81.1936 42.7126 82.8396 40.5575C82.4328 41.5426 81.9981 42.4675 81.5496 43.434C84.0557 41.0385 85.3688 39.5355 85.5677 35.9329C85.6 35.3086 85.9561 33.4495 85.7526 32.9778C85.5122 33.4495 85.3087 34.393 85.0729 34.9942C84.5597 36.3122 84.0326 37.2648 83.3575 38.4857L83.3806 38.3747C83.5378 37.6672 83.8199 36.9735 84.0326 36.2798C84.5227 34.7167 84.7076 33.69 84.7493 32.0807C83.8476 34.4253 83.4084 36.5249 81.6791 38.4348C77.0507 43.5542 68.8019 42.8791 65.1075 37.0428C64.1642 35.5537 63.503 34.134 63.2718 32.3674L62.9666 32.4321C63.0083 33.6993 63.2487 34.7259 63.5123 35.9561C63.6463 36.5989 63.8082 36.9041 63.8359 37.5839C63.1701 36.8671 62.1344 32.7096 61.8939 31.6367C61.7228 32.9131 61.8384 33.6438 61.9078 34.8415C62.0696 37.7365 62.4025 39.1563 64.2659 41.4686C64.7468 42.0651 65.2647 42.7773 65.8241 43.3461C65.3849 42.2362 64.7098 40.9691 64.3538 39.9055C64.9734 40.7425 65.5467 41.6119 66.0692 42.5137C67.8216 45.5104 68.899 48.128 73.028 47.6655V47.6747ZM68.788 42.2732C68.4227 41.9634 68.21 41.6998 67.9048 41.3391C68.3765 41.6489 68.8712 41.9079 69.3706 42.1807C70.1936 42.4443 70.9057 42.8004 71.7518 42.9253C74.1839 43.2953 77.342 43.0317 79.4319 41.5934C78.4054 42.9854 76.6715 43.7716 74.97 43.915L74.822 43.9288C75.2289 44.1832 75.7005 44.493 76.1167 44.715C73.9574 44.5439 73.1436 44.3959 71.0351 44.7196L72.3159 43.915C71.2709 43.7716 69.5833 43.0039 68.788 42.2732Z" fill="white"/>
<path d="M131.496 20.0614C131.218 19.9782 130.636 19.8163 130.423 19.6683C130.058 19.3585 130.173 18.3133 130.293 17.8925C131.056 15.2102 132.545 15.5987 134.159 17.0601C134.288 15.9224 134.691 14.942 134.783 13.587C133.988 12.7222 132.929 12.5419 131.829 12.2736C133.188 12.0424 133.562 12.1025 134.829 12.5557C134.742 11.7557 133.539 8.35199 133.216 7.31146C132.554 6.95537 132.013 6.8675 131.283 6.73801C131.163 6.66402 131.047 6.6224 130.913 6.56691L130.839 6.3588C131.311 6.25243 131.574 6.29868 132.046 6.3403C132.286 6.43279 132.36 6.48366 132.619 6.46516C132.545 6.26631 132.444 6.27556 132.194 6.13682L131.186 5.63737C130.636 5.98883 130.386 6.0952 129.78 6.34493H129.531V6.24781C129.803 6.03508 130.358 5.67899 130.404 5.38301C129.549 5.0223 126.913 7.17735 126.164 7.67218C124.99 8.44448 124.167 9.24453 122.826 9.77636L122.447 11.1452C122.248 12.306 122.142 12.5465 121.513 13.4991C120.842 14.1697 120.644 14.3408 119.811 14.8171C120.607 15.3166 120.759 15.497 121.046 16.3849C124.259 17.4254 125.73 19.7839 128.883 20.8476C128.287 19.4972 128.199 19.1966 128.254 17.7029C128.273 17.2635 128.61 15.8808 128.564 15.7421L128.49 15.8114L128.31 15.6357C128.277 15.4183 128.259 15.3443 128.167 15.1409C128.134 15.1455 128.097 15.1501 128.065 15.1547L127.908 15.1779C127.02 15.3027 126.516 15.164 125.753 14.7617C126.077 14.7154 126.164 14.683 126.479 14.5767L126.437 14.5166H125.864C124.333 14.2622 124.093 13.5361 123.048 12.7176C122.84 12.3522 122.581 12.0239 122.678 11.6632C123.284 12.1303 123.894 12.4216 124.666 12.5141C125.036 12.602 125.156 12.6251 125.536 12.639C125.781 12.6806 126.151 12.713 126.372 12.602C126.257 12.4401 125.993 12.3985 125.758 12.3153C125.471 12.0655 125.388 12.0193 125.055 11.8435L124.976 11.7927C125.365 11.7418 126.433 12.0563 126.909 12.1488L126.174 11.7927C126.349 11.6308 126.474 11.5984 126.692 11.5106L126.987 11.5429C126.803 10.9972 126.608 10.9325 126.409 10.1926C127.001 10.4423 127.602 10.8631 128.148 11.2146C128.079 9.42489 128 9.09655 128.99 7.52882C128.892 9.70699 129.725 10.5487 130.247 12.4956L130.543 12.3384C131.264 13.1662 128.587 17.6474 130.219 20.0938C130.797 20.4083 131.015 20.5331 131.69 20.5932C131.967 20.5331 132.032 20.5747 132.166 20.4036C132 20.1955 131.759 20.1539 131.496 20.0614Z" fill="white"/>
<path d="M40.398 19.451C38.1231 18.5307 36.2967 17.2265 34.3639 15.7744C32.5052 16.4866 32.0659 16.5467 30.1378 15.9733C29.3333 16.371 28.5056 16.4773 27.6456 16.7086C26.67 16.9722 25.7545 17.356 24.8066 17.6982C24.3165 17.874 23.9743 17.874 23.4934 18.1329C23.179 18.2486 22.7444 18.452 22.3097 18.6879C21.8474 18.9376 21.3989 19.2243 21.1076 19.4926C21.0613 19.5342 21.0151 19.5758 20.9781 19.6174L20.992 19.7284C21.2879 19.7423 21.9953 19.5758 22.5363 19.3908C22.7952 19.2983 23.0218 19.2058 23.142 19.1226C25.5094 18.3734 27.923 17.2728 30.3782 16.9259C31.0024 16.8381 33.1063 17.0369 33.5918 17.3838C33.1525 17.7537 30.3089 18.0913 29.4165 18.3179C26.7301 19.0024 23.6044 19.9504 21.1769 21.3147C21.0382 21.3933 20.7192 21.8927 20.6267 22.0407C24.9592 20.5655 29.5043 18.2393 34.1651 19.0625C33.1987 19.3168 32.2832 19.7192 31.3585 19.9273C28.3808 20.5978 22.4068 21.9066 20.2614 23.9969L20.2707 24.1125C20.4602 24.1819 20.4834 24.2004 20.6822 24.2096C21.0058 24.3345 21.274 24.4362 21.5283 24.5149C21.926 24.6305 22.2959 24.6721 22.7999 24.5935C22.8831 24.5796 22.9617 24.5704 23.0542 24.5472C24.0344 24.5657 26.2215 23.6269 27.2988 23.3818C29.9898 22.7668 33.8784 22.0361 36.6342 22.0037C34.3917 23.2061 32.0197 23.3125 29.5321 23.8212C28.4732 24.0385 27.4468 24.3807 26.4573 24.5842C25.0655 24.871 24.3118 24.9773 22.9525 25.412C26.5498 25.6571 29.5413 24.5565 33.0415 23.9275C34.2345 23.7148 35.9915 23.8535 37.0087 23.3818C39.3807 22.2858 39.5287 21.6384 40.4118 19.4648L40.398 19.451ZM27.2341 22.5587C25.6666 22.9656 24.3072 23.5853 22.6935 23.8767C22.5872 23.8998 22.467 23.9275 22.3421 23.9553C21.8844 24.057 21.3203 24.1726 20.9504 24.0894C22.0739 23.7102 23.4056 22.9934 24.4367 22.6512C27.1601 21.7494 30.2719 20.7088 33.1479 20.6857C33.8599 20.6811 34.8957 21.0233 35.5245 21.236C32.7364 21.6476 30.0037 21.8372 27.2341 22.5587Z" fill="white"/>
<path d="M41.4244 51.1062L48.5358 53.8255C50.0339 54.4035 51.6661 55.0649 53.1781 55.5597C54.3571 62.2746 54.9721 66.6448 55.0045 73.5447L56.4517 73.5539C56.5673 68.3744 56.1558 63.1949 55.2218 58.0986C54.9952 56.8962 54.7502 55.4764 54.371 54.3249C52.4984 53.4555 49.4004 52.4057 47.3845 51.6334L34.646 46.7129C33.3328 46.2088 31.9734 45.7232 30.6372 45.2654C28.6998 44.6087 27.8583 42.7774 26.7254 41.2281C25.7544 39.9009 24.7973 38.4996 23.7801 37.177C23.9697 38.3748 24.0853 38.9852 23.9928 40.2015C25.3984 41.7738 26.6515 44.507 28.2235 45.8111C29.3009 46.7082 32.5052 47.6655 33.9709 48.2297L41.4244 51.1108V51.1062Z" fill="white"/>
<path d="M105.774 51.3097C107.85 50.3894 109.912 49.4414 111.965 48.4656C112.025 48.0448 112.279 46.7684 112.15 46.4771C108.053 48.7246 103.906 50.3478 99.6008 52.1144C98.0704 52.7434 95.2082 53.696 93.8673 54.4544C92.0271 61.7474 91.6895 70.6312 92.7114 78.1045C92.8362 79.0063 93.7841 82.7568 94.0893 83.7003L94.3436 84.6622L94.3945 84.6853C94.4453 83.5476 94.2789 81.5637 94.2141 80.3752C94.0985 77.8178 93.9598 75.2604 93.7934 72.7076C93.442 66.6263 93.9829 61.4792 95.2637 55.5412C98.7223 54.1908 102.366 52.785 105.778 51.3097H105.774Z" fill="white"/>
<path d="M106.19 32.469C104.826 33.3431 103.781 35.8588 103.295 37.3295L103.096 35.4473C99.7811 37.6624 97.1733 38.4162 93.7517 40.0765C93.5067 41.2789 93.4466 44.3912 93.5344 45.6583L93.5668 45.5705C93.9829 44.4004 94.3621 41.8708 95.162 41.0291C95.8139 40.3447 97.9686 39.6418 98.787 39.0822C98.5466 40.0025 98.3617 40.8395 98.1721 41.7691C98.112 42.065 97.8299 43.198 97.964 43.4108C98.2322 42.9344 98.32 42.5229 98.5466 42.0465C99.3835 40.3678 99.6702 39.7759 100.891 38.3746C100.507 40.2892 100.498 40.9829 100.858 42.9714C101.117 41.2187 101.469 38.5596 102.518 37.1214C103.083 39.5123 103.17 39.947 104.613 42.0234C104.141 40.1227 103.808 38.5873 104.243 36.6728C105.274 39.1007 105.75 39.8822 107.803 41.7089C106.856 40.3817 105.542 37.889 105.39 36.2889C105.339 35.7432 105.353 34.8368 105.362 34.2634C106.499 35.7802 107.47 37.126 108.548 38.6845C108.289 37.3526 107.79 36.1733 107.355 34.8969C106.883 33.5003 107.702 32.3026 108.354 31.0678C108.862 32.0297 109.223 33.0425 109.801 34.0923C109.218 31.0123 108.904 30.5822 109.967 27.5901C110.619 28.7416 111.595 30.1752 112.751 30.8643C113.296 31.3869 114.166 31.7245 114.859 31.9835C114.513 31.447 114.212 31.1742 113.75 30.7487C111.664 29.033 110.592 27.4976 110.143 24.7136C109.644 25.8143 106.717 32.1407 106.19 32.4783V32.469Z" fill="white"/>
<path d="M107.868 17.6845C108.141 17.9388 108.367 18.1192 108.552 18.4429C108.89 19.0349 108.483 19.6638 109.052 19.8858C109.644 19.7656 110.162 19.1089 110.795 18.9563C110.887 19.3031 110.578 19.3863 110.776 19.5343L111.308 19.5019C111.077 19.9043 110.633 20.1956 110.254 20.4777C110.837 20.302 111.521 20.0153 112.011 19.8765L112.085 19.8858C111.78 20.2419 111.433 20.5147 111.077 20.82C113.028 21.9992 113.837 22.6189 116.14 22.5033C114.531 20.9864 115.109 19.9922 115.178 17.9573C115.225 16.5422 115.414 15.3815 116.75 14.6092C115.41 13.6149 115.234 13.0368 114.771 11.4922C113.731 13.0738 112.977 14.045 111.276 15.0346C109.13 16.2786 107.036 16.2555 104.71 16.755C105.542 18.1192 106.069 19.4372 106.143 21.0558L106.449 20.8523C106.458 20.6905 106.499 20.4962 106.527 20.3297C106.592 19.8627 106.652 19.4465 106.684 18.9747C106.879 19.5528 107.013 19.9135 106.971 20.5425C106.953 20.7228 106.962 20.7922 106.966 20.9772L107.05 20.9911C107.42 20.5379 107.572 19.6731 107.674 19.1089C107.443 17.8833 107.716 18.2441 107.04 16.8613C107.41 17.1758 107.554 17.3145 107.873 17.6706L107.868 17.6845ZM113.449 14.4334L113.505 14.512C112.584 15.5479 111.618 15.8162 110.323 16.1445C110.272 16.1075 110.3 16.1353 110.272 16.0381C111.308 15.3815 112.353 15.141 113.454 14.4334H113.449Z" fill="white"/>
<path d="M33.0092 5.68352C32.519 4.37476 31.6821 3.63483 30.2025 4.18053C29.6107 4.39789 28.7183 5.10082 28.3854 5.63727C28.39 7.16338 28.6351 8.14842 28.9772 9.64215C29.25 10.826 29.2778 13.3557 30.2857 14.1511C31.7839 15.3304 33.2265 14.7939 33.994 13.1152C34.1327 12.4215 34.1189 12.0053 34.0541 11.3209C34.0171 10.7058 33.9432 10.4052 33.9617 9.75314C33.8229 8.90685 33.6334 7.4686 33.3051 6.72867C32.7733 5.53091 30.1979 6.40495 29.4026 6.88591L29.0558 6.48357L29.3702 6.24309C30.6187 5.29043 31.5527 5.33205 33.0045 5.68352H33.0092ZM29.7355 10.5578C29.9852 10.0445 30.688 9.86876 31.2151 9.61903C32.7179 8.90685 33.4669 10.2295 33.7536 11.3995C33.8553 11.9221 34.0171 12.5371 33.6842 13.0042C32.9167 12.514 33.1432 11.344 32.949 10.6781C32.5098 10.1879 31.3631 10.2803 30.8452 10.5578C30.1933 10.9093 30.9238 11.9868 30.6834 12.8424C29.8974 13.6424 29.4905 11.0295 29.7309 10.5532L29.7355 10.5578Z" fill="white"/>
<path d="M120.329 12.4679C120.764 11.9592 120.907 11.2516 121.018 10.6042C121.231 9.53126 121.462 8.46761 121.689 7.39933C121.966 6.08595 122.23 5.02693 121.619 3.75979C120.907 3.22334 120.167 2.81638 119.238 2.92275C118.642 2.99211 118.138 3.28809 117.772 3.75979C116.815 4.98068 116.034 10.0862 116.27 11.6447C116.357 12.2228 116.547 12.6297 117.037 12.9858C117.573 13.3743 118.267 13.5084 118.914 13.3835C119.506 13.2679 119.945 12.9211 120.329 12.4679ZM119.132 3.60256C119.654 3.60256 121.61 3.69967 121.508 4.48123C121.226 4.55522 121.263 4.50435 120.921 4.36099C119.747 4.08814 119.344 3.99565 118.138 4.1945C118.475 3.93553 118.702 3.66268 119.132 3.60718V3.60256ZM116.7 11.6678C116.713 11.2886 116.741 10.9094 116.783 10.5302C116.949 9.20754 117.592 7.88491 119.15 8.22251C119.904 8.38437 120.172 8.64334 120.584 9.27691C120.704 10.2111 120.764 11.5615 120.227 12.3661L119.89 12.417C118.91 11.9869 117.754 11.8066 116.7 11.6678Z" fill="white"/>
<path d="M118.267 8.97632C117.92 9.36941 117.069 10.6504 117.208 11.1684C117.277 11.2054 118.679 11.2747 119.182 11.3765C119.404 11.4643 119.7 11.6262 119.89 11.58C120.103 9.88274 120.204 9.11043 118.272 8.98094L118.267 8.97632Z" fill="white"/>
<path d="M17.7738 9.74866C17.1635 9.8689 16.6965 10.0169 16.1139 10.2435C15.8596 10.7152 15.3001 11.876 15.2908 12.3847C15.5683 12.9674 16.9184 12.4679 17.5704 12.7315C18.1206 12.9535 18.7402 13.6657 19.1609 13.7952C19.1147 13.5686 19.0638 13.3975 19.0731 13.1616C19.5956 12.8656 19.8545 13.5408 20.2521 12.0147C20.5111 11.0112 20.7376 9.95215 20.9735 8.93936C21.7225 9.80878 21.7965 10.4424 21.8057 11.58L22.823 11.5569L22.9247 11.5338C23.327 11.4413 23.4379 11.4043 23.8125 11.2332L23.8864 11.2886C23.7847 11.506 23.7061 11.6586 23.5905 11.8667L23.535 11.8806C23.2067 12.2506 22.9709 12.2228 22.4669 12.2783C23.0495 12.4263 23.7015 12.6806 24.2471 12.4725L24.3997 12.2783L24.432 12.2043H24.5245C25.588 12.9026 25.4169 13.1107 24.9869 14.2206C26.3139 13.5177 26.7162 13.5686 27.9461 13.046C27.7519 12.0979 27.6826 10.8586 27.345 9.96602C27.2664 9.89203 27.1878 9.81803 27.1092 9.74404C26.2122 8.90699 24.3766 8.87924 23.1559 8.54628C21.593 8.11619 20.1134 7.48725 18.4812 7.54274C18.0235 7.63986 17.7599 7.75085 17.5149 7.97283C17.3669 8.10694 17.2236 8.28267 17.0479 8.52315C16.8352 8.71738 16.678 8.78675 16.6271 9.01336C17.0802 9.01798 17.3022 8.93012 17.7599 9.01336C18.4026 8.833 18.6246 8.72663 19.295 8.94861L19.3736 9.03648C19.1609 9.57293 18.2593 9.61918 17.7692 9.75329L17.7738 9.74866Z" fill="white"/>
<path d="M132.323 22.2212C130.941 23.4421 128.31 24.834 124.652 25.9763C125.147 27.7198 125.272 28.3533 124.888 30.1893C124.773 30.7489 124.708 31.2067 124.431 31.7293L123.46 33.0982C123.367 33.2878 122.595 34.356 122.419 34.6011C121.624 35.7157 120.842 36.8441 120.08 37.9771C119.682 38.5783 119.257 39.1934 118.887 39.8084C118.295 40.7888 118.151 41.4825 117.231 42.2178L116.848 43.6561C117.088 43.8595 117.476 44.1185 117.745 44.3081C119.312 42.0745 120.81 39.739 122.327 37.4684C124.814 33.741 127.205 31.6738 126.373 26.8781C133.428 23.6085 134.321 23.8351 132.323 22.2119V22.2212Z" fill="white"/>
<path d="M77.661 64.2539C77.832 63.8886 77.9569 63.6065 78.0956 63.218C78.8631 60.9612 80.1439 57.2292 80.6248 54.9493C79.6631 53.5897 78.5672 52.415 77.4252 51.2126C76.8102 52.2208 76.4172 53.0347 75.6959 53.9828C75.9548 54.7828 76.1767 55.8742 76.3663 56.7159C76.935 59.2039 77.3697 61.7197 77.661 64.2539Z" fill="white"/>
<path d="M70.5033 51.1755C69.3659 52.438 68.4411 53.4786 67.41 54.8243C67.9741 56.9239 68.677 59.0604 69.3474 61.1276C69.5046 61.6132 70.0317 63.2411 70.2675 63.6341C70.2999 63.8515 70.286 63.8469 70.4109 64.018C70.5635 63.7451 70.6051 62.9543 70.6236 62.6352C71.1322 59.4304 71.4928 57.2522 72.2558 54.0104C71.5067 53.0392 71.1229 52.1606 70.4987 51.1755H70.5033Z" fill="white"/>
<path d="M121.018 18.2948C120.93 19.8995 120.722 21.6014 119.539 22.7899C119.936 22.8315 120.681 22.8546 121.009 22.998C120.903 23.183 120.81 23.1599 120.551 23.257L119.465 23.3217L120.491 23.6824C123.603 24.9172 125.975 24.5935 128.217 21.9158C127.376 21.4534 126.363 20.9308 125.619 20.3342C124.509 19.4371 123.441 18.6925 122.234 17.9341C123.27 19.1272 123.89 20.0013 124.615 21.384C123.473 20.584 122.646 19.1781 121.014 18.2902L121.018 18.2948Z" fill="white"/>
<path d="M12.4426 20.8151C13.2286 23.6222 13.3997 24.3946 15.7208 26.1889C15.9197 25.5507 15.9936 25.2408 16.2988 24.6535C15.9197 24.3529 15.7301 24.2096 15.3879 23.8627C14.4401 22.9008 14.0563 19.992 13.2517 19.2798C12.6691 19.1133 10.8058 18.9653 10.237 19.0809C8.0916 19.5202 7.86966 23.3818 7.3518 25.0975C7.22233 25.5183 6.80157 26.1519 6.54726 26.545C6.49178 26.9936 6.47791 27.2294 6.47791 27.6826C6.65823 27.8769 6.83856 28.1312 7.08362 28.2006C7.17147 28.1543 7.26395 28.1173 7.31943 28.0526C9.03485 26.5635 9.21518 23.7425 9.68218 21.6707C10.0105 20.2139 11.319 20.5192 12.4518 20.8244L12.4426 20.8151Z" fill="white"/>
<path d="M88.3928 54.8475C88.5824 54.4867 89.1141 53.4647 89.0586 53.1919C88.9661 52.6878 85.6185 51.2125 85.2394 51.1802C85.9006 51.7952 87.0473 52.845 87.5513 53.5572C86.6311 55.777 85.3133 58.1263 84.125 60.2212C82.7194 62.663 81.2907 65.0955 79.8434 67.5142C79.1637 68.6333 76.6576 72.3654 76.3663 73.3966C76.5975 73.1377 76.7501 72.9342 76.9582 72.6567C81.1057 66.9638 85.1145 61.0953 88.3835 54.8475H88.3928Z" fill="white"/>
<path d="M45.8031 40.5021C44.342 39.9703 41.2348 39.2119 39.991 38.4766C39.9633 40.5021 40.3286 41.3623 41.1146 43.2352C41.4152 43.9474 41.6741 44.618 42.0995 45.2793C41.7804 43.7902 41.1747 41.3346 40.9713 39.9102C42.2798 40.4096 43.6207 40.775 44.9107 41.2744C45.7476 42.4814 46.5059 43.7486 47.537 44.7937C47.4214 44.4053 46.5753 41.8941 46.6539 41.7091L46.7371 41.7646C49.6501 43.226 49.9923 44.7059 51.6846 47.1661C51.3285 45.6493 50.6535 43.4341 50.0847 41.9727C48.6837 41.5473 47.181 41.0062 45.8031 40.5021Z" fill="white"/>
<path d="M14.9163 17.0461C15.7116 17.0369 16.3358 16.9721 16.9924 16.5143L18.1576 16.8889L17.4686 17.319C16.6872 17.4762 14.9302 18.0358 15.0966 19.0625C15.4527 19.1549 16.0861 18.5029 16.7658 18.4196L17.0618 18.2439C17.353 18.3225 17.8432 18.4243 18.0512 18.6139C18.9159 19.4 19.1933 21.0094 19.3551 22.1008L19.406 22.1332C19.6141 21.0279 19.3274 20.3111 19.3043 19.2752C19.332 17.6982 19.0685 16.297 19.0685 14.6969C19.0685 12.8886 15.7394 13.4528 14.8978 14.1558C14.5372 14.4564 14.8608 16.5051 14.9256 17.0508L14.9163 17.0461Z" fill="white"/>
<path d="M8.59559 18.1607C8.6557 17.9017 8.85452 17.2219 8.69269 17.0323C8.29042 16.5559 7.02813 16.2368 6.46403 16.3201C5.68723 16.4681 5.36357 16.5236 4.67 16.9537C4.41569 17.763 3.69901 19.8163 3.736 20.5331C4.00418 20.8984 6.40392 20.7828 5.78896 23.4281C5.70111 23.798 5.65949 24.1587 5.51153 24.5426C5.42368 24.7646 5.10001 25.2918 5.20636 25.4397C7.976 22.7251 5.32196 20.7828 8.59097 18.156L8.59559 18.1607Z" fill="white"/>
<path d="M135.148 21.8234C135.597 21.2269 135.985 20.4638 136.429 19.8811C136.508 19.7794 137.016 19.7933 137.174 19.7979C137.326 19.8071 137.483 19.8117 137.636 19.821C137.964 20.9818 138.223 21.7402 138.718 22.8408C139.037 23.5253 140.272 25.2086 140.974 25.4954L141.159 25.4584C141.344 24.9866 141.46 24.5427 141.594 24.0525C140.572 23.0906 140.725 23.1784 140.022 22.0639C139.398 21.0696 138.884 18.1561 137.65 18.1746C137.183 18.1839 136.027 18.4706 135.435 18.1746C134.496 19.6221 134.649 20.9679 132.952 21.8651C133.271 22.1795 133.78 22.6559 134.062 22.9796C134.524 22.5541 134.755 22.3368 135.148 21.8142V21.8234Z" fill="white"/>
<path d="M77.5454 49.0574C78.2667 49.8158 79.1314 50.6898 79.7278 51.5361C80.144 52.1928 80.5694 52.8449 80.9947 53.4923C81.2953 52.0587 83.2234 44.886 83.0939 44.012C80.819 46.2225 80.3937 47.7255 77.5454 49.0574Z" fill="white"/>
<path d="M70.4849 49.0298C69.1301 48.7245 67.9187 47.98 67.0309 46.9163C66.6888 46.4955 66.305 45.9267 65.9166 45.566C65.6114 45.1174 65.297 44.7243 64.9641 44.2988L65.223 45.8203C65.7224 48.4609 66.3929 50.8611 67.0772 53.4555C67.8216 52.0219 69.3844 50.1813 70.4849 49.0251V49.0298Z" fill="white"/>
<path d="M10.0382 14.6137C8.92853 14.7478 7.4073 14.5905 6.38545 15.1409C6.15888 15.2611 5.88608 15.3536 5.65027 15.4461C7.98065 15.7883 9.45101 17.5318 10.6116 17.7306C10.6162 17.4439 10.6116 17.0508 10.815 16.8473C11.0046 17.0277 11.0277 17.4161 11.0786 17.6936C11.4762 17.7861 13.3072 17.4069 13.2055 16.5976C13.1177 15.9085 13.187 15.0252 13.2656 14.3269C11.897 14.1789 11.3838 14.4518 10.0336 14.6183L10.0382 14.6137Z" fill="white"/>
<path d="M30.9192 29.8748C31.548 29.2782 32.1075 27.7752 31.9734 26.9243C30.4707 28.5984 28.5426 30.0459 26.1983 30.1661C24.8297 30.2355 22.8784 29.9164 22.0924 28.6632C22.1479 29.195 22.2357 29.7176 22.2357 30.2448C23.2668 31.239 24.2841 31.8402 25.7637 31.7986C27.6224 31.7477 29.5506 31.1835 30.9192 29.8794V29.8748Z" fill="white"/>
<path d="M44.6472 24.7552C44.7443 24.8477 44.8414 24.931 44.9477 25.0096C45.6552 25.0466 46.1638 25.0882 46.8527 24.894C47.8792 24.4824 47.9809 24.3714 48.4757 23.3771C48.1012 22.1377 47.0516 20.644 45.7292 20.3064C44.772 21.2452 43.4543 23.613 44.6472 24.7599V24.7552Z" fill="white"/>
<path d="M102.375 18.6416C101.344 19.1596 100.082 19.5064 99.6008 20.6857C99.2171 21.6291 100.359 22.4245 101.094 22.7251C104.766 23.8581 103.406 19.1087 102.579 18.6462H102.37L102.375 18.6416Z" fill="white"/>
<path d="M86.1595 40.4836L85.7803 41.1727C86.5941 43.1844 87.4588 45.1776 88.3743 47.143C87.0796 48.2483 86.423 48.8726 85.3272 50.2461C85.7156 50.1074 86.0069 50.0103 86.3814 49.8207C87.6853 49.1039 88.5731 48.6738 90.0019 48.2159C89.4146 47.0228 86.7467 41.0386 86.1595 40.4836Z" fill="white"/>
<path d="M61.635 49.765C61.9817 49.9546 62.3424 50.1627 62.6938 50.3384C61.8708 49.0805 60.8304 47.9799 59.619 47.092C60.2894 45.9543 61.806 42.4628 62.2777 41.154C62.1528 40.9459 62.0002 40.6453 61.8292 40.502C60.5299 42.7033 59.226 45.7693 58.0192 48.1464C59.3693 48.632 60.3773 49.0574 61.6303 49.765H61.635Z" fill="white"/>
<path d="M17.6259 23.4327C18.0975 23.5576 18.9298 22.9842 19.0361 22.4939L18.9529 22.4061C18.8512 22.2997 18.3934 21.7864 18.3749 21.6939C18.2038 20.8014 18.5414 18.9793 17.1311 18.9839C16.2896 19.4325 16.2249 18.9377 15.2955 19.9042C15.5498 20.8384 16.1971 22.3228 16.5901 23.257C16.9739 23.2894 17.2652 23.2801 17.6212 23.4281L17.6259 23.4327Z" fill="white"/>
<path d="M55.6934 45.4872C55.8136 45.6676 56.1234 46.0006 56.276 46.1763C56.1743 45.7092 56.0864 45.2098 55.9939 44.7381C55.8321 43.9981 55.6795 43.2212 55.4807 42.4905C53.4139 43.0501 52.5585 42.805 50.5101 42.0234C51.5828 43.5588 52.4799 44.4883 53.7283 45.8618C54.0519 46.2503 54.3571 46.6573 54.6623 47.055C54.3895 46.5 54.2323 46.1624 54.0242 45.5797C53.7884 44.9647 53.6682 44.0166 53.3676 43.1981L53.7375 43.4478C54.616 44.0397 55.0414 44.6594 55.6934 45.478V45.4872Z" fill="white"/>
<path d="M5.00754 22.1285C4.80409 21.7169 4.51279 21.5458 4.06891 21.4395C3.68514 21.8742 3.68976 21.6661 3.3476 21.8187C2.97307 21.9852 2.75576 23.4003 2.7835 23.7887C2.85748 24.894 3.10716 25.1345 4.13827 25.2131C5.18786 24.9911 5.4283 22.9702 5.00754 22.1239V22.1285Z" fill="white"/>
<path d="M144.077 61.6501C144.077 61.4466 143.975 61.2616 143.864 61.0998C143.467 60.9287 143.046 61.1275 143.023 61.5391C142.976 62.3299 142.921 63.352 142.972 64.1428C143.041 65.1648 142.727 67.0701 143.342 67.8378C143.49 67.995 143.554 67.9997 143.735 67.9719L143.887 67.7499L143.994 67.5187C144.137 65.5949 144.072 63.5786 144.072 61.6455L144.077 61.6501Z" fill="white"/>
<path d="M143.49 50.7085C143.346 50.7779 143.148 50.8657 143.124 51.0322C142.976 52.1514 142.967 56.6511 143.152 57.4696C143.397 57.7425 143.337 57.7702 143.633 57.8535C143.772 57.761 143.744 57.7933 143.846 57.6685C143.966 57.4742 144.082 57.3864 144.045 57.2245C144.1 55.7724 144.114 54.3157 144.128 52.8589C144.132 52.2624 144.257 50.8287 143.494 50.7085H143.49Z" fill="white"/>
<path d="M25.121 15.3491C23.5397 15.978 22.3421 16.3757 20.6776 16.7365L20.7377 17.9712C20.955 17.8741 21.1122 17.7955 21.3388 17.7169C22.9663 16.8521 25.477 16.2278 27.2156 15.5063C27.6641 15.3213 28.4917 15.0901 28.8431 14.8126V14.6785C28.5703 14.4427 28.3484 14.3271 27.9785 14.3317C26.9613 14.9051 26.1059 14.9606 25.121 15.3491Z" fill="white"/>
<path d="M144.146 41.6352C144.183 41.2698 144.105 40.6594 143.795 40.3911C143.453 40.3264 143.61 40.3079 143.3 40.4235C142.866 40.9415 143.05 42.3797 143.087 43.0549C143.134 43.8318 142.889 46.2551 143.166 46.8748C143.272 47.1523 143.277 47.217 143.508 47.4113L143.73 47.4298L143.832 47.3095L143.813 47.1846L143.652 47.1384L143.915 46.9349L143.938 46.7314C144.327 46.1395 144.054 42.5185 144.146 41.6398V41.6352Z" fill="white"/>
<path d="M144.021 71.9538C143.906 71.8428 143.809 71.7457 143.689 71.6439L143.804 71.5884C143.702 71.3526 143.504 71.3156 143.263 71.348C142.829 71.926 142.833 77.5726 143.286 78.1646C143.471 78.2941 143.393 78.2571 143.619 78.2941C143.855 78.1461 143.749 78.2432 143.878 77.9287L143.864 77.7299C144.008 76.8003 144.179 72.7954 144.021 71.9538Z" fill="white"/>
<path d="M143.434 30.1105C143.018 30.0735 142.879 30.5313 142.875 30.8782C142.856 32.6771 142.99 34.4946 143.013 36.2936C143.157 36.534 143.351 36.9271 143.573 37.0659C143.767 36.9919 143.693 37.0566 143.8 36.8809L143.883 36.5479C144.304 35.5074 143.864 33.2922 143.929 32.1592C143.971 31.4378 144.1 30.6146 143.434 30.1105Z" fill="white"/>
<path d="M5.35898 78.2986C5.44221 78.2431 5.57167 78.1598 5.64103 78.1043C5.66877 78.0257 5.67339 77.8916 5.68264 77.7991C5.76587 76.3562 5.68264 74.8718 5.76587 73.4196C5.79824 72.8184 5.88146 71.8565 5.33586 71.4866C5.04918 71.5004 5.05843 71.4819 4.83187 71.6484C4.66541 71.9906 4.66541 76.6152 4.74864 77.1655C4.82262 77.6095 4.81337 78.2939 5.35435 78.2939L5.35898 78.2986Z" fill="white"/>
<path d="M143.832 82.0724C143.947 81.7395 143.961 81.8921 143.827 81.5961C143.531 81.4296 143.684 81.4666 143.342 81.4897C143.175 81.5915 142.99 81.7626 142.981 81.9429C142.926 82.9141 142.815 86.5814 142.995 87.3352C143.055 87.6589 143.143 87.8901 143.411 88.0844L143.601 88.0751C143.67 87.9873 143.707 87.9549 143.758 87.8532L143.656 87.6682L143.434 87.6497C143.272 87.3861 143.342 86.5074 143.342 86.1189C143.406 84.6529 143.36 83.2471 143.383 81.7811C143.624 81.8042 143.61 81.8689 143.832 82.0771V82.0724Z" fill="white"/>
<path d="M143.827 82.0955C143.397 82.5672 143.439 87.127 143.86 87.534C143.943 86.7339 144.179 82.6273 143.827 82.0955Z" fill="white"/>
<path d="M4.8457 58.1586L4.73936 58.2789C4.81334 58.5887 4.73936 58.4731 4.92431 58.6673C5.2526 58.6812 5.10464 58.7182 5.38206 58.5563C5.53465 58.3159 5.57626 58.2974 5.58551 58.0106C5.56239 56.91 5.8953 53.0439 5.30808 52.3872C5.00754 52.2623 5.16012 52.2762 4.83646 52.3594C4.66075 52.5213 4.54516 52.6646 4.52666 52.9051C4.46193 53.7237 4.40644 57.6037 4.79947 58.0939C4.81334 58.1124 4.83183 58.1355 4.8457 58.154V58.1586Z" fill="white"/>
<path d="M131.801 16.5237C131.491 16.9121 130.899 18.0498 130.978 18.5677C131.098 19.3817 132.314 19.6036 133.035 19.7748C134.071 18.1145 133.988 16.815 131.801 16.5237Z" fill="white"/>
<path d="M5.57627 87.9317L5.61326 87.6727C5.94617 87.016 6.0294 81.8781 5.32658 81.4666C5.0769 81.4804 5.07228 81.4573 4.8827 81.6053C4.63764 82.4793 4.5914 87.6357 5.19712 88.1213C5.4653 88.0936 5.33583 88.1398 5.57164 87.9271L5.57627 87.9317Z" fill="white"/>
<path d="M5.07688 42.6433C4.9243 42.7266 4.76709 42.8005 4.73472 43.0133C4.59601 43.9243 4.53128 47.5639 4.64225 48.3408C4.7116 48.7061 4.76709 49.1732 5.14624 49.3536C5.46528 49.2333 5.46528 49.1085 5.53926 48.7662C5.60862 48.6738 5.5855 48.7292 5.57163 48.5859C5.65023 47.846 5.63174 47.0922 5.63174 46.3476C5.65023 45.6539 5.67797 44.9556 5.68722 44.2619C5.69647 43.67 5.80744 42.7728 5.07688 42.6433Z" fill="white"/>
<path d="M113.606 65.6735C113.773 65.2064 113.824 64.5035 113.856 63.9994C113.948 62.7091 114.092 61.442 114.263 60.161C114.3 59.8974 114.11 59.4812 113.898 59.3101C113.024 59.3193 112.423 65.5255 113.038 66.0619C113.246 65.9741 113.546 65.8908 113.606 65.6688V65.6735Z" fill="white"/>
<path d="M115.012 49.2148C114.623 49.1269 114.568 49.2656 114.346 49.5662C114.207 50.4495 113.555 55.3146 113.907 55.8973C113.981 56.0221 114.092 56.0314 114.217 56.0869L114.318 56.0314L114.286 55.9389L114.462 55.6383C114.832 54.8845 115.567 49.8715 115.012 49.2101V49.2148Z" fill="white"/>
<path d="M116.362 39.8778C116.362 39.6373 116.196 39.5309 116.043 39.4107C115.886 39.3922 115.756 39.3413 115.631 39.4985C115.225 39.998 115.127 41.9079 115.1 42.5323C114.952 43.5589 114.471 45.3533 114.966 46.1209L115.109 46.1718C115.285 46.0747 115.252 46.1394 115.289 46.0007C115.53 45.8527 115.562 45.8481 115.756 45.6307L115.673 45.5197C115.664 45.0388 115.923 43.3924 116.001 42.8236C116.094 41.8524 116.353 40.8165 116.362 39.8778Z" fill="white"/>
<path d="M143.633 91.3493C143.351 91.2476 143.499 91.2707 143.166 91.3262C143.064 91.4372 142.953 91.5436 142.953 91.7101C142.981 92.7968 142.657 96.2329 143.009 97.1162C143.129 97.4769 143.074 97.5046 143.319 97.7266C143.624 97.7128 143.471 97.7451 143.767 97.5648C143.887 97.315 143.929 97.1208 143.901 96.848L143.892 96.7185C143.915 95.5947 144.197 91.9921 143.633 91.3493Z" fill="white"/>
<path d="M4.77638 67.8472C4.9151 68.1154 4.95671 68.3004 5.25263 68.3559C5.5393 68.083 5.47457 68.1339 5.59017 67.7038C5.71039 67.1997 5.71039 62.848 5.59479 62.2653C5.40059 62.0341 5.3636 61.9555 5.07693 61.8491C4.53132 62.0249 4.54982 62.9081 4.57294 63.3983C4.65154 64.8088 4.54057 66.4783 4.77638 67.8472Z" fill="white"/>
<path d="M143.286 100.714C143.161 100.765 143.064 100.802 142.986 100.913C142.616 101.426 142.75 105.787 142.796 106.629C143 106.976 142.944 107.003 143.24 107.174L143.494 107.105C143.855 106.707 144.243 100.936 143.282 100.714H143.286Z" fill="white"/>
<path d="M5.604 33.4727C5.37281 33.2276 5.5069 33.3108 5.16474 33.2415C4.65613 33.4727 4.62839 33.9675 4.62376 34.4901C4.61451 35.896 4.64226 37.3203 4.67 38.7262C4.83646 38.9898 5.08614 39.4893 5.3312 39.5817L5.40518 39.4985L5.37744 39.406V39.3459C5.48841 39.1332 5.40518 39.2072 5.6225 39.1054L5.59013 39.0129C5.72422 38.4672 5.7011 37.5793 5.70573 36.9827C5.74272 36.1411 5.8167 34.2219 5.604 33.4727Z" fill="white"/>
<path d="M116.718 35.8173C116.935 35.2948 117.204 31.572 117.305 30.7627C117.333 30.5315 117.324 30.1754 117.139 29.9719C116.838 29.8285 116.977 29.8239 116.718 29.9164C116.14 30.5685 115.872 34.4624 115.784 35.5306C115.918 35.8497 115.974 36.1318 116.242 36.2752C116.413 36.2428 116.482 36.2336 116.644 36.1781C116.302 35.9561 116.168 35.8497 116.08 35.4196L116.108 35.341C116.311 34.7352 116.302 34.319 116.533 33.7132L116.598 33.7039C116.667 34.3606 116.473 35.4983 116.718 35.8173Z" fill="white"/>
<path d="M22.6334 45.5152C22.7351 45.3626 22.7767 45.2793 22.86 45.1175C23.1096 44.2712 21.9075 40.7704 21.8612 39.6743C21.8473 39.3784 21.4312 38.9714 21.0428 38.9991L20.9226 39.1379C20.7099 39.8824 21.7687 43.9567 21.9953 44.9972C22.3097 45.173 22.3375 45.1915 22.5317 45.4921L22.6334 45.5106V45.5152Z" fill="white"/>
<path d="M72.6581 34.3468C72.5656 34.3052 72.265 34.3005 72.1587 34.3005C71.6316 34.8925 71.5391 35.3827 71.405 36.1319C71.1461 37.6071 71.7379 37.4869 72.9077 37.6256C73.1713 37.6302 73.3424 37.6719 73.5458 37.5192C73.8741 36.7284 73.5782 34.7491 72.6581 34.3422V34.3468Z" fill="white"/>
<path d="M5.79823 107.036C6.24212 106.379 6.12652 101.13 5.62253 100.677C5.32661 100.612 5.47457 100.608 5.16015 100.728C4.77176 101.264 4.86423 106.536 5.49306 107.068L5.79823 107.04V107.036Z" fill="white"/>
<path d="M5.28958 97.5693C5.59012 97.4629 5.54851 97.4259 5.75195 97.093L5.71959 96.9773C5.96002 96.4501 5.81669 94.5864 5.82131 93.9482C5.82593 93.1991 6.05712 91.6175 5.33581 91.229C4.99828 91.2799 5.13699 91.2105 4.88731 91.4047C4.69773 92.0799 4.75784 96.4455 5.00753 97.0698C5.05376 97.3473 5.07226 97.4352 5.28958 97.5693Z" fill="white"/>
<path d="M76.1351 35.5261C76.0103 34.8509 75.6866 34.3283 74.9376 34.3098C74.0267 35.0821 73.9943 36.5342 74.0082 37.6395C74.2532 37.6395 74.8682 37.6673 75.0809 37.6488C76.3756 37.4776 76.3617 36.7747 76.1351 35.5307V35.5261Z" fill="white"/>
<path d="M24.2933 55.3054C24.6447 55.3424 24.4921 55.3748 24.7834 55.2499C24.7973 55.0048 24.7788 54.9123 24.8297 54.6579C24.7649 53.8024 23.9327 49.2056 23.4564 48.6552C23.2067 48.6414 23.2206 48.6275 23.0033 48.7385C22.6241 49.3443 23.29 51.1664 23.4703 52.0081C23.5489 52.4289 23.8124 54.362 23.9234 54.5932L24.039 54.6163L23.9512 54.6626C24.0483 54.9539 24.0667 55.0973 24.2933 55.3008V55.3054Z" fill="white"/>
<path d="M117.305 26.633C117.398 26.5728 117.453 26.5405 117.532 26.4665C117.259 26.3231 117.102 26.2676 116.912 26.0271C117.347 25.3705 117.069 24.2837 117.467 23.5669H117.573C117.735 24.0432 117.356 25.3288 117.638 26.1381C117.675 25.9115 117.809 24.8571 117.8 24.6675C117.768 23.8397 118.563 20.5655 117.888 20.0337C116.991 20.1401 116.811 24.6536 116.778 25.5462C116.769 25.9948 116.801 26.522 117.31 26.633H117.305Z" fill="white"/>
<path d="M25.6851 58.8293C25.5787 58.4501 25.4354 58.1264 24.9684 58.3992C24.7834 58.8062 24.8297 58.9726 24.8482 59.4305C25.2921 60.7439 25.4493 62.344 25.8238 63.6897C25.9486 64.129 26.0087 64.8829 26.5913 64.9152C27.1231 64.2123 25.907 59.8652 25.6851 58.8293Z" fill="white"/>
<path d="M112.039 75.3527C112.547 75.0521 113.361 69.5905 112.802 69.0864L112.672 69.0957C112.45 69.2159 112.122 69.6136 112.103 69.8449C112.002 71.1305 111.211 74.3029 111.72 75.3204L112.034 75.3573L112.039 75.3527Z" fill="white"/>
<path d="M28.6813 74.4556C28.8015 74.155 28.7044 74.2521 28.9218 74.0949C29.1206 73.2763 28.0479 68.2864 27.211 67.9766L27.0399 68.0321C26.7717 68.7905 27.9554 73.6509 28.5935 74.2937C28.612 74.3908 28.5935 74.3307 28.6859 74.451L28.6813 74.4556Z" fill="white"/>
<path d="M20.6405 35.919C20.7099 35.7341 20.7053 35.8312 20.659 35.6369C20.696 35.4612 20.659 35.5444 20.77 35.3826C20.9688 34.6103 20.1828 31.4794 20.0302 30.5407C19.9608 30.1152 19.8776 29.7869 19.5169 29.551C19.2025 29.5279 19.2303 29.4816 18.9991 29.6065C18.7679 30.1337 19.2904 31.4147 19.4753 31.9881L19.5031 32.1038C19.5216 32.9269 19.8221 34.5502 20.0718 35.3687C20.1088 35.4936 20.377 35.7757 20.4741 35.8728L20.6405 35.9144V35.919Z" fill="white"/>
<path d="M25.306 65.1834C25.232 64.6932 25.2736 64.0781 25.158 63.7544L25.0239 63.6804C24.1454 64.2169 24.4783 65.8956 24.691 66.7095C24.9777 67.8055 25.1487 69.7802 26.485 70.0346C26.5081 69.8774 26.522 69.9513 26.4203 69.808C26.411 69.4288 26.4295 69.3085 26.2538 68.9663C25.8885 67.9119 25.7452 66.4829 25.306 65.1834Z" fill="white"/>
<path d="M6.30221 53.5757C6.28372 53.7977 6.20049 53.7237 6.25597 54.1029L6.36694 54.1631C7.62924 53.6914 7.25009 50.32 7.29632 49.187C7.31482 48.7616 6.79233 47.6239 6.22823 47.7488L6.15887 48.1187C6.18662 48.4193 6.14963 48.9327 6.27447 49.1223C6.34383 50.2368 6.39931 52.452 6.29759 53.5757H6.30221Z" fill="white"/>
<path d="M26.8549 55.8463C26.7809 55.0971 26.2399 53.4554 25.2643 53.5895L25.2134 53.7283C25.3198 54.0057 25.3475 54.0659 25.5325 54.2971C25.5787 54.6486 25.6989 54.9492 25.6943 55.2359C25.944 57.0348 26.6422 58.3205 26.4064 60.0963C26.5497 59.9622 26.804 59.7356 26.9242 59.5784C27.6455 58.6534 26.9612 56.9146 26.8549 55.8463Z" fill="white"/>
<path d="M111.711 23.4419C111.711 23.65 111.687 24.9032 111.724 25.0466C112.011 26.1658 112.737 27.4976 113.551 28.3301C113.763 28.5474 113.87 28.663 114.115 28.8249L114.207 28.8156C114.226 28.2746 114.23 27.6364 114.318 27.1092C113.102 25.9484 112.977 25.6293 112.492 24.0616C112.321 23.9228 111.877 23.5436 111.715 23.4373L111.711 23.4419Z" fill="white"/>
<path d="M142.103 71.5191C142.135 71.5561 142.214 71.6255 142.251 71.6624C142.477 71.2971 142.422 68.4854 142.417 67.8749L142.459 67.7732C142.246 67.5003 142.301 67.5604 142.292 67.1905C142.403 66.8205 142.477 66.802 142.389 66.4875C140.919 66.6078 140.984 72.518 142.301 73.0822C142.329 73.1007 142.352 73.1238 142.38 73.1423L142.491 73.2302C142.514 73.2487 142.537 73.2672 142.56 73.281C142.385 72.7631 142.098 72.0324 142.103 71.5145V71.5191Z" fill="white"/>
<path d="M24.6818 60.4802L24.0483 59.6894C24.0899 59.5461 24.0853 59.4675 24.0945 59.3148C23.8911 58.3252 23.7385 57.3032 23.5721 56.3089C23.2391 55.1296 23.1004 54.977 23.1051 53.7561L22.5641 54.3388C22.2127 55.9112 22.6935 58.0755 23.3501 59.5599C23.5489 60.0131 24.2379 60.2906 24.6818 60.4849V60.4802Z" fill="white"/>
<path d="M22.3143 50.6947L22.3698 50.579C22.2496 50.3432 22.2126 50.3016 22.0554 50.0981C22.2403 49.9177 22.1987 50.0195 22.2311 49.8021C22.1617 49.3165 21.7271 47.0967 21.5884 46.7129C21.5005 46.3984 21.3572 45.9175 21.2416 45.6123C21.1121 45.2608 21.2 44.4099 21.0474 44.2341C19.7897 44.9648 20.9596 50.5374 22.3143 50.6993V50.6947Z" fill="white"/>
<path d="M142.38 45.8757C141.432 46.181 141.381 47.9892 141.423 48.7985C141.465 49.6679 141.219 52.2623 142.408 52.4704C142.468 52.1143 142.149 51.6749 142.038 51.1431L142.181 50.8841L142.283 51.1709C142.505 50.8934 142.463 48.1649 142.473 47.6053C142.704 47.0411 142.237 47.314 142.255 47.0134C142.264 46.8931 142.473 46.685 142.408 46.4677C142.454 46.1301 142.523 46.0977 142.385 45.8804L142.38 45.8757Z" fill="white"/>
<path d="M4.4527 102.643C4.277 102.259 3.7915 101.371 3.91172 101.015C4.01807 101.177 4.04581 101.232 4.18452 101.362C4.32324 100.931 4.09205 99.0354 4.24463 98.485C4.39259 97.7682 4.13366 97.3613 4.29087 96.5011L4.23076 96.145L4.10592 96.0618C2.79739 96.4595 3.09794 100.381 3.43547 101.375C3.65741 102.018 3.92097 102.277 4.45733 102.638L4.4527 102.643Z" fill="white"/>
<path d="M4.18453 92.8521L4.22152 92.7411L4.0412 92.3758C4.14754 91.9966 4.22152 88.4588 4.11518 88.0934L3.80076 88.0009C3.93023 87.631 4.2354 86.8679 4.18916 86.5211L4.07819 86.4702C3.46322 86.7893 3.11182 87.5061 3.11644 88.1674C3.12569 89.5178 2.85751 91.4278 3.73603 92.5238C3.92098 92.7088 3.93485 92.7504 4.17991 92.8475L4.18453 92.8521Z" fill="white"/>
<path d="M2.95923 52.3547C2.95923 52.7756 3.4586 53.9641 3.85624 54.1167C4.01808 53.904 3.87936 51.6518 3.88399 51.2541C3.96259 50.6298 3.94872 49.6447 3.90711 49.0112C3.87474 48.7106 3.90248 48.669 4.01345 48.4054L3.91173 48.2805C3.98571 48.0631 4.0412 47.9753 4.01808 47.7487C3.79613 47.707 3.81463 47.7579 3.5557 47.9013C2.61245 49.0805 2.94536 50.9304 2.95461 52.3547H2.95923Z" fill="white"/>
<path d="M144.405 86.2993C144.558 86.7525 144.729 87.215 144.891 87.6635C144.854 87.7884 144.812 87.9595 144.761 88.0705L144.678 88.0243C144.558 88.2694 144.632 91.206 144.72 91.7193C144.784 92.1216 144.599 92.7182 144.493 93.1529C145.695 92.0939 145.672 91.1597 145.663 89.6475C145.654 88.1584 145.834 87.141 144.41 86.2947L144.405 86.2993Z" fill="white"/>
<path d="M115.178 54.3342C115.312 54.755 115.493 55.2175 115.645 55.6383L115.4 56.2395C114.966 57.1922 115.331 59.6294 114.674 61.4006C115.858 60.4849 115.978 59.6016 116.145 58.1726C116.339 56.4985 116.686 55.4441 115.178 54.3296V54.3342Z" fill="white"/>
<path d="M141.742 62.2698C141.895 62.4779 142.07 62.7693 142.352 62.7138C142.389 62.4224 142.255 62.3068 142.089 62.0062C142.07 61.7843 142.042 61.7473 141.973 61.5345L142.098 61.2756L142.255 61.4235C142.491 61.0027 142.44 58.3944 142.394 57.8117L142.311 57.821L142.047 57.747C142.135 57.2383 142.445 56.6094 142.445 56.2995L142.357 56.2024C140.993 56.6186 141.173 61.2339 141.737 62.2698H141.742Z" fill="white"/>
<path d="M4.07352 73.2208L4.16137 73.1699C4.0689 72.6335 3.74061 71.9768 3.73598 71.6207C3.89319 71.7271 3.82383 71.6716 3.91169 71.8982L3.98567 71.8797C4.03653 71.001 4.06427 69.1188 3.98567 68.2679L3.70362 68.1107C3.8747 67.6066 4.0504 67.1302 4.1475 66.6077C2.83435 67.6297 3.00543 68.6471 2.98231 70.164C2.96844 71.001 3.03779 73.0589 4.0689 73.2208H4.07352Z" fill="white"/>
<path d="M145.723 67.9952C145.58 67.4957 145.335 66.7558 144.854 66.4922L144.761 66.5801C144.738 66.9778 144.955 67.4633 145.09 67.8564L144.808 68.0322C144.507 68.8322 144.96 71.2555 144.817 72.1804C144.761 72.5411 144.65 72.9111 144.586 73.2857C146.227 71.9076 145.686 69.9791 145.728 67.9998L145.723 67.9952Z" fill="white"/>
<path d="M144.803 45.8389C144.687 46.1348 145.043 46.9534 145.168 47.2863C145.113 47.6332 145.177 47.5869 144.974 47.7719L144.909 47.5592L144.835 47.5499C144.613 48.4564 145.011 50.9351 144.78 51.9618C144.72 52.2208 144.706 52.267 144.729 52.5214C146.125 52.5352 146.259 46.44 144.798 45.8342L144.803 45.8389Z" fill="white"/>
<path d="M141.996 40.4374C142.103 40.5854 142.172 40.6732 142.297 40.812C142.454 40.5345 142.537 37.4545 142.315 37.14L142.167 37.3112L142.005 37.3482C142.029 36.562 142.602 35.9053 142.334 35.5076C141.21 36.1458 141.377 37.6256 141.381 38.717C141.39 40.1784 141.298 41.4733 142.681 42.3288C142.255 41.5241 142.13 41.3484 141.996 40.4374Z" fill="white"/>
<path d="M144.512 26.7762L144.535 26.8964C144.461 27.3219 144.525 30.2862 144.646 30.6146C144.835 30.4805 144.831 30.4897 144.96 30.3001C144.923 30.4851 144.849 30.9013 144.798 31.0632C144.632 31.3915 144.595 31.4285 144.558 31.7892L144.641 31.9557C144.881 31.8863 145.011 31.7152 145.168 31.484C145.797 30.351 145.94 25.5229 144.137 25.2732C144.003 25.8605 144.831 26.2351 144.516 26.7808L144.512 26.7762Z" fill="white"/>
<path d="M112.039 56.0083C111.914 57.1737 111.183 60.2074 112.298 60.9797L112.52 61.0121C112.561 60.8548 112.552 60.7485 112.51 60.5866C112.307 59.8051 113.093 56.6141 112.917 56.0407L112.797 56.0777L112.543 56.1748C112.718 55.606 113.065 55.0279 113.139 54.5793L113.075 54.4822C112.492 54.6995 112.099 55.4302 112.034 56.0083H112.039Z" fill="white"/>
<path d="M23.7246 45.2931C23.7477 45.9776 24.2332 47.5361 24.3534 48.2575C24.4228 48.6876 24.4367 49.9871 24.6678 50.2784C25.8145 49.6032 24.9915 43.9058 23.3547 43.6653C23.2391 44.0075 23.7662 44.4052 24.0436 44.9972L23.7939 45.2793L23.7246 45.2978V45.2931Z" fill="white"/>
<path d="M4.22616 83.0944C4.1753 82.4377 3.72679 82.7152 3.92562 81.6053L3.94874 81.9151C4.06895 81.1752 4.22616 79.0063 4.03196 78.308H3.94411L3.884 78.4652L3.70367 78.7889L3.62507 78.5253C3.78228 78.0536 4.10594 77.2582 4.10132 76.8004L4.01347 76.7402C3.54647 76.99 3.37539 77.3646 3.15807 77.8686C2.87602 78.5253 2.94075 83.7141 4.22616 83.0944Z" fill="white"/>
<path d="M6.48716 73.2672C7.73096 72.7215 7.31944 69.7988 7.34256 68.675C7.35181 68.1432 6.99578 66.8483 6.34383 66.8945C6.29759 67.2136 6.37157 67.2275 6.51953 67.579C6.39469 67.8056 6.4363 67.8703 6.46867 68.1339L6.41318 68.2356C6.32995 69.4334 6.46867 70.9826 6.57501 72.2035C6.58426 72.2822 6.34383 72.8186 6.35307 73.2348L6.49179 73.2626L6.48716 73.2672Z" fill="white"/>
<path d="M145.598 98.8919C145.626 98.078 145.52 96.7322 144.789 96.2605L144.627 96.2975C144.549 96.6305 144.636 96.723 144.743 97.0837C144.544 97.4721 144.965 97.2363 144.636 97.7912C144.539 98.2491 144.586 100.839 144.567 101.472L144.623 101.556L144.946 101.181C144.743 101.713 144.553 102.249 144.373 102.79C145.792 101.639 145.538 100.557 145.594 98.9011L145.598 98.8919Z" fill="white"/>
<path d="M144.826 62.7925C146.051 62.3393 145.7 58.6766 145.663 57.6176C145.644 57.1181 145.27 56.4799 144.817 56.2209L144.734 56.2996C144.752 56.725 144.979 57.1736 145.09 57.6684L144.955 57.7933L144.766 57.7332L144.757 57.8904C144.738 58.1679 144.706 59.2917 144.789 59.5044C144.771 59.9622 144.664 61.1322 144.9 61.4652L145.048 61.419C145.002 61.8907 144.687 62.2976 144.636 62.7647L144.826 62.7925Z" fill="white"/>
<path d="M20.2938 40.9228L20.4186 40.8858C20.4094 40.4789 20.1412 40.132 19.8591 39.8638L20.0718 39.7898H20.1782C20.155 39.443 19.9978 38.9944 19.9285 38.6105C19.688 37.3018 19.3274 36.0485 19.1424 34.7305C18.8928 34.712 19.013 34.6935 18.7818 34.8369C18.0512 35.8959 19.0037 38.9713 19.4938 40.058C19.6927 40.4974 19.8776 40.6916 20.2938 40.9182V40.9228Z" fill="white"/>
<path d="M6.46866 92.9077C7.91128 92.8707 7.87891 86.8495 6.48253 86.5027L6.42242 86.5906C6.43167 86.9975 6.62125 87.3027 6.79695 87.6773L6.6906 87.8947L6.50103 87.9317C6.44554 88.9352 6.47791 90.3781 6.62587 91.3631C6.72759 92.0383 6.43167 92.7366 6.47329 92.9031L6.46866 92.9077Z" fill="white"/>
<path d="M145.677 78.4745C145.695 77.9704 145.339 76.5645 144.65 76.6524C144.632 76.9299 145.039 77.8779 145.085 78.6224L144.909 78.6641C144.868 78.5485 144.807 78.4282 144.757 78.3126C144.655 78.53 144.664 80.9764 144.724 81.3417C144.761 81.5683 144.798 81.7949 144.835 82.0169L144.868 81.8504C144.891 82.3406 144.65 82.9048 144.516 83.3996C144.655 83.2748 144.794 83.1453 144.923 83.0112C145.963 81.929 145.626 79.848 145.681 78.4698L145.677 78.4745Z" fill="white"/>
<path d="M6.63976 102.397C7.62924 102.087 7.64312 100.029 7.60613 99.2063C7.53214 97.6894 7.70322 96.6535 6.25598 95.7656C6.45018 96.3206 6.73685 96.8709 6.94955 97.4628C6.87094 97.4628 6.63976 97.4443 6.57502 97.4536C6.56115 97.9623 6.59814 100.941 6.72298 101.241L6.8617 101.186L6.9588 101.144C6.94955 101.685 6.42706 101.949 6.63976 102.397Z" fill="white"/>
<path d="M111.877 65.9373C111.771 65.9558 111.812 65.9326 111.747 65.9881L111.553 65.9465C111.78 65.3407 112.02 64.8412 112.302 64.2585C111.59 64.6886 111.045 65.2806 110.915 66.1176C110.656 67.8241 110.092 69.5814 111.359 70.9688L111.456 71.0752C111.105 69.5491 111.637 68.8369 111.738 67.3293C111.771 66.8437 111.9 66.4367 111.877 65.9373Z" fill="white"/>
<path d="M29.1206 66.617C28.8062 64.9475 28.7414 63.7313 27.0445 63.0376C27.4514 63.6665 27.7751 63.9348 28.0756 64.6608L27.7751 64.7579C27.8814 66.0158 28.6906 68.2217 28.5935 69.3085L28.5842 69.4195L28.6582 69.4889C29.6292 68.9571 29.287 67.5049 29.1206 66.6263V66.617Z" fill="white"/>
<path d="M141.908 81.5312C142.042 81.6838 142.052 81.7162 142.227 81.8179C142.329 81.1242 142.398 78.983 142.283 78.3633L142.2 78.3079L142.066 78.5715L141.904 78.5391C141.982 77.813 142.348 77.1471 142.375 76.7124C141.839 76.6569 141.358 77.813 141.363 78.2894C141.391 80.338 140.697 81.8734 142.519 83.3394C142.255 82.7613 141.941 82.1694 141.918 81.5312H141.908Z" fill="white"/>
<path d="M3.54647 63.2273C3.75454 63.3984 3.74991 63.4169 4.00422 63.5001C4.06895 63.2735 3.93486 63.107 3.81927 62.8249C3.65281 62.4318 3.62507 62.2654 3.73142 61.8723L3.80077 62.4272C3.99497 61.2295 3.98572 60.0086 3.93486 58.7969L3.68518 58.4501C3.83314 58.0339 3.97648 57.7518 3.94411 57.3171L3.884 57.2107H3.84239C2.96849 57.5575 2.88064 59.0744 2.91763 59.8837C2.96849 61.0398 2.76042 62.2792 3.54184 63.2273H3.54647Z" fill="white"/>
<path d="M3.72675 57.2107H3.84234C3.84234 57.2107 3.86083 57.2014 3.87008 57.1968L3.72675 57.2107Z" fill="white"/>
<path d="M142.306 32.0022L142.329 31.9236L142.163 31.6738C142.038 31.3409 141.793 30.7212 141.858 30.3836C141.941 30.4668 142.029 30.5501 142.112 30.6287C142.19 30.2726 142.14 27.4331 142.033 27.1232C141.996 26.8458 141.964 26.8273 141.834 26.5868C141.908 26.3371 142.01 26.1336 141.918 25.907C141.594 25.9764 141.418 26.2538 141.233 26.5313C141.095 27.7568 140.91 30.5871 141.608 31.5952C141.881 31.8033 141.982 31.9236 142.306 31.9929V32.0022Z" fill="white"/>
<path d="M2.9916 30.9014C3.00085 31.9096 2.75117 33.8889 3.58345 34.5872C3.73141 34.7768 4.07357 35.0126 4.27239 35.1653C4.02271 34.7074 3.93023 34.5224 3.7499 34.023C3.67592 33.6438 3.65743 33.5374 3.6528 33.1536C3.75915 33.3432 3.80539 33.4495 3.96722 33.6068C4.11056 33.1212 4.02733 30.8459 4.01346 30.2447C4.0412 29.9811 3.99496 29.7453 3.81926 29.5418C3.93948 29.2134 4.04582 28.9822 4.19841 28.6677C3.3985 29.366 2.98236 29.7499 2.9916 30.906V30.9014Z" fill="white"/>
<path d="M6.50567 76.731L6.40857 76.7772C6.42706 77.235 6.69062 77.7252 6.83396 78.2154L6.51029 78.2062C6.28373 78.9415 6.50567 81.1521 6.62589 81.929L6.64438 81.818C6.6675 82.4654 6.39007 82.6643 6.41319 83.0759C7.38419 83.1591 7.47204 80.8283 7.43967 80.1578C7.37032 78.8953 7.62925 77.6096 6.51029 76.731H6.50567Z" fill="white"/>
<path d="M144.761 42.0975L144.932 42.0559C145.473 41.5472 145.593 41.2651 145.677 40.5298C145.765 39.7482 145.991 35.3826 144.683 35.5121C144.733 36.2197 145.117 36.4601 145.154 37.2879L144.789 37.1954C144.71 37.9123 144.789 39.9656 144.835 40.7194L145.029 40.6223C145.126 40.9275 144.669 41.7137 144.761 42.0975Z" fill="white"/>
<path d="M116.575 44.7427L116.459 44.7982C116.394 45.3161 116.663 45.9034 116.681 46.611L116.422 46.3289C116.024 46.8977 116.344 50.1766 115.872 50.8841C115.816 50.9674 115.793 51.1662 115.784 51.268L115.867 51.3142C117.185 50.861 117.795 45.4456 116.575 44.7427Z" fill="white"/>
<path d="M112.862 50.1859C113.112 50.5096 113.315 50.7825 113.602 51.0831C113.592 50.7732 113.555 50.579 113.542 50.3293C113.458 48.965 114.166 47.5961 113.939 46.1486L113.722 45.8897C113.925 45.4457 114.073 45.1914 114.152 44.7058L114.087 44.6133C112.765 45.2792 112.672 48.8864 112.862 50.1859Z" fill="white"/>
<path d="M4.07352 44.234C4.11051 43.9196 3.74061 43.3461 3.64813 42.8605L3.91631 42.9345L3.97642 43.0085C4.08277 42.6524 4.12438 39.9748 3.97642 39.6141L3.84695 39.7713L3.74985 39.8315L3.65276 39.7205L3.90706 38.925C3.99491 38.6522 4.05965 38.384 3.92556 38.1204H3.81459C2.76499 39.2858 3.03779 40.7009 3.00543 42.1345C2.99155 42.7727 3.3892 44.0491 4.07352 44.2294V44.234Z" fill="white"/>
<path d="M141.312 88.1582C141.284 89.5918 140.859 92.0336 142.237 92.9215L142.32 92.8938C142.278 92.5562 142.01 92.2047 141.913 91.6497L142.126 91.6683C142.375 91.2844 142.348 88.7501 142.19 88.3016L141.899 88.3756C141.982 87.5709 142.204 87.1454 142.371 86.3962C141.784 86.8356 141.33 87.3766 141.317 88.1582H141.312Z" fill="white"/>
<path d="M141.238 97.7866C141.312 99.6456 140.628 101.32 142.223 102.67C141.95 101.967 141.747 101.62 141.816 100.871C141.904 101.01 141.964 101.116 142.038 101.26L142.14 101.237C142.195 100.82 142.288 98.101 142.181 97.8143L141.867 97.7033C141.969 97.3935 142.315 96.4316 142.325 96.168C141.816 96.2096 141.215 97.3149 141.238 97.7866Z" fill="white"/>
<path d="M119.192 15.5015C119.978 16.7686 119.959 17.3652 119.654 18.8312C119.594 19.1086 119.58 19.7561 119.409 19.9457C119.293 19.1549 119.626 18.0589 119.497 17.3235L119.381 17.2912C119.275 17.6658 118.974 20.2509 119.109 20.5191L119.284 20.3156C119.326 20.5099 118.785 21.4117 118.623 21.9759L118.586 22.1146C118.831 21.9481 119.515 21.5273 119.599 21.1989C119.987 19.7098 120.292 17.712 120.038 16.1905C119.992 15.8992 119.423 15.6078 119.187 15.5015H119.192Z" fill="white"/>
<path d="M21.6948 35.5075C21.9445 37.3018 22.6057 38.7262 22.5594 40.5991L22.6658 40.4743C23.1837 39.8592 23.3039 39.295 23.2253 38.4718C23.1559 37.7504 22.5502 34.0877 21.459 34.208C21.5006 34.4669 21.6486 34.5641 21.8428 34.7999C21.8428 35.0866 21.8659 35.2254 21.6856 35.4381L21.6948 35.5029V35.5075Z" fill="white"/>
<path d="M78.3638 34.9202C78.3037 34.5086 78.1187 34.1155 77.698 33.9722C76.8102 34.5687 76.2507 36.1596 76.7039 37.1261C76.972 37.2556 77.2079 37.2001 77.513 37.1816C78.6597 36.918 78.5071 35.9099 78.3638 34.9248V34.9202Z" fill="white"/>
<path d="M70.6606 37.1724C71.4143 36.77 70.9935 34.0091 69.9901 33.8982C69.9346 33.8935 69.8792 33.8889 69.8237 33.8843C69.1301 34.5733 68.9128 36.0208 69.6295 36.7885C69.8653 37.0382 70.3369 37.1076 70.6606 37.1724Z" fill="white"/>
<path d="M19.8083 26.3415C19.8684 26.7346 20.8163 30.832 20.8533 30.869C21.6809 30.4204 21.0012 27.5485 20.8533 26.7716C20.6914 25.9022 20.5203 25.0142 19.591 24.7229L19.5031 24.7969C19.5586 25.0651 19.6649 25.1345 19.8545 25.3333L19.9285 25.4073C20.5388 26.619 20.6082 27.3543 20.8024 28.7139C20.3539 27.9879 20.266 26.7808 19.91 26.3138L19.8037 26.3461L19.8083 26.3415Z" fill="white"/>
<path d="M6.46866 38.1204L6.38543 38.2129C6.37618 38.6059 6.575 38.9297 6.74146 39.2996L6.46866 39.6233C6.23747 40.3448 6.48715 42.486 6.60737 43.3045V42.7727C6.93566 43.4386 6.41317 43.8548 6.30682 44.3728C7.66159 44.7428 7.84192 38.3978 6.46866 38.1204Z" fill="white"/>
<path d="M114.596 40.9599C114.61 40.6547 114.586 40.7148 114.559 40.4697C114.406 39.2164 115.169 37.4591 115.026 36.2012H114.938L114.873 36.2613L114.721 36.1735C114.841 35.8497 114.864 35.7758 115.044 35.489C115.127 35.1931 115.229 34.9618 115.127 34.6936C114.878 34.763 114.873 34.8462 114.665 35.0682C113.999 35.9422 113.176 41.0986 114.596 40.9692V40.9599Z" fill="white"/>
<path d="M118.438 31.1649C119.21 30.1198 119.335 27.0583 119.09 25.8837C118.933 25.5553 118.933 25.5322 118.665 25.301L118.507 25.2825C118.457 25.5784 118.507 25.5599 118.628 25.8883L118.651 26.2768L118.341 26.4247L118.318 26.6375C118.212 27.7612 118.179 28.8896 118.216 30.0134L118.249 29.9579C118.281 30.8412 118.138 30.9938 117.772 31.817C117.985 31.6366 118.276 31.3777 118.433 31.1603L118.438 31.1649Z" fill="white"/>
<path d="M18.546 31.4609C18.5737 31.2436 18.3379 31.054 18.1761 30.9106C18.3425 30.758 18.287 30.8459 18.324 30.6193C17.7414 28.996 17.8154 27.567 17.0386 25.9068C17.3114 25.5369 17.3068 25.4814 17.2605 25.0513L17.1265 25.0698C16.8305 25.2779 16.7519 25.56 16.5993 25.9022C16.4653 26.952 17.1218 31.4332 18.546 31.4609Z" fill="white"/>
<path d="M6.37621 28.8018C6.30686 29.1255 6.64439 29.5648 6.70913 30.1429L6.52418 30.2585C6.45944 30.6886 6.36234 33.4402 6.48256 33.7131C6.5103 33.6807 6.67214 33.4772 6.7045 33.4633C6.97268 34.009 6.31611 34.3882 6.32535 34.9016C7.87894 35.1837 7.62464 28.8064 6.38084 28.8018H6.37621Z" fill="white"/>
<path d="M91.1716 43.4619C91.1023 43.9844 91.0376 44.3821 90.9312 44.9001C91.1994 44.4931 91.241 44.4145 91.3936 43.9567C91.9207 42.7081 92.9241 41.3207 93.257 40.1553C92.5911 40.0443 92.1103 40.0258 91.4306 39.998C91.3751 41.1542 91.3289 42.315 91.1716 43.4619Z" fill="white"/>
<path d="M74.7526 40.7749C75.0717 40.761 75.1642 40.7055 75.4277 40.4419C75.9363 39.6557 75.904 38.9435 75.9132 38.0371C75.3722 38.0556 74.674 38.0602 74.1469 38.1111C73.8464 38.703 74.0036 40.4141 74.7526 40.7749Z" fill="white"/>
<path d="M72.6858 40.7519C72.9725 40.6455 72.9817 40.6594 73.1852 40.4143C73.6152 39.7113 73.6152 38.9945 73.5874 38.1945C72.9679 38.0742 72.3205 38.0419 71.6871 37.9956C71.7056 38.754 71.7148 40.6131 72.6858 40.7519Z" fill="white"/>
<path d="M122.734 29.4724C122.914 29.2273 123.127 29.0007 123.177 28.7093C123.145 28.4873 123.131 28.4411 123.062 28.2284C123.168 27.9648 123.205 28.0341 123.14 27.8538C122.017 28.9868 121.656 29.625 119.811 29.7036C119.714 30.0967 119.599 30.6331 119.478 31.0077C120.695 30.8597 121.975 30.5175 122.734 29.4724Z" fill="white"/>
<path d="M117.056 15.4507L116.972 15.3674C116.283 15.89 116.015 16.4218 115.932 17.282C115.83 18.3642 115.548 20.7319 116.33 21.532L116.478 21.3701L116.445 21.5042C116.635 21.1065 116.542 20.9632 116.385 20.5932L116.334 20.4776L116.302 20.4036C116.774 20.029 116.926 17.393 116.843 16.7317C116.713 17.134 116.45 18.0451 116.279 18.3873C116.371 17.6566 116.464 17.1433 116.75 16.4542C116.88 16.1397 117.102 15.7605 117.056 15.4507Z" fill="white"/>
<path d="M144.641 21.8558C144.757 21.028 144.507 20.2649 144.082 19.5435C143.957 19.3261 143.707 19.2984 143.453 19.229C143.115 19.4602 143.046 19.5388 142.773 19.8441C142.861 20.4083 143.009 21.6985 143.471 22.0546C143.605 22.1564 143.906 22.198 144.077 22.2257C144.461 22.0685 144.442 22.1425 144.641 21.8604V21.8558Z" fill="white"/>
<path d="M6.72758 61.2109C6.49639 60.6883 6.57962 59.5322 6.37155 58.8478C6.19585 59.3148 6.3623 61.5346 6.39929 62.1636L6.52876 62.1358L6.59812 62.0063C6.64435 62.626 6.20047 62.9174 6.33456 63.4631C6.58887 63.3845 6.74145 63.3012 6.86167 63.0515C7.42577 61.8907 7.71707 57.6639 6.19122 57.2014C6.27907 57.6546 6.42241 57.9367 6.55188 58.3576C6.83393 59.2825 6.89404 60.2629 6.73221 61.2155L6.72758 61.2109Z" fill="white"/>
<path d="M118.105 37.7782C118.175 36.8301 118.378 35.8451 117.717 35.0867L117.615 35.0959C117.56 35.6046 117.772 36.0995 117.818 36.5989C117.842 36.844 117.805 37.3203 117.786 37.5747C117.717 37.4591 117.666 37.2741 117.583 37.1215L117.546 36.9689C117.499 36.7793 117.495 36.733 117.49 36.5295L117.398 36.4879C117.273 37.0429 117.019 39.6234 117.125 40.1043L117.268 40.2292C117.227 40.502 116.852 41.1634 116.704 41.4501C118.054 40.7055 118.008 39.1517 118.11 37.7782H118.105Z" fill="white"/>
<path d="M116.048 25.0327C115.003 25.3611 114.591 29.8608 115.04 30.6654C115.229 30.9845 115.215 30.9707 115.516 31.1834L115.627 31.1603L115.618 31.0447C115.576 30.4296 115.414 30.425 115.317 29.8839C115.451 29.907 115.377 29.9024 115.53 29.8839C115.779 29.3706 115.992 27.3265 115.876 26.8409L115.789 26.8224C115.655 27.1554 115.581 27.4699 115.493 27.8167L115.511 27.641L115.47 27.715C115.553 26.4525 115.793 26.1565 116.182 25.0882L116.057 25.0373L116.048 25.0327Z" fill="white"/>
<path d="M104.909 22.0545L105.085 21.7955C105.071 21.4348 105.131 20.9909 105.117 20.5608C105.08 19.7746 104.724 18.6601 104.396 17.9433C103.744 16.6438 103.383 16.4403 101.913 16.7918C101.455 16.9675 100.785 17.4346 100.757 17.971C101.03 17.9895 102.028 17.6057 102.19 17.3513C102.162 17.1663 102.158 17.1201 102.098 16.9444C102.773 16.6484 104.072 17.3791 104.141 18.2115C103.878 18.0126 103.924 17.9756 103.688 18.0034C103.605 18.3502 104.095 19.3445 104.22 19.8162C104.368 20.6949 104.46 21.1388 104.414 22.0314L104.465 21.9805C104.779 21.2128 104.636 20.5608 104.553 19.7284C104.627 20.029 104.766 20.5053 104.784 20.7966C104.877 21.1573 104.844 21.888 104.918 22.0453L104.909 22.0545Z" fill="white"/>
<path d="M5.72884 27.1369L5.65486 27.0352C5.2156 27.1369 5.0214 27.1092 4.58214 27.0814C4.58214 27.9231 4.54053 29.4353 4.77171 30.2076C5.18785 30.2539 5.10925 30.3047 5.44216 30.1567C5.91841 29.5324 5.75658 27.9601 5.72884 27.1415V27.1369Z" fill="white"/>
<path d="M42.0717 19.5065C40.8372 19.7562 40.6152 21.6847 41.1655 22.6188L41.3597 22.7391C41.3366 22.5726 41.3181 22.4153 41.3227 22.2489L41.4614 22.3552L41.7342 22.9703C41.7897 21.7494 42.1503 20.5655 42.7884 19.5204C42.5295 19.4417 42.3445 19.4787 42.0764 19.5019L42.0717 19.5065Z" fill="white"/>
<path d="M70.582 40.2522C70.864 40.2152 70.7346 40.2661 70.975 40.0672C71.3356 39.4337 71.5761 38.0787 70.7577 37.6532C70.5866 37.5653 70.004 37.5468 69.7959 37.533C69.685 38.2636 69.8006 39.91 70.5866 40.2568L70.582 40.2522Z" fill="white"/>
<path d="M77.0507 37.6811C76.8241 37.7458 76.5652 37.7551 76.4542 38.0048C76.1814 38.6199 76.2276 40.2662 77.0877 40.3865C77.5639 39.8084 78.2251 38.4303 77.6841 37.732C77.4576 37.6302 77.3004 37.6626 77.0507 37.6765V37.6811Z" fill="white"/>
<path d="M38.7658 36.9826C38.5716 36.9826 38.3774 36.9826 38.1832 36.9872C38.0398 36.8531 37.6468 36.497 37.5728 36.3398C36.2412 33.5096 34.928 30.6377 33.7166 27.752C32.593 30.1151 31.2891 31.9603 28.7229 32.8852C26.8642 33.5604 24.8667 33.75 22.9108 33.4448C24.8112 34.2772 26.9613 34.3466 28.9079 33.6298C30.8591 32.8899 32.4959 31.2389 33.5871 29.5C34.031 30.3047 34.1882 30.9522 34.7569 31.669C34.4148 32.3442 33.3559 35.2993 33.1849 36.0161C34.216 34.7212 34.5951 34.6102 35.1453 33.0702C35.3904 33.5604 35.4228 33.972 35.6493 34.4622C35.2841 36.8115 34.387 36.6173 34.0634 38.6567C34.8356 37.5792 36.2134 36.3629 36.7544 35.2808C37.7347 36.9641 35.7696 38.7954 35.2933 40.5944C35.9684 39.9747 36.3753 39.4706 36.9579 38.9111L37.1151 38.9203L37.5867 38.4162C37.6977 38.4023 37.7948 38.37 37.9011 38.333C37.8364 39.7065 37.7439 40.71 37.4064 42.0373C37.4804 41.9355 37.5497 41.8338 37.6237 41.732C38.4329 40.5389 39.0339 39.1377 38.7981 37.7457C38.7658 37.5422 38.8305 37.3202 38.7704 36.9826H38.7658Z" fill="white"/>
<path d="M90.8249 40.1228C90.6908 40.1228 90.5798 40.1228 90.4503 40.1413C89.6412 40.2939 89.017 40.4558 88.2217 40.6824C89.054 41.2281 89.0586 41.2604 89.4516 42.1807C89.5256 42.3703 89.6042 42.6941 89.7337 42.7819C89.8446 42.6154 90.7 40.5621 90.848 40.2245L90.8249 40.1274V40.1228Z" fill="white"/>
<path d="M68.5244 36.3028L68.7186 36.2519C68.9729 35.66 68.7186 33.5327 68.0112 33.2876C67.2899 34.305 67.1049 35.8172 68.5244 36.3028Z" fill="white"/>
<path d="M80.0607 35.8867C80.2179 35.3503 80.3613 33.7594 79.5983 33.6438C79.0435 34.1433 78.5441 35.7017 78.9603 36.3168C79.2608 36.3492 79.2885 36.3445 79.5937 36.3168C79.8526 36.1919 79.9682 36.1966 80.0607 35.8821V35.8867Z" fill="white"/>
<path d="M56.7569 42.1761C56.9696 42.6617 57.0944 42.9762 57.395 43.4155L57.5614 43.5774C57.8204 43.3091 58.5047 42.1992 58.7544 41.82C58.9624 41.5055 59.7207 40.8119 59.7623 40.576L59.7022 40.5205C58.6341 41.1957 57.8712 41.5888 56.7523 42.1807L56.7569 42.1761Z" fill="white"/>
<path d="M44.1802 19.3724L44.06 19.2291C43.519 19.9736 42.3862 21.9021 42.6543 22.8548C42.9179 22.3784 42.8208 22.0316 43.1352 21.6709C43.126 22.1611 42.9179 22.7299 42.8717 23.3218L42.941 23.3773C43.6808 21.3055 43.5467 21.2084 45.0032 19.2985C45.1697 19.1551 45.3454 18.947 45.5026 18.7759C45.1558 18.8684 45.1142 18.9007 44.7998 19.0857L44.2727 19.4141L44.1802 19.3678V19.3724Z" fill="white"/>
<path d="M143.217 27.0631C143.841 26.8041 143.684 25.5093 143.628 24.9404C143.591 24.478 143.67 24.3947 143.222 24.3624C142.898 24.3624 142.796 24.3069 142.57 24.4502V24.6491C142.579 25.4584 142.491 26.3509 143.037 26.9891L143.217 27.0677V27.0631Z" fill="white"/>
<path d="M78.7476 39.665C79.2239 39.1332 79.8527 37.755 79.3348 37.1261L79.0343 37.0845C78.7199 37.2371 78.5025 37.3065 78.3638 37.6625C78.1419 38.2406 78.2066 39.2858 78.7476 39.6696V39.665Z" fill="white"/>
<path d="M69.0145 39.2211C69.5925 38.1575 69.6017 37.2002 68.2423 36.9597C68.1221 37.6257 68.1869 38.8095 68.7417 39.272C68.9544 39.2859 68.8712 39.3229 69.0191 39.2211H69.0145Z" fill="white"/>
<path d="M18.8835 24.5286L18.8049 24.4731C18.435 24.5749 18.2362 24.6304 17.8616 24.6859C17.9495 25.3148 17.9495 25.879 18.3379 26.3553C18.7679 26.3276 18.7078 26.397 18.9713 26.175C19.1424 25.6339 19.0499 25.0697 18.8881 24.5333L18.8835 24.5286Z" fill="white"/>
<path d="M118.045 14.9604C117.708 15.2425 117.647 16.1675 117.772 16.5698C118.133 16.2276 117.953 15.5709 118.309 15.0483L118.045 14.9604Z" fill="white"/>
<path d="M118.498 16.4405L118.618 16.3249C118.586 15.8578 118.79 15.3213 118.577 15.0115L118.355 15.0577L118.364 15.215C118.383 15.7144 118.221 16.0705 118.503 16.4405H118.498Z" fill="white"/>
<path d="M117.379 19.2244C117.55 19.2522 118.202 19.3724 118.336 19.3585C118.401 19.0256 118.591 18.2394 118.521 17.9619C118.151 17.7168 117.999 17.9249 117.527 17.5596C117.458 18.1191 117.421 18.6602 117.379 19.2244Z" fill="white"/>
<path d="M81.0086 32.9824C80.648 33.5281 80.1625 35.1329 80.8098 35.5676C81.3462 35.0311 81.6791 33.468 81.0086 32.9824Z" fill="white"/>
<path d="M120.833 33.1398C121.014 33.0612 121.004 33.0566 121.203 33.0427L121.249 32.9456C120.477 32.904 118.544 32.8855 117.929 32.793C117.902 33.1213 117.846 33.0843 117.999 33.2785C118.78 33.5653 120.093 33.4404 120.833 33.1352V33.1398Z" fill="white"/>
<path d="M66.92 35.3364C67.3222 34.8138 67.165 33.1998 66.6749 32.6772C66.2634 33.4357 66.1385 34.7722 66.92 35.3364Z" fill="white"/>
<path d="M19.5863 28.6676L19.3875 27.6549C19.2442 26.901 18.9436 26.9612 18.3009 26.9565C18.717 27.8121 18.472 28.6769 19.5863 28.6676Z" fill="white"/>
<path d="M67.4979 38.2729C67.7476 37.4729 67.9279 36.6451 67.1419 36.1086C66.8229 36.7561 66.8968 37.8059 67.4979 38.2729Z" fill="white"/>
<path d="M80.1116 38.4072L80.2503 38.3656C80.6017 37.8754 81.175 36.7978 80.4075 36.3955C79.9914 37.0291 79.8896 37.5424 80.0191 38.3008L80.1116 38.4072Z" fill="white"/>
<path d="M21.4775 15.2425C21.8705 15.0806 22.2635 14.9095 22.6611 14.7615C22.0832 14.6182 21.5514 14.4887 20.9642 14.3823L21.0752 14.7153C20.8717 14.9696 20.7284 15.1269 20.5804 15.4136C20.8625 15.52 21.2093 15.3627 21.4775 15.2471V15.2425Z" fill="white"/>
<path d="M47.6666 19.8764L47.6388 19.6961C47.1163 19.007 46.6493 18.7619 45.8679 18.4983L45.6367 18.9515C45.8957 18.97 46.2101 19.007 46.4598 19.0162C47.1071 19.0394 47.047 19.9828 47.6619 19.881L47.6666 19.8764Z" fill="white"/>
<path d="M81.864 33.9813L82.012 34.0738C82.1738 33.6622 82.6315 32.7003 82.1507 32.4043C81.7761 32.7881 81.7576 33.4818 81.864 33.9813Z" fill="white"/>
<path d="M62.8418 51.0229C62.2453 51.3189 61.6489 51.6056 61.0478 51.8877C60.2062 52.2346 59.5543 52.5444 58.7682 53.0208C60.8767 57.3586 63.933 61.8722 66.7766 65.7846C67.8586 67.2737 69.4677 69.5999 70.6745 70.978C70.1196 69.9698 69.329 68.8044 68.7001 67.8194C67.632 66.1407 66.5732 64.4573 65.5236 62.7694C63.7111 59.7865 62.0095 56.7343 60.4282 53.622C60.6871 53.1503 60.9507 52.8682 61.2975 52.4566C61.7737 51.9802 62.3424 51.5178 62.8418 51.0276V51.0229Z" fill="white"/>
<path d="M65.8981 33.9581C65.9443 33.4124 66.0507 32.8621 65.7917 32.3858L65.5698 32.2378C65.4218 32.9037 65.5328 33.3847 65.8981 33.9628V33.9581Z" fill="white"/>
<path d="M81.4201 37.14C81.5958 36.7839 81.9704 35.8821 81.4664 35.6648C81.1936 36.1874 81.1473 36.3955 81.2814 36.9689L81.4201 37.14Z" fill="white"/>
<path d="M114.6 70.1317C115.035 68.92 115.525 65.8401 114.656 64.7857C114.54 64.6423 114.582 64.6516 114.42 64.6377C114.369 64.8828 114.526 65.743 114.568 66.0852L114.471 66.321H114.355C114.124 66.8205 113.759 69.5305 113.93 70.0484C114.087 69.9652 114.022 70.0161 114.129 69.8958C114.045 70.4138 113.726 70.5618 113.606 71.0427L113.68 71.089C114.189 70.83 114.309 70.6311 114.6 70.1363V70.1317Z" fill="white"/>
<path d="M66.0276 35.4104C65.9027 36.0347 65.9166 36.4741 66.3512 36.9735C66.416 36.4324 66.4992 36.0948 66.2911 35.5908C66.1663 35.4844 66.1755 35.4751 66.0322 35.4104H66.0276Z" fill="white"/>
<path d="M135.874 16.2277C136.115 15.6589 136.041 15.4046 136.411 14.845C136.517 15.6589 136.378 16.2277 136.979 16.7041C137.151 16.3248 137.248 16.0057 137.372 15.6127C137.604 16.0612 137.664 16.4821 137.89 16.8058C138.163 15.7375 138.237 16.1491 138.843 15.3999L139.083 15.2334C139.203 15.5803 139.092 16.1491 139.102 16.5884C139.666 17.3423 139.74 17.4671 140.087 18.3412C140.567 19.5389 140.646 21.3795 141.7 22.1981C141.816 22.2905 141.959 22.3877 142.112 22.4848C142.325 22.6189 142.546 22.7299 142.768 22.7946C142.815 22.8085 142.865 22.8316 142.912 22.8362L142.958 22.7438C142.801 22.5495 142.648 22.3507 142.5 22.1472C142.186 20.9957 141.372 18.8869 143.152 18.6186C143.448 18.5724 143.652 18.5816 143.781 18.3134C143.73 17.4717 143.235 16.126 142.852 15.3444C142.288 14.2022 141.543 14.8912 140.526 14.6138V14.4935C140.896 14.1004 141.303 14.1097 141.839 14.0357C140.23 13.2079 138.186 13.2264 136.332 13.1663C136.314 13.5732 136.263 13.8646 136.198 14.2623C136.059 14.8866 135.731 15.682 135.874 16.2231V16.2277Z" fill="white"/>
<path d="M87.5328 19.8765L87.7501 20.5425C87.8657 20.339 87.861 19.8488 87.8749 19.5806C87.6021 19.7054 87.7177 19.6176 87.5281 19.8765H87.5328Z" fill="white"/>
<path d="M106.046 21.6616L106.106 21.7125C106.319 21.435 106.347 21.2038 106.439 20.8616L106.134 21.0651C106.069 21.2732 106.065 21.4489 106.046 21.6662V21.6616Z" fill="white"/>
<path d="M62.9666 32.4367L63.2718 32.372C63.2256 32.1315 63.2117 31.8818 63.0637 31.6968C62.9343 31.8864 62.9666 32.1916 62.962 32.4367H62.9666Z" fill="white"/>
</g>
<defs>
<clipPath id="clip0_30_156">
<rect width="150" height="144" fill="white"/>
</clipPath>
</defs>
</svg>
