<svg width="137" height="48" viewBox="0 0 137 48" fill="none" xmlns="http://www.w3.org/2000/svg">
<g clip-path="url(#clip0_52_37)">
<path d="M38.6525 15.4575C37.9344 15.4828 37.3145 15.9803 36.6105 16.0281C35.5502 16.0984 31.9655 15.494 31.396 15.8595L31.3287 16.0225C31.5672 16.5369 31.943 16.9923 32.2796 17.4448C32.2964 22.3078 32.1562 27.1736 32.1338 32.0365C32.1281 33.4336 32.1422 34.8391 32.159 36.2333C32.1674 37.0176 32.2319 37.8412 32.145 38.6198C32.0861 39.137 31.9318 39.6514 31.5643 40.0337C30.9501 40.6746 29.0062 41.0148 28.1451 40.9332C28.103 40.9304 28.075 40.9248 28.0497 40.9192L28.1086 40.9389L28.0357 40.9136C28.0357 40.9136 28.0441 40.9136 28.0497 40.9164L27.9207 40.8714C27.9431 40.8798 27.96 40.8883 27.9768 40.8939L27.9067 40.8686C27.9936 40.3008 27.3625 39.6205 27.211 39.0246C27.0736 38.4849 27.0708 37.9621 27.068 37.4083L27.0511 21.1384C27.0371 19.8566 26.9726 18.5495 27.1072 17.2734C27.1493 16.8742 27.4158 16.4779 27.427 16.1096C27.4326 15.9129 27.3092 15.7779 27.2082 15.6205C26.9558 15.4715 26.2938 15.6402 26.0077 15.6992C25.4691 15.8089 24.9306 15.9466 24.3836 15.9888C23.5141 16.0534 22.6081 15.9719 21.7554 16.1827C21.7189 16.1911 21.6824 16.2024 21.646 16.2108C21.2617 16.0169 20.9531 15.8398 20.625 15.5531C20.5352 15.4744 20.4398 15.3956 20.3445 15.3197C20.0612 15.5727 19.7751 15.8229 19.4861 16.0703L20.179 17.0682C20.1958 17.9733 20.3248 18.8644 20.3389 19.7723C20.3978 23.6599 20.3304 27.5587 20.3192 31.4491L20.3501 36.5172C20.3473 37.7625 20.2491 39.0752 20.409 40.3092L20.5072 40.4132C20.7372 40.6493 20.9223 40.8039 20.9531 41.1497C20.8241 41.591 20.7119 41.8524 20.9475 42.2769C21.3571 43.019 22.4117 43.7133 22.653 44.2277L22.3949 44.3992C23.4973 45.9592 26.6949 47.1708 28.4901 47.4772C29.1072 47.584 29.3344 47.494 29.7439 48.0056C30.0973 47.9578 30.4339 47.3675 30.7369 47.4378L30.922 47.6177C31.368 47.5615 31.6962 47.1623 32.1253 47.1539C32.2516 47.2607 32.3974 47.4491 32.5657 47.4462C33.0734 47.4378 34.086 46.662 34.4591 46.3275C34.5068 46.1279 34.5544 45.9396 34.619 45.7456C34.877 45.681 34.9191 45.8524 35.0874 45.8384C35.6063 45.7934 36.9751 44.0394 37.25 43.5812C37.9036 42.4989 38.3832 41.2256 38.5796 39.9747C39.0396 37.0513 38.717 33.9199 38.7338 30.9656L38.7815 24.922C38.7928 23.6121 38.8517 22.2684 38.7535 20.9613C38.7731 19.9241 38.6777 17.4898 39.1798 16.6578C39.2696 16.5116 39.3566 16.3654 39.4491 16.2193C39.2247 15.9635 38.9723 15.5868 38.6469 15.4687L38.6525 15.4575Z" fill="white"/>
<path d="M76.3625 17.428C73.6248 15.2607 71.3556 15.9129 68.1888 16.0197C66.618 16.0759 65.0024 16.0337 63.4316 15.9888C62.7247 15.9663 61.7935 15.4603 61.3082 15.4912C61.283 15.4912 61.2577 15.4996 61.2353 15.5053C61.0277 15.6795 60.8426 15.7751 60.7584 16.0365C60.9604 16.6943 61.4709 17.4139 61.5579 18.0661C61.642 18.6817 61.5691 19.3788 61.5691 20.0028C61.5691 21.3127 61.5663 22.5945 61.541 23.9016C61.5018 25.7568 61.6616 27.6318 61.6027 29.487C61.5915 29.7934 61.5999 30.1982 61.4597 30.4765C61.2521 30.8812 60.8875 31.2326 60.5789 31.5615C62.3012 34.5242 61.0165 42.0211 61.2156 45.5826C60.9941 45.9396 60.7781 46.2909 60.5929 46.6732L61.3138 47.3001C63.0108 47.3985 65.1791 47.2663 66.8733 47.0752C67.2351 47.3001 67.4707 47.4772 67.9167 47.3647C68.1551 47.3057 68.3459 47.2017 68.4721 46.9852C68.5759 46.8081 68.6376 46.5495 68.5871 46.3472C68.5338 46.1307 68.3823 45.9227 68.2617 45.7372C68.2842 45.0204 68.3964 44.1771 68.2449 43.48C68.1271 43.435 68.0149 43.4041 67.8915 43.3788C67.8157 42.5355 68.3234 41.7203 68.2842 40.8826C68.301 39.688 67.9476 37.4589 68.4777 36.4779C71.4398 36.194 72.4664 36.8349 75.2349 35.1848C76.0567 34.6957 76.8982 34.0801 77.5069 33.3324C79.1647 31.2916 79.2376 28.7533 79.26 26.2656C79.2684 25.338 79.3133 24.3739 79.2123 23.449C78.9627 21.1806 78.2025 18.884 76.3625 17.428ZM72.2364 29.071C71.9671 29.4758 71.5323 29.6444 71.0723 29.7287C70.3711 29.7091 69.6193 29.74 68.9265 29.6388C68.6937 29.6051 68.4609 29.5629 68.3094 29.3689C68.2926 28.4863 68.172 23.0527 68.5282 22.4708C68.8171 21.9958 69.3949 21.9339 69.8886 21.8468C70.9293 21.785 71.5996 22.2488 72.3374 22.9065C72.3654 23.019 72.3935 23.1314 72.4187 23.2467C72.7637 24.714 73.0835 27.792 72.2364 29.071Z" fill="white"/>
<path d="M52.049 15.8229C50.9999 15.8201 49.9537 15.9606 48.9074 16.0197C47.4292 16.1012 45.8977 16.0984 44.4167 16.0871C43.3957 16.0815 42.4756 15.6936 41.4462 15.7245C41.2443 15.9466 41.1208 16.0169 41.076 16.3176C41.191 16.5734 41.435 16.8152 41.4967 17.0766C41.9006 18.8559 42.01 24.922 41.4406 26.5242C41.3593 26.7519 41.2358 26.9712 41.1208 27.1848C41.5949 28.0281 42.0156 29.0541 41.7379 30.0239C41.5837 30.572 41.1573 30.9852 40.9161 31.4996C41.205 31.9635 41.6313 32.5959 41.7407 33.1272C42.0156 34.468 41.7043 36.5791 41.6762 38.0014C41.6342 40.163 41.9259 43.6599 41.421 45.6894C41.3901 45.8215 41.3452 45.948 41.3032 46.0745L41.0928 46.7154C41.2583 46.9431 41.4238 47.2495 41.6903 47.3535C42.2512 47.3001 45.3956 47.2916 45.5976 47.0864C45.6986 46.9881 45.7715 46.9375 45.8921 46.8728C46.5821 46.9937 47.2357 47.5531 47.9089 47.5587C48.2342 47.3254 48.4923 47.0611 48.7672 46.7744C47.9734 44.5481 48.5624 42.3162 48.3296 40.0337C48.3773 38.8138 48.3857 37.591 48.4334 36.371C51.6563 36.4498 54.1583 36.6521 56.6772 34.2347C57.227 33.7063 57.6477 33.0822 58.0825 32.461C58.45 31.9382 58.8539 31.4041 59.1007 30.811C59.7374 29.279 59.586 27.0302 59.6112 25.3886C59.6505 22.7716 59.2017 19.8988 57.3027 17.9508C55.8049 16.416 54.1583 15.8257 52.049 15.8229ZM53.0588 27.6627C52.826 28.5706 52.3127 29.2874 51.5076 29.7597C50.5007 29.8018 49.4488 29.7906 48.5063 29.4027C48.5288 27.5868 48.1501 23.9578 48.6522 22.3359C48.9355 22.0745 49.5666 22.0267 49.9509 21.9424C50.6998 21.7962 51.4067 22.0885 52.1191 22.2909C52.2706 22.5046 52.4249 22.7182 52.5623 22.9403C53.2579 24.0647 53.3814 26.3978 53.0588 27.6627Z" fill="white"/>
<path d="M14.325 16.6353C10.2746 14.5467 4.74604 17.1272 0.546997 15.4884C0.356259 15.6571 0.047712 15.8651 0.00283248 16.1237C0.123446 16.832 0.502117 17.4758 0.608706 18.1673C0.863958 19.8623 0.796639 25.9789 0.103811 27.3338C0.274915 28.0253 0.914448 29.4111 0.73493 30.0942C0.70127 30.2235 0.555412 30.4259 0.488092 30.5495C0.364674 30.78 0.0701518 31.1764 0.053322 31.4294C0.0112474 32.0309 0.589071 33.9452 0.642366 34.8166C0.72932 36.1771 0.563827 37.5292 0.541387 38.8869C0.518947 40.3176 0.611511 41.7709 0.552607 43.1933C0.527362 43.7976 0.468458 44.416 0.350649 45.0119C0.24967 45.5264 -0.0224122 46.2544 2.75143e-05 46.7604C0.00563746 46.8981 0.126251 47.0274 0.201985 47.1398C0.71249 47.4125 3.8765 47.3113 4.51323 47.1511C4.64225 47.1174 4.70396 47.0499 4.80775 46.974C4.86665 46.9318 4.92836 46.8953 4.99007 46.8587C5.13873 46.7632 5.16117 46.7604 5.34069 46.7547C5.83437 47.3788 6.14011 47.2916 6.88343 47.4434C7.22563 47.2298 7.57064 47.0218 7.88199 46.7632C7.68845 46.3809 7.51735 45.9761 7.19478 45.6838C7.19478 43.6992 7.08258 41.636 7.21722 39.6599C7.22563 38.7294 7.10782 37.4055 7.57064 36.5706C8.3392 36.0141 10.4878 36.6774 11.5285 36.3542C12.513 36.0506 14.9533 34.8306 15.7135 34.1532C16.325 33.6079 16.799 32.8489 17.1777 32.1293C18.6334 29.3717 18.9476 24.8405 18.036 21.9171C17.3768 19.8004 16.367 17.6866 14.325 16.6353ZM11.0208 29.3071C10.7318 29.6275 10.3896 29.7484 9.96609 29.7765C9.28728 29.7625 8.41494 29.7878 7.7726 29.5573C7.57625 29.487 7.47808 29.4561 7.41356 29.2396C7.14148 28.3654 7.20039 22.9712 7.65199 22.2881C8.24664 22.0914 8.80483 21.9143 9.42753 21.858C9.88474 21.858 10.4233 22.1223 10.7711 22.4062C11.6322 23.1061 11.8622 24.2164 11.9464 25.2649C12.0558 26.6479 12.0053 28.2108 11.0208 29.3071Z" fill="white"/>
<path d="M129.088 25.1075C129.155 25.3493 129.32 25.5348 129.545 25.6472C130.322 26.0323 132.468 25.8215 133.244 25.532C133.413 25.4701 133.584 25.4111 133.752 25.3521C134.434 25.6191 135.438 25.993 136.148 25.6838C136.336 25.4308 136.4 25.2846 136.347 24.9642C136.263 24.4638 136.021 24.0141 135.929 23.5165C135.73 22.4427 135.713 21.116 135.141 20.163C134.829 19.643 134.434 19.1933 134.097 18.6929C133.94 18.4596 133.935 18.2347 133.828 17.9902C133.685 17.6528 133.023 17.22 132.72 17.0176C130.942 15.8426 128.139 15.241 126.019 15.4659C124.392 15.7414 122.4 16.1293 121.172 17.3015C120.588 17.858 120.098 18.5102 119.531 19.0864L119.514 19.2017C119.34 20.2361 118.76 21.2734 118.429 22.2825C117.769 24.3008 118.14 27.4828 119.363 29.234C120.314 30.5945 121.685 31.747 123.065 32.6634C124.754 33.785 127.971 35.019 128.849 36.9023C129.309 37.8918 129.205 39.0302 129.071 40.0759L128.987 40.1687C128.423 40.7786 127.73 41.026 126.911 41.0541C126.204 41.0794 125.441 40.8742 124.942 40.3542C124.437 39.8285 124.21 39.033 124.249 38.3162C124.283 37.7231 124.504 37.1356 124.406 36.5453C124.176 36.3261 123.834 36.3823 123.525 36.3907C122.586 36.416 121.626 36.4104 120.689 36.4666C120.165 36.4975 119.64 36.5847 119.116 36.5903C118.532 36.5959 117.932 36.4357 117.363 36.5678C117.116 36.8517 117.105 37.0766 117.133 37.4533C117.178 38.097 117.357 38.766 117.489 39.4013C117.988 41.8243 118.664 43.6824 120.605 45.3493C122.103 46.6339 123.621 46.9487 125.483 47.3282C126.092 47.4519 126.518 47.6627 127.163 47.6824C127.177 47.6824 127.191 47.6824 127.205 47.6824C129.413 47.6149 132.26 46.5271 133.783 44.8742C134.428 44.1743 134.832 43.272 135.073 42.3584C135.04 42.1841 134.998 42.0857 134.894 41.9396C135.157 41.6613 135.508 41.3493 135.71 41.026C136.097 40.4048 136.08 38.8925 136.061 38.1673C135.991 35.5474 135.132 33.1441 133.197 31.3113C131.775 29.9621 130.019 29.2509 128.409 28.1968C127.755 27.7667 127.166 27.1904 126.507 26.7885C126.215 26.6114 125.654 26.5467 125.475 26.2684C125.149 25.7653 125.13 24.7561 125.11 24.1715C125.09 23.6374 125.175 23.1145 125.186 22.5805C125.601 22.0211 126.03 21.5798 126.754 21.4505C127.337 21.3464 127.912 21.532 128.381 21.8805C128.973 22.319 129.304 22.8925 129.609 23.5474C129.323 24 128.939 24.5397 129.093 25.1047L129.088 25.1075Z" fill="white"/>
<path d="M96.9173 45.5713V45.4055C96.993 43.7245 96.8416 42.0436 96.9734 40.3626C96.7743 40.0225 96.6031 39.6514 96.2806 39.4153C96.1459 39.4519 96.1067 39.435 96.0225 39.5531C95.7757 39.8932 95.5148 40.1658 95.1894 40.4273C94.0506 40.4132 88.9848 40.5369 88.2387 40.253C87.8965 39.7751 87.8601 36.1321 87.9638 35.4378C88.0255 35.0246 88.1882 34.5692 88.5473 34.3219C89.184 33.889 92.5023 34.1869 93.4167 34.1897C93.7056 34.3753 94.4097 34.9431 94.7098 34.8869C94.9454 34.5018 95.0548 34.0239 95.1109 33.5769C95.1894 32.9529 95.3185 27.6964 95.2343 27.4041C95.1333 27.0555 94.7154 26.7238 94.4517 26.4877C93.9272 27.0921 93.4195 27.48 92.6397 27.7105C91.5682 27.4097 90.637 27.896 89.6047 27.4462C89.2962 27.6008 88.9877 27.7554 88.6819 27.9129L88.6006 28.2277L88.4491 28.2221C88.062 27.5502 88.1967 23.9719 88.0929 22.8644C88.5697 22.7857 88.9708 22.6114 89.4308 22.4877C91.1363 22.0323 93.0493 21.8074 94.6705 22.5945C95.1109 22.8082 96.0842 23.3928 96.5218 23.0443C96.7406 22.3556 97.0015 16.4919 96.6957 15.8454C96.6256 15.6992 96.491 15.5531 96.3367 15.4996C96.174 15.4434 95.9889 15.4238 95.8178 15.3985C95.5962 15.5924 95.3718 15.7976 95.0829 15.8791C93.9076 16.2052 90.191 16.0787 88.8334 15.9916C88.0199 15.9382 87.2009 15.8201 86.3818 15.8482C85.358 15.8847 84.4296 16.149 83.3973 15.9831C82.856 15.896 81.3273 15.3619 80.9458 15.6964C80.8112 15.8173 80.741 15.8932 80.6793 16.0675C80.7607 16.8236 81.2403 17.4336 81.2936 18.201C81.3694 19.3141 81.3133 20.4245 81.3301 21.5376C81.3581 23.331 81.6414 25.397 81.2123 27.1511C81.1365 27.4603 80.9346 27.7301 80.7775 28C81.5797 29.9058 81.518 32.8039 81.2347 34.8559C81.0468 35.0808 80.713 35.2663 80.7298 35.5755C80.7691 36.267 81.2179 36.8883 81.2431 37.5854C81.3357 40.208 81.0608 42.8419 81.1618 45.4786C80.9206 45.8271 80.5026 46.2825 80.6064 46.7294C80.6457 46.9037 80.7242 47.0302 80.8701 47.1342C81.1001 47.3001 81.6695 47.5193 81.936 47.4462C82.2922 47.345 82.6793 47.1651 83.0523 47.1455C84.5951 47.0696 86.1911 47.2298 87.7422 47.227C90.0844 47.2214 92.5556 46.9628 94.8753 47.2495C95.1361 47.0752 95.2624 46.9375 95.5962 47.0021C96.317 47.1398 96.4797 47.7414 97.3016 47.4125C97.4559 47.2214 97.5176 47.1145 97.4979 46.8559C97.4559 46.3219 97.2371 45.9677 96.9061 45.5657L96.9173 45.5713Z" fill="white"/>
<path d="M117.276 15.9916C117.113 15.7358 117.007 15.5643 116.737 15.4209C116.047 15.4519 115.534 15.9888 114.869 16.0534C113.071 16.2305 111.534 15.7077 109.924 15.6992C109.444 15.6964 108.979 15.9578 108.493 16.0028C107.273 16.1209 106.014 16.0928 104.791 16.0928C104.045 16.0928 103.296 16.0984 102.553 16.0253C101.994 15.9719 101.349 15.7976 100.797 15.8201C100.673 15.8229 100.597 15.8848 100.485 15.9325C99.9579 16.1715 98.8107 15.5081 98.2245 15.4153C97.7112 16.3654 98.2974 16.6887 98.3451 17.636C98.4068 18.9571 97.7869 21.4055 98.1207 22.4793C98.2132 22.78 98.3395 22.8981 98.6059 23.0358C99.5091 22.9824 100.281 22.2263 101.094 21.8749L102.107 22.4455C102.743 22.2235 103.391 22.0267 104.042 21.8524C103.806 24.4273 103.761 27.8201 103.955 30.3865C103.607 30.7913 103.355 31.1848 103.1 31.6543C103.36 32.1434 103.666 32.551 104.02 32.9782C103.719 34.1167 103.862 40.3598 103.86 41.9508C103.854 43.2748 103.773 44.6072 103.776 45.9255C103.604 46.1841 103.405 46.4146 103.402 46.7379C103.509 47.019 103.641 47.0977 103.891 47.2551C104.906 47.3254 105.947 47.1314 106.968 47.1398C108.022 47.1483 109.113 47.3422 110.16 47.3029C110.457 47.2916 110.698 47.2129 110.951 47.0639C111.085 46.8728 111.164 46.7688 111.111 46.5214C111.038 46.1841 110.757 45.9368 110.521 45.7063C110.566 44.1743 110.457 42.6479 110.46 41.116C110.65 38.9824 110.35 36.6887 110.636 34.603C110.791 33.4786 111.282 32.4807 111.506 31.39C111.181 30.8559 110.802 30.3022 110.681 29.681C110.558 29.0485 110.606 22.7013 110.754 22.2488C110.76 22.2263 110.777 22.2094 110.791 22.1869C111.879 22.3387 112.412 22.5214 113.45 22.0492C114.109 22.3781 116.036 23.2382 116.746 23.0302C116.841 23.0021 116.841 22.9937 116.911 22.9431C117.015 22.0323 116.925 21.0878 116.911 20.1715C116.886 18.7688 116.981 17.3661 117.276 15.9916ZM110.423 17.7091C110.423 17.7091 110.398 17.7147 110.387 17.7175C110.404 17.7147 110.42 17.7091 110.44 17.7034C110.435 17.7034 110.429 17.7091 110.423 17.7091ZM110.336 17.3914L110.126 17.5657L110.334 17.3914C110.443 17.3268 110.552 17.2706 110.665 17.2228C110.774 17.175 110.886 17.1328 110.998 17.0963C111.001 17.0963 111.004 17.0963 111.007 17.0963C110.777 17.1722 110.555 17.2649 110.334 17.3942L110.336 17.3914ZM111.7 16.8995C111.7 16.8995 111.697 16.9023 111.694 16.9023C111.694 16.9023 111.7 16.9023 111.7 16.8995C111.669 16.9079 111.638 16.9164 111.61 16.9248C111.641 16.9164 111.672 16.9051 111.702 16.8995H111.7Z" fill="white"/>
<path d="M78.4354 5.69501C78.4242 7.19325 78.5364 8.73647 78.3597 10.2263C78.2923 10.7829 78.1633 11.272 77.9389 11.7892C78.0034 12.0028 78.0679 12.1265 78.2026 12.3064C79.232 12.4526 83.8125 12.4666 84.7606 12.2642C85.647 12.0759 86.3594 11.7048 87.0831 11.1651L87.1925 11.0836C88.5557 9.96486 89.3804 8.58187 89.5683 6.80253C89.7394 5.16093 89.3159 3.33942 88.2584 2.04919C87.2542 0.8208 85.6021 0.224876 84.0622 0.0983823C82.3483 -0.0449768 79.8435 0.0112425 78.11 0.0927604C78.0147 0.20801 77.894 0.29515 77.9025 0.449753C77.9305 0.891074 78.3849 1.28461 78.4354 1.74842C78.57 3.01335 78.4438 4.41602 78.4354 5.69501ZM85.2515 3.6149C85.8461 4.1799 85.9667 4.9754 86.0032 5.75404C86.0677 7.08081 86.0032 7.86507 85.0776 8.88264C84.7157 9.11876 84.3455 9.33802 83.9219 9.44202C83.3862 9.57414 82.5783 9.70063 82.1043 9.36332C82.0033 9.29023 81.8743 9.1272 81.8322 9.01476C81.6639 8.55938 81.8462 3.98032 81.6892 2.80815C82.7859 2.77723 84.4212 2.82221 85.2515 3.6149Z" fill="white"/>
<path d="M39.7885 12.2783C40.6636 12.4807 42.5542 12.2586 43.7379 12.3851C43.8136 11.9016 43.2218 11.2073 43.1208 10.7042C42.9777 9.99298 43.2077 8.19958 43.1713 7.31975C44.2175 7.35067 46.1642 7.0752 47.059 7.47154C47.533 8.0253 47.3563 9.33802 47.3058 10.0295C47.2553 10.6929 46.9243 11.5812 47.0702 12.2136C47.5779 12.4919 49.5694 12.3795 50.2033 12.3233C50.4446 12.3261 50.8317 12.3823 51.0364 12.253C51.2496 11.5193 50.3352 10.1504 50.3015 9.23964C50.2651 8.26142 50.3183 7.28321 50.3155 6.30499C50.3127 5.00633 50.2258 3.65988 50.3969 2.36964C50.481 1.73999 51.0841 0.801126 50.8429 0.219257C49.8808 -0.104004 47.8892 0.0983851 46.8177 0.143361L47.317 0.941674C47.3367 1.9986 47.5667 3.55587 47.1375 4.52003C46.6999 4.77302 44.1166 4.67463 43.5415 4.55657C43.1713 4.20801 43.1657 3.62333 43.1545 3.13985C43.1292 2.24034 43.0198 1.23964 43.5415 0.477865L43.5191 0.303585C42.7309 -0.165845 40.5795 0.033733 39.6342 0.120873C39.637 0.716797 40.2737 1.05692 40.2822 2.00703C40.3046 4.58187 40.3551 7.2298 40.2513 9.79621C40.2176 10.6311 39.7464 11.4603 39.7857 12.2783H39.7885Z" fill="white"/>
<path d="M66.9434 12.3823C67.2071 12.3626 67.2604 12.3373 67.4343 12.1434C67.5886 11.4097 67.1678 10.5495 67.9644 10.0576C68.8648 9.50387 70.5927 9.72312 71.5744 9.89178C71.9307 10.0492 72.3374 10.1701 72.4973 10.5636C72.6992 11.064 72.3626 11.7807 72.6263 12.2164C73.5688 12.6297 76.0596 12.2755 77.2461 12.3907C76.7945 11.6599 76.2868 10.9684 75.8913 10.2066C75.2686 9.0007 74.845 7.67674 74.3233 6.42586C73.8324 5.25369 73.2546 4.09838 72.8086 2.91216C72.5337 2.17568 72.4664 1.33802 72.1466 0.626844C72.0064 0.312016 71.8353 0.20801 71.4987 0.134925C70.5815 -0.0646529 69.3697 0.0112431 68.4357 0.101194L68.1636 0.317638C68.1524 0.449753 68.1411 0.581869 68.1383 0.716795C68.1187 1.39424 67.266 4.00843 66.9462 4.73366C66.3123 6.17287 65.4876 7.55868 64.8257 8.99508C64.6069 9.47013 64.4835 9.98454 64.2759 10.4652C64.1104 10.8503 63.5186 11.6177 63.5859 11.9972C64.203 12.5706 66.13 12.4357 66.9434 12.3823ZM70.0569 4.53127C70.6067 4.86859 70.9798 6.75755 71.2575 7.41532L70.3206 7.40127L68.8452 7.39564C69.3108 6.48208 69.6306 5.47013 70.0569 4.53127Z" fill="white"/>
<path d="M53.3309 10.8644C53.1262 11.1398 52.7755 11.5053 52.8344 11.8735C52.8737 12.104 52.9747 12.1827 53.1233 12.3514C53.8526 12.4357 54.6352 12.3767 55.3701 12.371C57.5776 12.357 59.8861 12.1827 62.0796 12.4216C62.1834 12.4329 62.2676 12.416 62.3685 12.3879C62.4134 11.8089 62.1862 11.078 62.1021 10.4961C62.0151 9.90021 62.0067 9.30991 62.0235 8.70836C61.7402 8.98665 61.4625 9.27618 61.1512 9.52354C60.4471 9.49824 56.896 9.62755 56.5903 9.45889C56.5258 9.42235 56.4809 9.35488 56.4276 9.30428C56.4164 9.1019 56.4248 8.91918 56.4444 8.71679C56.3631 8.22769 56.5594 7.88475 56.7726 7.46029C58.0489 7.435 59.5131 7.26915 60.7052 7.81447C60.5986 6.68447 60.6407 5.55446 60.5593 4.42445C59.6729 4.84329 57.544 4.97259 56.6099 4.68868C56.3855 4.42164 56.4528 3.49403 56.2789 3.06114C58.0741 2.90653 60.2704 2.79691 62.0319 3.23823C62.0207 2.28531 62.1974 1.2312 62.0964 0.300771C61.168 -0.123684 54.4669 0.123681 52.9046 0.115248L52.7307 0.314826C52.8429 0.736471 53.2383 1.03443 53.3505 1.45608C53.6871 2.71539 53.4684 9.34083 53.3337 10.8672L53.3309 10.8644Z" fill="white"/>
</g>
<defs>
<clipPath id="clip0_52_37">
<rect width="136.364" height="48" fill="white"/>
</clipPath>
</defs>
</svg>
